<?xml version="1.0" standalone="no"?><!DOCTYPE svg PUBLIC "-//W3C//DTD SVG 1.1//EN" "http://www.w3.org/Graphics/SVG/1.1/DTD/svg11.dtd" ><svg xmlns="http://www.w3.org/2000/svg"><metadata></metadata><defs><font id="PingFang SC Light:Version 2.00" horiz-adv-x="1119"><font-face font-family="PingFang SC" font-weight="300" font-stretch="normal" units-per-em="1000" panose-1="2 11 3 0 0 0 0 0 0 0" ascent="1060" descent="-340" x-height="0" bbox="-22 -212 1109 901" underline-thickness="42" underline-position="-150" unicode-range="U+0021-ffe5" /><missing-glyph horiz-adv-x="1000" d="M201 714 l-10 -529 l-48 0 l-10 529 l68 0 ZM167 100 q22 0 36 -14 q15 -13 15 -36 q0 -21 -15 -36 q-16 -14 -36 -14 q-22 0 -36 15 q-15 15 -15 35 q0 23 15 36 q13 14 36 14 Z" /><glyph glyph-name="" unicode="!" d="M201 714 l-10 -529 l-48 0 l-10 529 l68 0 ZM167 100 q22 0 36 -14 q15 -13 15 -36 q0 -21 -15 -36 q-16 -14 -36 -14 q-22 0 -36 15 q-15 15 -15 35 q0 23 15 36 q13 14 36 14 Z" /><glyph glyph-name="" unicode="&quot;" d="M292 728 q61 0 61 -82 q0 -119 -100 -174 l-22 35 q71 47 77 123 q-8 -2 -15 -2 q-23 0 -37 14 q-14 13 -14 35 q0 25 13 38 q14 13 37 13 ZM121 728 q61 0 61 -82 q0 -119 -100 -174 l-22 35 q71 48 76 123 q-8 -2 -14 -2 q-23 0 -37 14 q-15 14 -15 35 q0 25 14 38 q14 13 37 13 Z" /><glyph glyph-name="" unicode="#" d="M195 538 l28 176 l51 0 l-28 -176 l166 0 l28 176 l51 0 l-27 -176 l108 0 l-8 -48 l-108 0 l-43 -268 l122 0 l-8 -47 l-121 0 l-28 -175 l-52 0 l28 175 l-165 0 l-28 -175 l-52 0 l28 175 l-109 0 l8 47 l108 0 l43 268 l-122 0 l8 48 l122 0 ZM361 222 l43 268 l-165 0 l-43 -268 l165 0 Z" /><glyph glyph-name="" unicode="$" d="M278 809 l41 0 l0 -82 q85 -4 141 -53 q59 -50 74 -154 l-60 0 q-12 77 -58 117 q-38 32 -97 37 l0 -287 l119 -43 q108 -54 108 -154 q0 -105 -71 -158 q-56 -41 -156 -46 l0 -87 l-41 0 l0 88 q-99 6 -153 64 q-57 60 -69 177 l61 0 q10 -95 53 -141 q37 -40 108 -46 l0 302 l-102 36 q-107 54 -107 155 q0 96 67 147 q55 44 142 47 l0 81 ZM319 40 q77 5 120 39 q45 39 45 109 q0 78 -107 120 l-58 20 l0 -288 ZM278 674 q-64 -3 -100 -32 q-48 -36 -48 -108 q0 -73 108 -117 l40 -15 l0 272 Z" /><glyph glyph-name="" unicode="%" d="M729 391 q77 0 119 -58 q37 -52 37 -137 q0 -83 -37 -137 q-42 -59 -119 -59 q-78 0 -119 59 q-37 50 -37 137 q0 87 37 137 q40 58 119 58 ZM702 728 l-399 -742 l-51 0 l399 742 l51 0 ZM225 714 q77 0 119 -58 q37 -52 37 -137 q0 -83 -37 -137 q-42 -59 -119 -59 q-77 0 -118 59 q-37 50 -37 137 q0 87 37 137 q40 58 118 58 ZM729 347 q-51 0 -75 -43 q-24 -39 -24 -108 q0 -71 23 -108 q24 -44 76 -44 q49 0 76 45 q23 40 23 107 q0 69 -24 108 q-25 43 -75 43 ZM225 670 q-51 0 -75 -43 q-23 -37 -23 -108 q0 -71 23 -108 q24 -44 75 -44 q51 0 76 45 q23 40 23 107 q0 69 -24 108 q-24 43 -75 43 Z" /><glyph glyph-name="" unicode="&amp;" d="M301 678 q-51 0 -80 -26 q-30 -25 -30 -71 q0 -33 34 -79 q17 -23 55 -64 q18 12 35 20 q95 56 95 124 q0 42 -27 67 q-29 29 -82 29 ZM229 410 q-51 54 -67 81 q-32 47 -32 89 q0 70 52 110 q45 38 120 38 q74 0 122 -39 q47 -39 47 -104 q0 -63 -53 -111 q-48 -39 -103 -72 l200 -211 q45 93 54 227 l60 0 q-6 -162 -71 -272 l138 -146 l-79 0 l-92 97 q-90 -111 -237 -111 q-106 0 -174 53 q-71 56 -71 153 q0 101 95 168 q33 19 91 50 ZM286 42 q123 0 198 98 l-220 232 q-48 -27 -90 -57 q-70 -51 -70 -124 q0 -67 53 -108 q52 -41 129 -41 Z" /><glyph glyph-name="" unicode="(" d="M265 827 q-61 -100 -95 -208 q-43 -130 -43 -259 q0 -129 43 -259 q34 -107 95 -208 l-55 0 q-63 95 -99 206 q-43 130 -43 261 q0 131 43 260 q36 111 99 207 l55 0 Z" /><glyph glyph-name="" unicode=")" d="M123 827 q62 -96 99 -207 q43 -134 43 -260 q0 -126 -43 -261 q-38 -111 -99 -206 l-55 0 q58 96 95 208 q43 135 43 259 q0 124 -43 259 q-37 113 -95 208 l55 0 Z" /><glyph glyph-name="" unicode="*" d="M277 714 l-5 -204 l186 69 l17 -51 l-190 -60 l127 -155 l-42 -33 l-120 161 l-120 -161 l-41 33 l126 155 l-190 60 l17 51 l186 -69 l-5 204 l54 0 Z" /><glyph glyph-name="" unicode="," d="M126 100 q61 0 61 -83 q0 -118 -100 -173 l-22 35 q71 47 77 122 l-7 0 l-8 -1 q-22 0 -37 13 q-14 13 -14 36 q0 25 13 37 q14 14 37 14 Z" /><glyph glyph-name="" unicode="-" d="M50 285 l505 0 l0 -52 l-505 0 l0 52 Z" /><glyph glyph-name="" unicode="." d="M129 100 q22 0 36 -14 q15 -13 15 -36 q0 -20 -16 -36 q-16 -14 -35 -14 q-22 0 -36 15 q-15 15 -15 35 q0 23 15 36 q13 14 36 14 Z" /><glyph glyph-name="" unicode="/" d="M457 820 l-359 -920 l-55 0 l359 920 l55 0 Z" /><glyph glyph-name="" unicode="0" d="M300 728 q129 0 192 -118 q52 -96 52 -253 q0 -155 -52 -253 q-64 -118 -192 -118 q-128 0 -192 118 q-52 95 -52 253 q0 159 52 253 q63 118 192 118 ZM300 674 q-104 0 -149 -106 q-33 -78 -33 -211 q0 -131 33 -211 q45 -106 149 -106 q102 0 149 106 q34 82 34 211 q0 131 -34 211 q-46 106 -149 106 Z" /><glyph glyph-name="" unicode="1" d="M279 714 l0 -714 l-62 0 l0 638 q-69 -75 -171 -105 l0 62 q50 15 98 45 q49 32 85 74 l50 0 Z" /><glyph glyph-name="" unicode="2" d="M309 728 q97 0 159 -56 q63 -55 63 -148 q0 -92 -71 -168 q-35 -37 -148 -114 q-152 -103 -169 -186 l389 0 l0 -56 l-464 0 q0 92 71 170 q44 50 150 123 q90 64 121 95 q59 64 59 137 q0 71 -44 110 q-43 39 -117 39 q-78 0 -123 -52 q-48 -52 -48 -152 l-62 0 q0 120 66 189 q63 69 168 69 Z" /><glyph glyph-name="" unicode="3" d="M307 728 q100 0 161 -52 q60 -52 60 -140 q0 -123 -116 -162 q62 -19 96 -63 q35 -44 35 -106 q0 -96 -67 -158 q-69 -61 -174 -61 q-95 0 -159 50 q-77 59 -86 181 l62 0 q4 -91 64 -139 q48 -39 118 -39 q81 0 133 47 q48 47 48 117 q0 66 -46 106 q-44 38 -121 38 l-63 0 l0 50 l57 0 q75 0 118 35 q40 37 40 101 q0 63 -41 102 q-43 39 -119 39 q-76 0 -119 -43 q-45 -42 -54 -119 l-61 0 q9 100 74 159 q62 57 160 57 Z" /><glyph glyph-name="" unicode="4" d="M453 714 l0 -496 l121 0 l0 -51 l-121 0 l0 -167 l-59 0 l0 167 l-368 0 l0 59 l368 488 l59 0 ZM391 631 l-310 -413 l313 0 l0 413 l-3 0 Z" /><glyph glyph-name="" unicode="5" d="M516 714 l0 -56 l-353 0 l-25 -263 l3 0 q32 38 79 57 q42 19 93 19 q102 0 165 -63 q65 -67 65 -181 q0 -105 -73 -175 q-70 -66 -175 -66 q-92 0 -157 51 q-73 55 -81 152 l61 0 q8 -73 60 -113 q48 -37 117 -37 q81 0 134 53 q53 55 53 135 q0 91 -50 143 q-48 49 -131 49 q-54 0 -98 -24 q-45 -25 -69 -71 l-58 0 l36 390 l404 0 Z" /><glyph glyph-name="" unicode="6" d="M311 728 q191 0 221 -188 l-61 0 q-25 135 -161 135 q-92 0 -143 -91 q-50 -85 -50 -221 l0 -35 l4 0 q24 63 78 99 q51 36 120 36 q102 0 163 -65 q62 -65 62 -169 q0 -105 -66 -174 q-66 -69 -168 -69 q-130 0 -195 99 q-58 89 -58 254 q0 169 64 275 q69 114 190 114 ZM309 411 q-76 0 -126 -53 q-52 -51 -52 -130 q0 -79 46 -132 q50 -57 131 -57 q79 0 127 54 q48 54 48 136 q0 82 -47 132 q-47 50 -127 50 Z" /><glyph glyph-name="" unicode="7" d="M36 714 l461 0 l0 -51 l-270 -663 l-66 0 l272 657 l-397 0 l0 57 Z" /><glyph glyph-name="" unicode="8" d="M300 728 q110 0 171 -57 q56 -51 56 -128 q0 -56 -29 -99 q-31 -43 -88 -61 l0 -4 q58 -12 100 -63 q42 -51 42 -121 q0 -92 -64 -150 q-67 -59 -188 -59 q-121 0 -188 59 q-64 57 -64 150 q0 70 42 121 q40 51 101 63 l0 4 q-58 18 -89 61 q-29 41 -29 99 q0 78 56 128 q60 57 171 57 ZM300 676 q-84 0 -129 -42 q-39 -36 -39 -93 q0 -59 36 -95 q44 -42 132 -42 q87 0 132 42 q36 36 36 95 q0 57 -39 93 q-46 42 -129 42 ZM300 354 q-94 0 -144 -47 q-48 -42 -48 -112 q0 -71 47 -112 q51 -46 145 -46 q94 0 146 46 q46 43 46 112 q0 70 -48 112 q-50 47 -144 47 Z" /><glyph glyph-name="" unicode="9" d="M291 728 q130 0 194 -98 q59 -91 59 -255 q0 -165 -64 -275 q-69 -114 -190 -114 q-191 0 -221 188 l61 0 q24 -135 161 -135 q90 0 143 91 q50 88 50 221 l0 35 l-4 0 q-25 -61 -78 -99 q-52 -36 -120 -36 q-102 0 -164 66 q-61 64 -61 168 q0 105 66 174 q66 69 168 69 ZM293 675 q-79 0 -127 -54 q-48 -54 -48 -136 q0 -82 47 -132 q48 -50 127 -50 q73 0 126 53 q52 54 52 130 q0 77 -46 132 q-51 57 -131 57 Z" /><glyph glyph-name="" unicode=":" d="M129 466 q22 0 36 -14 q15 -13 15 -36 q0 -20 -16 -36 q-16 -14 -35 -14 q-22 0 -36 15 q-15 15 -15 35 q0 23 15 36 q13 14 36 14 ZM129 100 q22 0 36 -14 q15 -13 15 -36 q0 -20 -16 -36 q-16 -14 -35 -14 q-22 0 -36 15 q-15 15 -15 35 q0 23 15 36 q13 14 36 14 Z" /><glyph glyph-name="" unicode=";" d="M129 466 q22 0 36 -14 q15 -13 15 -36 q0 -20 -16 -36 q-16 -14 -35 -14 q-22 0 -36 15 q-15 15 -15 35 q0 23 15 36 q13 14 36 14 ZM129 100 q60 0 60 -83 q0 -118 -100 -173 l-21 35 q72 48 76 122 l-7 0 l-8 -1 q-22 0 -37 13 q-14 13 -14 36 q0 26 14 37 q13 14 37 14 Z" /><glyph glyph-name="" unicode="&lt;" d="M555 456 l-435 -197 l435 -198 l0 -58 l-505 230 l0 51 l505 230 l0 -58 Z" /><glyph glyph-name="" unicode="=" d="M50 387 l505 0 l0 -52 l-505 0 l0 52 ZM50 183 l505 0 l0 -52 l-505 0 l0 52 Z" /><glyph glyph-name="" unicode="&gt;" d="M50 514 l505 -230 l0 -51 l-505 -230 l0 58 l435 198 l-435 197 l0 58 Z" /><glyph glyph-name="" unicode="?" d="M270 728 q96 0 151 -54 q54 -51 54 -138 q0 -62 -37 -113 q-16 -18 -79 -77 q-36 -30 -51 -57 q-21 -34 -21 -77 l0 -29 l-61 0 l0 29 q0 44 18 80 q22 48 92 109 q37 35 47 48 q31 42 31 85 q0 63 -37 102 q-38 38 -110 38 q-80 0 -120 -53 q-35 -46 -37 -125 l-60 0 q1 100 56 164 q58 68 164 68 ZM257 100 q22 0 36 -14 q15 -13 15 -36 q0 -21 -15 -36 q-16 -14 -36 -14 q-21 0 -35 15 q-16 15 -16 35 q0 23 16 36 q13 14 35 14 Z" /><glyph glyph-name="" unicode="@" d="M437 728 q154 0 245 -92 q86 -86 86 -219 q0 -106 -67 -193 q-65 -80 -139 -80 q-61 0 -66 69 q-56 -71 -132 -71 q-62 0 -98 41 q-37 41 -37 104 q0 118 70 198 q66 79 155 79 q74 0 98 -79 l17 60 l50 0 l-72 -272 q-11 -33 -11 -57 q0 -27 31 -27 q49 0 99 61 q57 72 57 167 q0 112 -76 188 q-81 78 -213 78 q-141 0 -234 -94 q-94 -93 -94 -236 q0 -153 91 -240 q90 -84 236 -84 q111 0 195 42 q73 38 117 100 l55 0 q-53 -87 -148 -135 q-98 -50 -219 -50 q-170 0 -275 100 q-105 102 -105 269 q0 157 108 263 q109 110 276 110 ZM461 515 q-70 0 -122 -64 q-56 -66 -56 -165 q0 -45 22 -70 q23 -28 62 -28 q43 0 85 36 q39 33 51 75 l23 87 q10 40 10 46 q0 29 -19 54 q-20 29 -56 29 Z" /><glyph glyph-name="" unicode="a" d="M358 714 l286 -714 l-67 0 l-83 213 l-344 0 l-83 -213 l-67 0 l286 714 l72 0 ZM474 265 l-150 383 l-3 0 l-151 -383 l304 0 Z" /><glyph glyph-name="" unicode="b" d="M73 714 l314 0 q98 0 154 -47 q57 -48 57 -132 q0 -61 -35 -105 q-34 -41 -89 -58 q70 -12 112 -57 q41 -47 41 -118 q0 -101 -73 -153 q-64 -44 -170 -44 l-311 0 l0 714 ZM134 661 l0 -266 l240 0 q76 0 119 34 q44 35 44 100 q0 66 -43 100 q-42 32 -119 32 l-241 0 ZM134 343 l0 -290 l248 0 q79 0 128 32 q56 39 56 113 q0 73 -52 110 q-48 35 -133 35 l-247 0 Z" /><glyph glyph-name="" unicode="c" d="M381 728 q114 0 194 -62 q83 -63 97 -168 l-59 0 q-13 83 -81 129 q-64 45 -152 45 q-131 0 -206 -93 q-70 -86 -70 -225 q0 -139 69 -223 q72 -89 201 -89 q90 0 157 49 q71 54 92 153 l59 0 q-23 -124 -112 -194 q-84 -64 -195 -64 q-160 0 -250 110 q-82 100 -82 258 q0 158 84 261 q91 113 254 113 Z" /><glyph glyph-name="" unicode="d" d="M73 714 l254 0 q167 0 251 -100 q77 -91 77 -257 q0 -163 -86 -258 q-90 -99 -255 -99 l-241 0 l0 714 ZM134 660 l0 -606 l171 0 q143 0 218 81 q72 78 72 222 q0 150 -63 223 q-68 80 -214 80 l-184 0 Z" /><glyph glyph-name="" unicode="e" d="M73 714 l501 0 l0 -54 l-440 0 l0 -263 l416 0 l0 -55 l-416 0 l0 -288 l457 0 l0 -54 l-518 0 l0 714 Z" /><glyph glyph-name="" unicode="f" d="M73 714 l473 0 l0 -54 l-412 0 l0 -265 l391 0 l0 -54 l-391 0 l0 -341 l-61 0 l0 714 Z" /><glyph glyph-name="" unicode="g" d="M375 728 q132 0 211 -67 q73 -63 93 -178 l-62 0 q-17 88 -76 137 q-62 52 -166 52 q-125 0 -199 -90 q-72 -87 -72 -229 q0 -139 72 -222 q77 -90 220 -90 q62 0 122 18 q61 19 97 44 l0 203 l-244 0 l0 54 l305 0 l0 -286 q-52 -41 -123 -64 q-78 -24 -162 -24 q-168 0 -262 109 q-86 99 -86 258 q0 159 85 262 q91 113 247 113 Z" /><glyph glyph-name="" unicode="h" d="M73 714 l61 0 l0 -317 l443 0 l0 317 l61 0 l0 -714 l-61 0 l0 342 l-443 0 l0 -342 l-61 0 l0 714 Z" /><glyph glyph-name="" unicode="i" d="M82 714 l61 0 l0 -714 l-61 0 l0 714 Z" /><glyph glyph-name="" unicode="j" d="M371 714 l62 0 l0 -487 q0 -113 -46 -174 q-53 -67 -168 -67 q-97 0 -148 53 q-56 55 -56 159 l0 27 l61 0 l0 -26 q0 -157 144 -157 q81 0 117 47 q34 46 34 139 l0 486 Z" /><glyph glyph-name="" unicode="k" d="M632 714 l-328 -305 l373 -409 l-84 0 l-331 370 l-128 -119 l0 -251 l-61 0 l0 714 l61 0 l0 -392 l416 392 l82 0 Z" /><glyph glyph-name="" unicode="l" d="M73 714 l61 0 l0 -660 l429 0 l0 -54 l-490 0 l0 714 Z" /><glyph glyph-name="" unicode="m" d="M73 714 l81 0 l280 -637 l3 0 l278 637 l81 0 l0 -714 l-61 0 l0 613 l-3 0 l-268 -613 l-59 0 l-267 613 l-4 0 l0 -613 l-61 0 l0 714 Z" /><glyph glyph-name="" unicode="n" d="M73 714 l69 0 l432 -619 l3 0 l0 619 l62 0 l0 -714 l-68 0 l-434 624 l-3 0 l0 -624 l-61 0 l0 714 Z" /><glyph glyph-name="" unicode="o" d="M382 728 q157 0 250 -108 q87 -102 87 -263 q0 -162 -87 -264 q-93 -107 -251 -107 q-159 0 -251 108 q-87 102 -87 263 q0 161 87 263 q93 108 252 108 ZM382 672 q-131 0 -206 -90 q-72 -87 -72 -225 q0 -141 71 -225 q75 -90 206 -90 q130 0 205 89 q72 86 72 226 q0 142 -72 226 q-74 89 -204 89 Z" /><glyph glyph-name="" unicode="p" d="M73 714 l290 0 q238 0 238 -205 q0 -206 -239 -206 l-228 0 l0 -303 l-61 0 l0 714 ZM134 660 l0 -303 l225 0 q91 0 137 38 q43 38 43 114 q0 75 -43 112 q-45 39 -137 39 l-225 0 Z" /><glyph glyph-name="" unicode="q" d="M382 728 q157 0 250 -108 q87 -102 87 -263 q0 -162 -87 -264 l-10 -12 q37 -49 84 -116 l-42 -36 q-52 76 -83 116 q-83 -59 -200 -59 q-159 0 -251 108 q-87 102 -87 263 q0 161 87 263 q93 108 252 108 ZM382 672 q-131 0 -206 -90 q-72 -87 -72 -225 q0 -141 71 -225 q75 -90 206 -90 q97 0 164 50 q-62 79 -129 151 l38 37 q72 -77 131 -151 q0 2 1 2 q72 86 72 226 q0 142 -72 226 q-74 89 -204 89 Z" /><glyph glyph-name="" unicode="r" d="M73 714 l302 0 q107 0 166 -50 q61 -52 61 -146 q0 -61 -34 -109 q-36 -48 -101 -63 l0 -2 q108 -24 120 -132 l10 -107 q6 -67 35 -105 l-67 0 q-22 35 -28 97 l-9 98 q-6 66 -49 95 q-39 27 -109 27 l-236 0 l0 -317 l-61 0 l0 714 ZM134 660 l0 -289 l235 0 q83 0 130 41 q42 39 42 104 q0 71 -41 107 q-41 37 -132 37 l-234 0 Z" /><glyph glyph-name="" unicode="s" d="M306 728 q117 0 186 -57 q71 -57 80 -168 l-61 0 q-12 83 -63 127 q-50 43 -144 43 q-86 0 -136 -30 q-56 -32 -56 -101 q0 -59 67 -95 q36 -17 137 -46 q139 -40 184 -68 q89 -53 89 -150 q0 -92 -77 -146 q-73 -51 -195 -51 q-123 0 -194 56 q-81 64 -90 194 l60 0 q11 -101 70 -150 q55 -44 153 -44 q93 0 153 37 q58 38 58 101 q0 73 -73 114 q-40 23 -157 55 q-128 36 -164 57 q-82 46 -82 134 q0 93 77 142 q68 46 178 46 Z" /><glyph glyph-name="" unicode="t" d="M18 714 l585 0 l0 -54 l-262 0 l0 -660 l-61 0 l0 660 l-262 0 l0 54 Z" /><glyph glyph-name="" unicode="u" d="M73 714 l61 0 l0 -438 q0 -116 50 -173 q54 -62 167 -62 q113 0 167 62 q50 59 50 173 l0 438 l61 0 l0 -438 q0 -138 -67 -213 q-71 -77 -211 -77 q-140 0 -210 76 q-68 74 -68 214 l0 438 Z" /><glyph glyph-name="" unicode="v" d="M73 714 l239 -649 l3 0 l239 649 l68 0 l-269 -714 l-78 0 l-270 714 l68 0 Z" /><glyph glyph-name="" unicode="w" d="M74 714 l171 -632 l3 0 l175 632 l71 0 l175 -632 l3 0 l171 632 l69 0 l-205 -714 l-72 0 l-175 628 l-3 0 l-175 -628 l-72 0 l-205 714 l69 0 Z" /><glyph glyph-name="" unicode="x" d="M102 714 l208 -293 l209 293 l76 0 l-248 -343 l269 -371 l-77 0 l-229 323 l-229 -323 l-76 0 l268 371 l-247 343 l76 0 Z" /><glyph glyph-name="" unicode="y" d="M80 714 l243 -363 l242 363 l75 0 l-287 -420 l0 -294 l-61 0 l0 294 l-287 420 l75 0 Z" /><glyph glyph-name="" unicode="z" d="M55 714 l511 0 l0 -53 l-462 -607 l486 0 l0 -54 l-565 0 l0 53 l463 607 l-433 0 l0 54 Z" /><glyph glyph-name="" unicode="[" d="M50 827 l233 0 l0 -52 l-177 0 l0 -830 l177 0 l0 -52 l-233 0 l0 934 Z" /><glyph glyph-name="" unicode="\" d="M98 820 l359 -920 l-55 0 l-359 920 l55 0 Z" /><glyph glyph-name="" unicode="]" d="M50 827 l233 0 l0 -934 l-233 0 l0 52 l177 0 l0 830 l-177 0 l0 52 Z" /><glyph glyph-name="" unicode="^" d="M281 714 l161 -344 l-52 0 l-139 290 l-138 -290 l-53 0 l161 344 l60 0 Z" /><glyph glyph-name="" unicode="_" d="M0 -88 l500 0 l0 -52 l-500 0 l0 52 Z" /><glyph glyph-name="" unicode="`" d="M150 722 l105 -146 l-44 0 l-133 146 l72 0 Z" /><glyph glyph-name="" unicode="a" d="M282 531 q109 0 161 -59 q46 -51 46 -139 l0 -333 l-57 0 l0 99 q-32 -46 -83 -76 q-65 -37 -136 -37 q-75 0 -121 38 q-49 39 -49 103 q0 90 73 132 q64 41 181 41 l132 2 l0 31 q0 147 -150 147 q-64 0 -103 -26 q-45 -29 -57 -82 l-59 4 q15 79 78 118 q55 37 144 37 ZM429 255 l-129 -2 q-196 -1 -196 -125 q0 -41 33 -67 q34 -26 88 -26 q79 0 142 54 q62 51 62 112 l0 54 Z" /><glyph glyph-name="" unicode="b" d="M63 728 l60 0 l0 -320 q57 123 181 123 q110 0 172 -83 q57 -75 57 -189 q0 -116 -57 -191 q-64 -82 -174 -82 q-129 0 -182 116 l0 -102 l-57 0 l0 728 ZM293 480 q-80 0 -126 -62 q-46 -59 -46 -155 l0 -12 q0 -92 43 -150 q46 -64 131 -64 q87 0 135 66 q42 59 42 156 q0 97 -43 155 q-48 66 -136 66 Z" /><glyph glyph-name="" unicode="c" d="M281 531 q93 0 151 -45 q59 -45 71 -138 l-60 0 q-10 65 -52 98 q-42 33 -110 33 q-82 0 -130 -63 q-47 -59 -47 -161 q0 -99 45 -158 q45 -59 131 -59 q144 0 166 147 l59 0 q-15 -98 -74 -149 q-58 -50 -151 -50 q-115 0 -178 78 q-59 71 -59 191 q0 118 61 194 q64 82 177 82 Z" /><glyph glyph-name="" unicode="d" d="M453 728 l60 0 l0 -728 l-57 0 l0 102 q-54 -116 -181 -116 q-111 0 -175 82 q-57 75 -57 191 q0 114 57 189 q62 83 172 83 q124 0 181 -123 l0 320 ZM283 480 q-88 0 -136 -66 q-43 -56 -43 -155 q0 -97 42 -156 q47 -66 135 -66 q84 0 131 64 q43 60 43 150 l0 12 q0 94 -46 155 q-47 62 -126 62 Z" /><glyph glyph-name="" unicode="e" d="M272 531 q123 0 184 -83 q55 -74 59 -207 l-420 0 q5 -95 51 -149 q48 -54 128 -54 q69 0 114 37 q36 31 55 91 l61 0 q-18 -75 -69 -123 q-63 -57 -161 -57 q-109 0 -174 74 q-67 74 -67 199 q0 114 64 191 q66 81 175 81 ZM273 479 q-77 0 -123 -53 q-47 -53 -54 -136 l356 0 q-15 189 -179 189 Z" /><glyph glyph-name="" unicode="f" d="M365 714 l0 -53 l-87 0 q-40 0 -57 -20 q-18 -19 -18 -64 l0 -60 l155 0 l0 -52 l-155 0 l0 -465 l-60 0 l0 465 l-138 0 l0 52 l138 0 l0 61 q0 66 32 99 q33 37 98 37 l92 0 Z" /><glyph glyph-name="" unicode="g" d="M276 531 q128 0 185 -118 l0 104 l60 0 l0 -479 q0 -250 -232 -250 q-101 0 -157 44 q-53 42 -66 124 l60 0 q11 -58 48 -86 q40 -32 115 -32 q172 0 172 193 l0 99 q-57 -118 -185 -118 q-108 0 -173 77 q-60 72 -60 182 q0 110 60 182 q65 78 173 78 ZM283 480 q-86 0 -133 -62 q-46 -56 -46 -147 q0 -88 43 -144 q47 -63 135 -63 q86 0 134 60 q45 57 45 147 q0 90 -45 147 q-47 62 -133 62 Z" /><glyph glyph-name="" unicode="h" d="M63 728 l61 0 l0 -305 q27 53 72 81 q44 27 98 27 q89 0 138 -52 q50 -53 50 -149 l0 -330 l-60 0 l0 322 q0 74 -38 117 q-39 40 -107 40 q-64 0 -109 -52 q-44 -50 -44 -128 l0 -299 l-61 0 l0 728 Z" /><glyph glyph-name="" unicode="i" d="M123 703 q21 0 36 -15 q15 -12 15 -35 q0 -20 -16 -36 q-16 -14 -35 -14 q-22 0 -36 14 q-15 15 -15 36 q0 23 15 35 q14 15 36 15 ZM93 517 l60 0 l0 -517 l-60 0 l0 517 Z" /><glyph glyph-name="" unicode="j" d="M138 703 q22 0 37 -15 q14 -12 14 -35 q0 -20 -14 -36 q-16 -14 -37 -14 q-20 0 -36 14 q-15 15 -15 36 q0 23 15 35 q15 15 36 15 ZM108 517 l60 0 l0 -584 q0 -131 -135 -131 l-48 0 l0 52 l44 0 q79 0 79 81 l0 582 Z" /><glyph glyph-name="" unicode="k" d="M63 728 l60 0 l0 -472 l287 261 l82 0 l-227 -205 l250 -312 l-79 0 l-214 273 l-99 -90 l0 -183 l-60 0 l0 728 Z" /><glyph glyph-name="" unicode="l" d="M82 728 l60 0 l0 -728 l-60 0 l0 728 Z" /><glyph glyph-name="" unicode="m" d="M273 531 q123 0 162 -106 q27 52 69 79 q39 27 94 27 q82 0 130 -51 q47 -52 47 -142 l0 -338 l-60 0 l0 330 q0 74 -30 110 q-33 39 -103 39 q-57 0 -94 -43 q-38 -41 -38 -107 l0 -329 l-61 0 l0 330 q0 149 -129 149 q-59 0 -97 -47 q-40 -46 -40 -114 l0 -318 l-60 0 l0 517 l60 0 l0 -78 q55 92 150 92 Z" /><glyph glyph-name="" unicode="n" d="M291 531 q192 0 192 -213 l0 -318 l-60 0 l0 314 q0 165 -147 165 q-62 0 -104 -45 q-44 -44 -49 -122 l0 -312 l-60 0 l0 517 l60 0 l0 -85 q27 46 70 73 q42 26 98 26 Z" /><glyph glyph-name="" unicode="o" d="M289 531 q114 0 183 -82 q63 -76 63 -191 q0 -113 -63 -190 q-70 -82 -183 -82 q-113 0 -183 82 q-63 77 -63 190 q0 115 64 191 q67 82 182 82 ZM289 479 q-89 0 -139 -68 q-46 -59 -46 -153 q0 -93 46 -152 q51 -68 139 -68 q89 0 140 68 q46 63 46 152 q0 92 -46 153 q-50 68 -140 68 Z" /><glyph glyph-name="" unicode="p" d="M302 531 q110 0 174 -83 q57 -75 57 -191 q0 -113 -56 -189 q-64 -82 -173 -82 q-124 0 -181 122 l0 -306 l-60 0 l0 715 l57 0 l0 -102 q57 116 182 116 ZM295 480 q-84 0 -131 -66 q-43 -58 -43 -153 l0 -11 q0 -94 46 -153 q47 -60 126 -60 q87 0 136 64 q42 59 42 156 q0 97 -41 156 q-48 67 -135 67 Z" /><glyph glyph-name="" unicode="q" d="M275 531 q124 0 181 -116 l0 102 l57 0 l0 -715 l-60 0 l0 306 q-57 -122 -181 -122 q-111 0 -172 82 q-57 75 -57 189 q0 117 58 191 q62 83 174 83 ZM281 480 q-89 0 -135 -67 q-41 -57 -41 -156 q0 -98 43 -156 q46 -64 135 -64 q80 0 126 60 q46 61 46 153 l0 11 q0 93 -43 153 q-48 66 -131 66 Z" /><glyph glyph-name="" unicode="r" d="M280 531 q48 0 75 -11 l0 -61 q-37 11 -79 11 q-71 0 -112 -62 q-41 -56 -41 -135 l0 -273 l-60 0 l0 517 l60 0 l0 -99 q21 49 57 77 q42 36 100 36 Z" /><glyph glyph-name="" unicode="s" d="M239 531 q184 0 206 -159 l-59 0 q-10 54 -43 79 q-35 28 -105 28 q-58 0 -93 -23 q-36 -24 -36 -62 q0 -39 46 -63 q31 -15 109 -36 q95 -24 134 -48 q62 -38 62 -104 q0 -157 -210 -157 q-199 0 -217 177 l59 0 q9 -68 48 -98 q36 -27 108 -27 q150 0 150 102 q0 47 -51 72 q-28 14 -115 36 q-91 24 -126 46 q-59 35 -59 99 q0 63 56 101 q53 37 136 37 Z" /><glyph glyph-name="" unicode="t" d="M188 517 l135 0 l0 -52 l-135 0 l0 -350 q0 -34 12 -49 q12 -14 45 -14 l65 0 l0 -52 l-73 0 q-60 0 -86 31 q-23 26 -23 84 l0 350 l-110 0 l0 52 l110 0 l0 142 l60 25 l0 -167 Z" /><glyph glyph-name="" unicode="u" d="M63 517 l60 0 l0 -316 q0 -81 34 -121 q36 -42 111 -42 q59 0 105 46 q45 45 51 119 l0 314 l60 0 l0 -517 l-60 0 l0 87 q-60 -101 -172 -101 q-189 0 -189 212 l0 319 Z" /><glyph glyph-name="" unicode="v" d="M71 517 l163 -441 l162 441 l67 0 l-198 -517 l-62 0 l-198 517 l66 0 Z" /><glyph glyph-name="" unicode="w" d="M72 517 l140 -440 l130 440 l58 0 l130 -440 l141 440 l66 0 l-177 -517 l-58 0 l-130 439 l-132 -439 l-57 0 l-178 517 l67 0 Z" /><glyph glyph-name="" unicode="x" d="M99 517 l148 -199 l148 199 l71 0 l-185 -244 l207 -273 l-72 0 l-169 228 l-170 -228 l-72 0 l208 273 l-186 244 l72 0 Z" /><glyph glyph-name="" unicode="y" d="M71 517 l169 -431 l167 431 l66 0 l-285 -715 l-65 0 l87 211 l-205 504 l66 0 Z" /><glyph glyph-name="" unicode="z" d="M35 517 l401 0 l0 -46 l-334 -419 l350 0 l0 -52 l-427 0 l0 47 l333 418 l-323 0 l0 52 Z" /><glyph glyph-name="" unicode="{" d="M306 827 l0 -49 l-54 0 q-73 0 -73 -81 l0 -218 q0 -89 -78 -119 q78 -33 78 -119 l0 -219 q0 -80 73 -80 l54 0 l0 -49 l-62 0 q-57 0 -90 36 q-31 34 -31 94 l0 216 q0 46 -19 68 q-23 26 -77 26 l0 54 q54 2 77 26 q19 22 19 68 l0 215 q0 61 31 95 q33 36 90 36 l62 0 Z" /><glyph glyph-name="" unicode="|" d="M66 860 l52 0 l0 -1000 l-52 0 l0 1000 Z" /><glyph glyph-name="" unicode="}" d="M27 827 l62 0 q57 0 90 -36 q31 -36 31 -95 l0 -215 q0 -47 19 -69 q21 -23 77 -25 l0 -54 q-54 0 -76 -25 q-20 -21 -20 -69 l0 -216 q0 -58 -31 -94 q-33 -36 -90 -36 l-62 0 l0 49 l54 0 q73 0 73 80 l0 219 q0 86 78 119 q-78 30 -78 119 l0 218 q0 81 -73 81 l-54 0 l0 49 Z" /><glyph glyph-name="" unicode="~" d="M146 431 q45 0 112 -46 q66 -45 96 -45 q38 0 86 72 l39 -28 q-64 -94 -125 -94 q-43 0 -110 46 q-67 45 -98 45 q-39 0 -86 -72 l-39 28 q63 94 125 94 Z" /><glyph glyph-name="" unicode="¤" d="M157 535 q63 51 143 51 q80 0 143 -51 l77 77 l32 -32 l-77 -77 q51 -61 51 -142 q0 -79 -52 -143 l78 -77 l-32 -32 l-78 77 q-61 -51 -142 -51 q-80 0 -142 51 l-77 -77 l-32 32 l77 77 q-51 63 -51 143 q0 82 50 142 l-77 77 l32 32 l77 -77 ZM300 527 q-69 0 -117 -49 q-49 -48 -49 -117 q0 -69 49 -118 q49 -49 117 -49 q67 0 118 49 q49 51 49 118 q0 68 -49 117 q-49 49 -118 49 Z" /><glyph glyph-name="" unicode="§" d="M320 834 q74 0 152 -29 l0 -57 q-73 32 -152 32 q-70 0 -106 -29 q-40 -28 -40 -75 q0 -42 37 -75 q28 -25 96 -59 q100 -48 132 -71 q64 -46 64 -96 q0 -44 -41 -90 q-27 -29 -80 -66 q50 -25 77 -49 q52 -46 52 -109 q0 -79 -66 -127 q-64 -46 -159 -46 q-93 0 -179 37 l0 57 q91 -40 178 -40 q75 0 121 33 q46 34 46 79 q0 51 -51 87 q-30 24 -117 60 q-101 42 -133 66 q-61 42 -61 96 q0 48 55 102 q31 33 77 58 q-44 25 -67 51 q-40 43 -40 100 q0 74 59 117 q55 43 146 43 ZM276 496 q-43 -22 -78 -54 q-49 -42 -49 -74 q0 -35 63 -71 q15 -9 112 -51 q120 75 120 127 q0 31 -60 67 q-27 17 -108 56 Z" /><glyph glyph-name="" unicode="¨" d="M334 864 q16 0 29 -11 q11 -9 11 -28 q0 -16 -11 -29 q-13 -10 -29 -10 q-16 0 -28 10 q-11 11 -11 29 q0 20 11 28 q11 11 28 11 ZM165 864 q16 0 29 -11 q11 -9 11 -28 q0 -16 -11 -29 q-13 -10 -29 -10 q-16 0 -28 10 q-11 11 -11 29 q0 20 11 28 q11 11 28 11 Z" /><glyph glyph-name="" unicode="©" d="M401 728 q154 0 263 -108 q108 -108 108 -263 q0 -153 -108 -263 q-109 -108 -263 -108 q-155 0 -263 108 q-108 110 -108 263 q0 155 108 263 q108 108 263 108 ZM401 689 q-139 0 -235 -97 q-97 -96 -97 -235 q0 -138 97 -235 q97 -97 235 -97 q136 0 235 97 q97 99 97 235 q0 138 -97 235 q-97 97 -235 97 ZM410 587 q74 0 123 -36 q52 -39 64 -111 l-53 0 q-9 47 -46 73 q-36 26 -88 26 q-79 0 -120 -53 q-41 -48 -41 -131 q0 -80 42 -130 q42 -50 116 -50 q53 0 92 30 q39 30 51 86 l53 0 q-17 -81 -71 -125 q-51 -39 -125 -39 q-102 0 -159 69 q-52 62 -52 159 q0 99 53 161 q58 71 161 71 Z" /><glyph glyph-name="" unicode="°" d="M164 827 q49 0 85 -36 q36 -34 36 -85 q0 -49 -36 -85 q-36 -36 -85 -36 q-50 0 -85 36 q-36 36 -36 85 q0 51 36 85 q35 36 85 36 ZM164 789 q-34 0 -58 -24 q-25 -24 -25 -59 q0 -34 25 -58 q24 -24 58 -24 q34 0 58 24 q24 24 24 58 q0 35 -24 59 q-24 24 -58 24 Z" /><glyph glyph-name="" unicode="±" d="M277 517 l52 0 l0 -166 l226 0 l0 -52 l-226 0 l0 -166 l-52 0 l0 166 l-227 0 l0 52 l227 0 l0 166 ZM50 52 l505 0 l0 -52 l-505 0 l0 52 Z" /><glyph glyph-name="" unicode="·" d="M250 431 q28 0 49 -21 q21 -19 21 -49 q0 -29 -21 -50 q-21 -21 -49 -21 q-29 0 -49 21 q-21 21 -21 50 q0 30 21 49 q20 21 49 21 Z" /><glyph glyph-name="" unicode="»" d="M250 582 l285 -197 l0 -48 l-285 -198 l0 57 l238 165 l-238 165 l0 56 ZM30 582 l285 -197 l0 -48 l-285 -198 l0 57 l238 165 l-238 165 l0 56 Z" /><glyph glyph-name="" unicode="×" d="M303 295 l203 203 l37 -37 l-203 -203 l203 -203 l-37 -37 l-203 204 l-203 -204 l-37 37 l203 203 l-203 203 l37 37 l203 -203 Z" /><glyph glyph-name="" unicode="à" d="M225 722 l105 -146 l-44 0 l-132 146 l71 0 ZM282 531 q109 0 161 -59 q46 -51 46 -139 l0 -333 l-57 0 l0 99 q-32 -46 -84 -77 q-61 -36 -135 -36 q-75 0 -121 38 q-49 39 -49 103 q0 90 73 132 q64 41 181 41 l132 2 l0 31 q0 147 -150 147 q-64 0 -103 -26 q-45 -29 -57 -82 l-59 4 q15 79 78 118 q55 37 144 37 ZM429 255 l-129 -2 q-196 -1 -196 -125 q0 -41 33 -67 q34 -26 88 -26 q79 0 142 54 q62 51 62 112 l0 54 Z" /><glyph glyph-name="" unicode="á" d="M390 722 l-133 -146 l-44 0 l105 146 l72 0 ZM282 531 q109 0 161 -59 q46 -51 46 -139 l0 -333 l-57 0 l0 99 q-32 -46 -84 -77 q-61 -36 -135 -36 q-75 0 -121 38 q-49 39 -49 103 q0 90 73 132 q64 41 181 41 l132 2 l0 31 q0 147 -150 147 q-64 0 -103 -26 q-45 -29 -57 -82 l-59 4 q15 79 78 118 q55 37 144 37 ZM429 255 l-129 -2 q-196 -1 -196 -125 q0 -41 33 -67 q34 -26 88 -26 q79 0 142 54 q62 51 62 112 l0 54 Z" /><glyph glyph-name="" unicode="è" d="M247 722 l105 -146 l-44 0 l-132 146 l71 0 ZM272 531 q123 0 184 -83 q55 -74 59 -207 l-420 0 q5 -95 51 -149 q48 -54 128 -54 q69 0 114 37 q36 31 55 91 l61 0 q-18 -75 -69 -123 q-63 -57 -161 -57 q-109 0 -174 74 q-67 74 -67 199 q0 114 64 191 q66 81 175 81 ZM273 479 q-77 0 -123 -53 q-47 -53 -54 -136 l356 0 q-15 189 -179 189 Z" /><glyph glyph-name="" unicode="é" d="M373 722 l-133 -146 l-44 0 l105 146 l72 0 ZM272 531 q123 0 184 -83 q55 -74 59 -207 l-420 0 q5 -95 51 -149 q48 -54 128 -54 q69 0 114 37 q36 31 55 91 l61 0 q-18 -75 -69 -123 q-63 -57 -161 -57 q-109 0 -174 74 q-67 74 -67 199 q0 114 64 191 q66 81 175 81 ZM273 479 q-77 0 -123 -53 q-47 -53 -54 -136 l356 0 q-15 189 -179 189 Z" /><glyph glyph-name="" unicode="ê" d="M299 716 l111 -127 l-45 0 l-91 95 l-91 -95 l-44 0 l111 127 l49 0 ZM272 531 q123 0 184 -83 q55 -74 59 -207 l-420 0 q5 -95 51 -149 q48 -54 128 -54 q69 0 114 37 q36 31 55 91 l61 0 q-18 -75 -69 -123 q-63 -57 -161 -57 q-109 0 -174 74 q-67 74 -67 199 q0 114 64 191 q66 81 175 81 ZM273 479 q-77 0 -123 -53 q-47 -53 -54 -136 l356 0 q-15 189 -179 189 Z" /><glyph glyph-name="" unicode="ì" d="M68 722 l105 -146 l-44 0 l-132 146 l71 0 ZM93 517 l60 0 l0 -517 l-60 0 l0 517 Z" /><glyph glyph-name="" unicode="í" d="M249 722 l-132 -146 l-44 0 l105 146 l71 0 ZM93 517 l60 0 l0 -517 l-60 0 l0 517 Z" /><glyph glyph-name="" unicode="ò" d="M238 722 l105 -146 l-44 0 l-132 146 l71 0 ZM289 531 q115 0 183 -83 q63 -75 63 -190 q0 -112 -63 -189 q-69 -83 -183 -83 q-115 0 -183 83 q-63 77 -63 189 q0 115 63 190 q68 83 183 83 ZM289 479 q-86 0 -137 -64 q-47 -60 -47 -157 q0 -96 47 -155 q51 -65 137 -65 q86 0 137 65 q48 60 48 155 q0 96 -48 157 q-51 64 -137 64 Z" /><glyph glyph-name="" unicode="ó" d="M412 722 l-133 -146 l-44 0 l105 146 l72 0 ZM289 531 q115 0 183 -83 q63 -75 63 -190 q0 -112 -63 -189 q-69 -83 -183 -83 q-115 0 -183 83 q-63 77 -63 189 q0 115 63 190 q68 83 183 83 ZM289 479 q-86 0 -137 -64 q-47 -60 -47 -157 q0 -96 47 -155 q51 -65 137 -65 q86 0 137 65 q48 60 48 155 q0 96 -48 157 q-51 64 -137 64 Z" /><glyph glyph-name="" unicode="÷" d="M303 486 q22 0 36 -14 q15 -13 15 -36 q0 -21 -15 -36 q-16 -14 -36 -14 q-22 0 -36 14 q-15 15 -15 36 q0 23 15 36 q13 14 36 14 ZM50 285 l505 0 l0 -52 l-505 0 l0 52 ZM303 131 q22 0 36 -14 q15 -15 15 -36 q0 -22 -15 -37 q-16 -13 -36 -13 q-22 0 -36 14 q-15 15 -15 36 q0 21 15 36 q13 14 36 14 Z" /><glyph glyph-name="" unicode="ù" d="M242 722 l105 -146 l-44 0 l-133 146 l72 0 ZM63 517 l60 0 l0 -316 q0 -81 34 -121 q36 -42 111 -42 q59 0 105 46 q45 45 51 119 l0 314 l60 0 l0 -517 l-60 0 l0 87 q-60 -101 -172 -101 q-189 0 -189 212 l0 319 Z" /><glyph glyph-name="" unicode="ú" d="M381 722 l-133 -146 l-44 0 l105 146 l72 0 ZM63 517 l60 0 l0 -316 q0 -81 34 -121 q36 -42 111 -42 q59 0 105 46 q45 45 51 119 l0 314 l60 0 l0 -517 l-60 0 l0 87 q-60 -101 -172 -101 q-189 0 -189 212 l0 319 Z" /><glyph glyph-name="" unicode="ü" d="M358 690 q18 0 29 -10 q10 -12 10 -29 q0 -16 -10 -28 q-13 -11 -29 -11 q-19 0 -28 11 q-11 10 -11 28 q0 19 11 29 q9 10 28 10 ZM189 690 q18 0 29 -10 q10 -12 10 -29 q0 -16 -10 -28 q-13 -11 -29 -11 q-19 0 -28 11 q-11 10 -11 28 q0 19 11 29 q9 10 28 10 ZM63 517 l60 0 l0 -316 q0 -81 34 -121 q36 -42 111 -42 q59 0 105 46 q45 45 51 119 l0 314 l60 0 l0 -517 l-60 0 l0 87 q-60 -101 -172 -101 q-189 0 -189 212 l0 319 Z" /><glyph glyph-name="" unicode="&#x101;" d="M131 668 l290 0 l0 -39 l-290 0 l0 39 ZM282 531 q109 0 161 -59 q46 -51 46 -139 l0 -333 l-57 0 l0 99 q-32 -46 -84 -77 q-61 -36 -135 -36 q-75 0 -121 38 q-49 39 -49 103 q0 90 73 132 q64 41 181 41 l132 2 l0 31 q0 147 -150 147 q-64 0 -103 -26 q-45 -29 -57 -82 l-59 4 q15 79 78 118 q55 37 144 37 ZM429 255 l-129 -2 q-196 -1 -196 -125 q0 -41 33 -67 q34 -26 88 -26 q79 0 142 54 q62 51 62 112 l0 54 Z" /><glyph glyph-name="" unicode="&#x113;" d="M129 668 l291 0 l0 -39 l-291 0 l0 39 ZM272 531 q123 0 184 -83 q55 -74 59 -207 l-420 0 q5 -95 51 -149 q48 -54 128 -54 q69 0 114 37 q36 31 55 91 l61 0 q-18 -75 -69 -123 q-63 -57 -161 -57 q-109 0 -174 74 q-67 74 -67 199 q0 114 64 191 q66 81 175 81 ZM273 479 q-77 0 -123 -53 q-47 -53 -54 -136 l356 0 q-15 189 -179 189 Z" /><glyph glyph-name="" unicode="&#x11b;" d="M183 716 l91 -95 l91 95 l45 0 l-111 -127 l-49 0 l-111 127 l44 0 ZM272 531 q123 0 184 -83 q55 -74 59 -207 l-420 0 q5 -95 51 -149 q48 -54 128 -54 q69 0 114 37 q36 31 55 91 l61 0 q-18 -75 -69 -123 q-63 -57 -161 -57 q-109 0 -174 74 q-67 74 -67 199 q0 114 64 191 q66 81 175 81 ZM273 479 q-77 0 -123 -53 q-47 -53 -54 -136 l356 0 q-15 189 -179 189 Z" /><glyph glyph-name="" unicode="&#x12b;" d="M-22 668 l290 0 l0 -39 l-290 0 l0 39 ZM93 517 l60 0 l0 -517 l-60 0 l0 517 Z" /><glyph glyph-name="" unicode="&#x16b;" d="M128 668 l291 0 l0 -39 l-291 0 l0 39 ZM63 517 l60 0 l0 -316 q0 -81 34 -121 q36 -42 111 -42 q59 0 105 46 q45 45 51 119 l0 314 l60 0 l0 -517 l-60 0 l0 87 q-60 -101 -172 -101 q-189 0 -189 212 l0 319 Z" /><glyph glyph-name="" unicode="&#x2c7;" d="M159 893 l91 -96 l91 96 l45 0 l-111 -127 l-49 0 l-111 127 l44 0 Z" /><glyph glyph-name="" unicode="&#x2c9;" d="M105 846 l290 0 l0 -40 l-290 0 l0 40 Z" /><glyph glyph-name="" unicode="&#x2d9;" d="M250 864 q16 0 29 -11 q10 -10 10 -28 q0 -16 -10 -29 q-13 -10 -29 -10 q-18 0 -28 10 q-11 11 -11 29 q0 20 11 28 q9 11 28 11 Z" /><glyph glyph-name="" unicode="&#x3a9;" d="M363 728 q141 0 231 -100 q90 -97 90 -244 q0 -223 -177 -330 l173 0 l0 -54 l-248 0 l0 62 q90 48 137 118 q53 83 53 205 q0 125 -74 207 q-74 80 -185 80 q-110 0 -184 -80 q-75 -81 -75 -207 q0 -122 54 -205 q46 -70 137 -118 l0 -62 l-248 0 l0 54 l172 0 q-176 106 -176 330 q0 148 89 244 q90 100 231 100 Z" /><glyph glyph-name="" unicode="&#x3bc;" d="M63 517 l60 0 l0 -317 q0 -162 145 -162 q63 0 106 45 q44 44 50 120 l0 314 l60 0 l0 -517 l-60 0 l0 87 q-34 -53 -72 -76 q-42 -25 -93 -25 q-94 0 -136 69 l0 -253 l-60 0 l0 715 Z" /><glyph glyph-name="" unicode="&#x3c0;" d="M23 517 l574 0 l0 -52 l-116 0 l0 -348 q0 -77 57 -77 q32 0 66 12 l10 -52 q-50 -14 -90 -14 q-103 0 -103 128 l0 351 l-242 0 l0 -465 l-60 0 l0 465 l-96 0 l0 52 Z" /><glyph glyph-name="" unicode="&#x2014;" d="M0 386 l1000 0 l0 -52 l-1000 0 l0 52 Z" /><glyph glyph-name="" unicode="&#x2018;" d="M242 802 q-73 -47 -77 -123 q4 2 15 2 q23 0 37 -13 q14 -14 14 -36 q0 -22 -13 -38 q-16 -13 -37 -13 q-61 0 -61 82 q0 120 100 174 l22 -35 Z" /><glyph glyph-name="" unicode="&#x2019;" d="M141 837 q61 0 61 -82 q0 -119 -100 -174 l-22 35 q71 48 76 123 q-8 -2 -14 -2 q-23 0 -37 14 q-15 14 -15 35 q0 26 14 37 q13 14 37 14 Z" /><glyph glyph-name="" unicode="&#x201c;" d="M413 802 q-73 -47 -77 -123 q4 2 15 2 q23 0 37 -13 q14 -14 14 -36 q0 -22 -13 -38 q-16 -13 -37 -13 q-61 0 -61 82 q0 120 100 174 l22 -35 ZM242 802 q-73 -47 -77 -123 q4 2 15 2 q23 0 37 -13 q14 -14 14 -36 q0 -22 -13 -38 q-16 -13 -37 -13 q-61 0 -61 82 q0 120 100 174 l22 -35 Z" /><glyph glyph-name="" unicode="&#x201d;" d="M312 837 q61 0 61 -82 q0 -119 -100 -174 l-22 35 q71 47 77 123 q-8 -2 -15 -2 q-23 0 -37 14 q-14 13 -14 35 q0 25 13 37 q13 14 37 14 ZM141 837 q61 0 61 -82 q0 -119 -100 -174 l-22 35 q71 48 76 123 q-8 -2 -14 -2 q-23 0 -37 14 q-15 14 -15 35 q0 26 14 37 q13 14 37 14 Z" /><glyph glyph-name="" unicode="&#x2026;" d="M167 100 q22 0 36 -14 q15 -13 15 -36 q0 -21 -15 -36 q-16 -14 -36 -14 q-22 0 -36 15 q-15 15 -15 35 q0 23 15 36 q13 14 36 14 ZM500 100 q23 0 37 -14 q14 -14 14 -36 q0 -20 -14 -36 q-16 -14 -37 -14 q-21 0 -36 15 q-15 15 -15 35 q0 23 15 36 q14 14 36 14 ZM833 100 q22 0 36 -14 q15 -13 15 -36 q0 -21 -15 -36 q-16 -14 -36 -14 q-21 0 -36 15 q-15 15 -15 35 q0 23 15 36 q14 14 36 14 Z" /><glyph glyph-name="" unicode="&#x2030;" d="M599 728 l-399 -742 l-51 0 l400 742 l50 0 ZM165 714 q77 0 119 -58 q37 -52 37 -137 q0 -83 -37 -137 q-42 -59 -119 -59 q-77 0 -118 59 q-37 50 -37 137 q0 87 37 137 q40 58 118 58 ZM165 670 q-51 0 -75 -43 q-23 -37 -23 -108 q0 -71 23 -108 q24 -44 75 -44 q51 0 76 45 q23 40 23 107 q0 69 -24 108 q-24 43 -75 43 ZM584 391 q77 0 119 -58 q37 -52 37 -137 q0 -83 -37 -137 q-42 -59 -119 -59 q-78 0 -119 59 q-37 50 -37 137 q0 87 37 137 q40 58 119 58 ZM584 347 q-52 0 -76 -43 q-23 -37 -23 -108 q0 -71 23 -108 q24 -44 76 -44 q49 0 76 45 q23 40 23 107 q0 69 -24 108 q-25 43 -75 43 ZM953 391 q77 0 119 -58 q37 -52 37 -137 q0 -83 -37 -137 q-42 -59 -119 -59 q-78 0 -119 59 q-37 50 -37 137 q0 87 37 137 q40 58 119 58 ZM953 347 q-51 0 -75 -43 q-24 -39 -24 -108 q0 -71 23 -108 q24 -44 76 -44 q49 0 76 45 q23 40 23 107 q0 69 -24 108 q-25 43 -75 43 Z" /><glyph glyph-name="" unicode="&#x2116;" d="M758 589 q93 0 145 -69 q48 -64 48 -167 q0 -102 -48 -168 q-53 -70 -145 -70 q-92 0 -144 70 q-48 66 -48 168 q0 103 48 167 q51 69 144 69 ZM580 41 l356 0 l0 -41 l-356 0 l0 41 ZM49 714 l68 0 l318 -600 l3 0 l0 600 l62 0 l0 -714 l-67 0 l-320 601 l-3 0 l0 -601 l-61 0 l0 714 ZM758 538 q-69 0 -102 -57 q-31 -47 -31 -128 q0 -81 31 -130 q33 -57 102 -57 q67 0 103 57 q31 51 31 130 q0 78 -31 128 q-36 57 -103 57 Z" /><glyph glyph-name="" unicode="&#x220f;" d="M73 714 l556 0 l0 -714 l-61 0 l0 660 l-434 0 l0 -660 l-61 0 l0 714 Z" /><glyph glyph-name="" unicode="&#x2211;" d="M36 714 l513 0 l0 -54 l-441 0 l270 -288 l-277 -318 l464 0 l0 -54 l-537 0 l0 61 l270 311 l-262 280 l0 62 Z" /><glyph glyph-name="" unicode="&#x221a;" d="M990 860 l0 -42 l-517 0 l-234 -847 l-132 276 l-76 -57 l-21 33 l135 105 l94 -197 l203 729 l548 0 Z" /><glyph glyph-name="" unicode="&#x221e;" d="M246 547 q54 0 122 -47 q48 -34 122 -107 q66 67 112 100 q75 54 133 54 q87 0 140 -53 q52 -54 52 -137 q0 -82 -52 -137 q-55 -53 -140 -53 q-54 0 -123 48 q-48 32 -122 106 q-77 -75 -123 -106 q-69 -48 -121 -48 q-87 0 -140 53 q-53 53 -53 137 q0 85 53 137 q52 53 140 53 ZM735 495 q-46 0 -102 -43 q-39 -27 -105 -95 q62 -64 106 -95 q58 -43 101 -43 q62 0 102 38 q39 39 39 100 q0 61 -39 100 q-38 38 -102 38 ZM246 495 q-66 0 -104 -38 q-37 -38 -37 -100 q0 -62 37 -100 q40 -38 104 -38 q45 0 111 51 q34 26 94 87 q-71 71 -104 95 q-59 43 -101 43 Z" /><glyph glyph-name="" unicode="&#x222b;" d="M297 819 q102 0 115 -136 l-52 0 q-9 86 -65 86 q-60 0 -60 -109 q0 -91 40 -300 q40 -206 40 -286 q0 -69 -23 -115 q-31 -58 -93 -58 q-104 0 -116 136 l53 0 q8 -86 65 -86 q61 0 61 109 q0 68 -24 212 q-22 125 -30 194 q-9 61 -15 115 q-6 68 1 116 q15 122 103 122 Z" /><glyph glyph-name="" unicode="&#x2248;" d="M247 539 q57 0 147 -51 q89 -51 135 -51 q64 0 130 89 l38 -32 q-43 -55 -73 -78 q-45 -31 -95 -31 q-58 0 -145 51 q-89 52 -136 52 q-66 0 -127 -86 l-38 31 q37 52 71 75 q41 31 93 31 ZM247 331 q58 0 147 -52 q90 -52 135 -52 q64 0 130 90 l38 -32 q-43 -55 -73 -78 q-45 -31 -95 -31 q-56 0 -145 52 q-90 51 -136 51 q-65 0 -127 -87 l-38 32 q37 52 71 75 q41 32 93 32 Z" /><glyph glyph-name="" unicode="&#x2260;" d="M552 680 l-76 -189 l231 0 l0 -52 l-252 0 l-64 -162 l316 0 l0 -52 l-337 0 l-76 -189 l-56 0 l76 189 l-231 0 l0 52 l252 0 l64 162 l-316 0 l0 52 l337 0 l76 189 l56 0 Z" /><glyph glyph-name="" unicode="&#x2264;" d="M707 595 l-545 -176 l545 -178 l0 -56 l-624 203 l0 60 l624 203 l0 -56 ZM83 302 l624 -203 l0 -52 l-624 203 l0 52 Z" /><glyph glyph-name="" unicode="&#x2265;" d="M83 651 l624 -203 l0 -60 l-624 -203 l0 56 l545 178 l-545 176 l0 56 ZM707 250 l-624 -203 l0 52 l624 203 l0 -52 Z" /><glyph glyph-name="" unicode="&#xfe31;" d="M474 860 l52 0 l0 -1000 l-52 0 l0 1000 Z" /><glyph glyph-name="" unicode="&#xfe33;" d="M224 860 l52 0 l0 -1000 l-52 0 l0 1000 Z" /><glyph glyph-name="" unicode="&#xfe34;" d="M294 860 q12 0 12 -11 q0 -6 -10 -14 q-78 -55 -78 -83 q0 -4 44 -55 q44 -52 44 -79 q0 -17 -44 -66 q-44 -47 -44 -55 q14 -19 44 -57 q44 -55 44 -82 q0 -23 -44 -70 q-44 -45 -44 -60 q0 -9 44 -60 q44 -53 44 -74 q0 -17 -44 -66 q-44 -45 -44 -56 q0 -20 72 -82 q16 -14 16 -18 q0 -12 -12 -12 q-3 0 -19 13 q-80 64 -80 98 q0 24 45 70 q44 49 44 53 q0 8 -44 58 q-45 51 -45 72 q0 29 45 80 q44 52 44 54 q0 12 -44 67 q-45 56 -45 70 q0 25 45 71 q44 47 44 52 q0 8 -44 60 q-45 53 -45 71 q0 54 85 105 q9 6 14 6 Z" /><glyph glyph-name="" unicode="&#xfe35;" d="M500 138 q130 0 260 -43 q111 -36 207 -99 l0 -55 q-101 61 -208 95 q-130 43 -259 43 q-129 0 -259 -43 q-108 -34 -208 -95 l0 55 q97 64 206 99 q129 43 261 43 Z" /><glyph glyph-name="" unicode="&#xfe36;" d="M33 781 q95 -58 208 -95 q135 -43 259 -43 q124 0 259 43 q112 37 208 95 l0 -55 q-96 -61 -207 -99 q-135 -43 -260 -43 q-127 0 -261 43 q-109 37 -206 99 l0 55 Z" /><glyph glyph-name="" unicode="&#x14d;" d="M144 668 l290 0 l0 -39 l-290 0 l0 39 ZM289 531 q115 0 183 -83 q63 -75 63 -190 q0 -112 -63 -189 q-69 -83 -183 -83 q-115 0 -183 83 q-63 77 -63 189 q0 115 63 190 q68 83 183 83 ZM289 479 q-86 0 -137 -64 q-47 -60 -47 -157 q0 -96 47 -155 q51 -65 137 -65 q86 0 137 65 q48 60 48 155 q0 96 -48 157 q-51 64 -137 64 Z" /><glyph glyph-name="" unicode="&#x1ce;" d="M186 716 l91 -95 l91 95 l45 0 l-111 -127 l-49 0 l-114 127 l47 0 ZM282 531 q109 0 161 -59 q46 -51 46 -139 l0 -333 l-57 0 l0 99 q-32 -46 -84 -77 q-61 -36 -135 -36 q-75 0 -121 38 q-49 39 -49 103 q0 90 73 132 q64 41 181 41 l132 2 l0 31 q0 147 -150 147 q-64 0 -103 -26 q-45 -29 -57 -82 l-59 4 q15 79 78 118 q55 37 144 37 ZM429 255 l-129 -2 q-196 -1 -196 -125 q0 -41 33 -67 q34 -26 88 -26 q79 0 142 54 q62 51 62 112 l0 54 Z" /><glyph glyph-name="" unicode="&#x1d0;" d="M32 716 l91 -95 l91 95 l44 0 l-111 -127 l-49 0 l-111 127 l45 0 ZM93 517 l60 0 l0 -517 l-60 0 l0 517 Z" /><glyph glyph-name="" unicode="&#x1d2;" d="M199 716 l90 -95 l91 95 l45 0 l-111 -127 l-49 0 l-111 127 l45 0 ZM289 531 q115 0 183 -83 q63 -75 63 -190 q0 -112 -63 -189 q-69 -83 -183 -83 q-115 0 -183 83 q-63 77 -63 189 q0 115 63 190 q68 83 183 83 ZM289 479 q-86 0 -137 -64 q-47 -60 -47 -157 q0 -96 47 -155 q51 -65 137 -65 q86 0 137 65 q48 60 48 155 q0 96 -48 157 q-51 64 -137 64 Z" /><glyph glyph-name="" unicode="&#x1d4;" d="M182 716 l91 -95 l91 95 l45 0 l-111 -127 l-49 0 l-111 127 l44 0 ZM63 517 l60 0 l0 -316 q0 -81 34 -121 q36 -42 111 -42 q59 0 105 46 q45 45 51 119 l0 314 l60 0 l0 -517 l-60 0 l0 87 q-60 -101 -172 -101 q-189 0 -189 212 l0 319 Z" /><glyph glyph-name="" unicode="&#x1d6;" d="M128 809 l291 0 l0 -40 l-291 0 l0 40 ZM189 675 q18 0 29 -11 q11 -11 11 -28 q0 -16 -11 -29 q-13 -10 -29 -10 q-16 0 -28 10 q-11 11 -11 29 q0 20 11 28 q10 11 28 11 ZM358 675 q18 0 29 -11 q10 -12 10 -28 q0 -16 -10 -29 q-13 -10 -29 -10 q-18 0 -28 10 q-11 11 -11 29 q0 20 11 28 q8 11 28 11 ZM63 517 l60 0 l0 -316 q0 -81 34 -121 q36 -42 111 -42 q59 0 105 46 q45 45 51 119 l0 314 l60 0 l0 -517 l-60 0 l0 87 q-60 -101 -172 -101 q-189 0 -189 212 l0 319 Z" /><glyph glyph-name="" unicode="&#x1d8;" d="M417 868 l-132 -146 l-44 0 l105 146 l71 0 ZM189 675 q18 0 29 -11 q11 -11 11 -28 q0 -16 -11 -29 q-13 -10 -29 -10 q-16 0 -28 10 q-11 11 -11 29 q0 20 11 28 q10 11 28 11 ZM358 675 q18 0 29 -11 q10 -12 10 -28 q0 -16 -10 -29 q-13 -10 -29 -10 q-18 0 -28 10 q-11 11 -11 29 q0 20 11 28 q8 11 28 11 ZM63 517 l60 0 l0 -316 q0 -81 34 -121 q36 -42 111 -42 q59 0 105 46 q45 45 51 119 l0 314 l60 0 l0 -517 l-60 0 l0 87 q-60 -101 -172 -101 q-189 0 -189 212 l0 319 Z" /><glyph glyph-name="" unicode="&#x1da;" d="M183 861 l91 -95 l90 95 l45 0 l-111 -127 l-49 0 l-111 127 l45 0 ZM189 675 q18 0 29 -11 q11 -11 11 -28 q0 -16 -11 -29 q-13 -10 -29 -10 q-16 0 -28 10 q-11 11 -11 29 q0 20 11 28 q10 11 28 11 ZM358 675 q18 0 29 -11 q10 -12 10 -28 q0 -16 -10 -29 q-13 -10 -29 -10 q-18 0 -28 10 q-11 11 -11 29 q0 20 11 28 q8 11 28 11 ZM63 517 l60 0 l0 -316 q0 -81 34 -121 q36 -42 111 -42 q59 0 105 46 q45 45 51 119 l0 314 l60 0 l0 -517 l-60 0 l0 87 q-60 -101 -172 -101 q-189 0 -189 212 l0 319 Z" /><glyph glyph-name="" unicode="&#x1dc;" d="M201 868 l105 -146 l-44 0 l-132 146 l71 0 ZM189 675 q18 0 29 -11 q11 -11 11 -28 q0 -16 -11 -29 q-13 -10 -29 -10 q-16 0 -28 10 q-11 11 -11 29 q0 20 11 28 q10 11 28 11 ZM358 675 q18 0 29 -11 q10 -12 10 -28 q0 -16 -10 -29 q-13 -10 -29 -10 q-18 0 -28 10 q-11 11 -11 29 q0 20 11 28 q8 11 28 11 ZM63 517 l60 0 l0 -316 q0 -81 34 -121 q36 -42 111 -42 q59 0 105 46 q45 45 51 119 l0 314 l60 0 l0 -517 l-60 0 l0 87 q-60 -101 -172 -101 q-189 0 -189 212 l0 319 Z" /><glyph glyph-name="" unicode="&#x2ca;" d="M339 901 l-133 -146 l-44 0 l105 146 l72 0 Z" /><glyph glyph-name="" unicode="&#x2cb;" d="M234 901 l105 -146 l-44 0 l-133 146 l72 0 Z" /><glyph glyph-name="" unicode="&#x391;" d="M358 714 l286 -714 l-67 0 l-83 213 l-344 0 l-83 -213 l-67 0 l286 714 l72 0 ZM474 265 l-150 383 l-3 0 l-151 -383 l304 0 Z" /><glyph glyph-name="" unicode="&#x392;" d="M73 714 l314 0 q98 0 154 -47 q57 -48 57 -132 q0 -61 -35 -105 q-34 -41 -89 -58 q70 -12 112 -57 q41 -47 41 -118 q0 -101 -73 -153 q-64 -44 -170 -44 l-311 0 l0 714 ZM134 661 l0 -266 l240 0 q76 0 119 34 q44 35 44 100 q0 66 -43 100 q-42 32 -119 32 l-241 0 ZM134 343 l0 -290 l248 0 q79 0 128 32 q56 39 56 113 q0 73 -52 110 q-48 35 -133 35 l-247 0 Z" /><glyph glyph-name="" unicode="&#x393;" d="M73 714 l490 0 l0 -54 l-429 0 l0 -660 l-61 0 l0 714 Z" /><glyph glyph-name="" unicode="&#x394;" d="M359 714 l277 -714 l-623 0 l277 714 l69 0 ZM100 56 l449 0 l-224 582 l-225 -582 Z" /><glyph glyph-name="" unicode="&#x395;" d="M73 714 l501 0 l0 -54 l-440 0 l0 -263 l416 0 l0 -55 l-416 0 l0 -288 l457 0 l0 -54 l-518 0 l0 714 Z" /><glyph glyph-name="" unicode="&#x396;" d="M55 714 l511 0 l0 -53 l-462 -607 l486 0 l0 -54 l-565 0 l0 53 l463 607 l-433 0 l0 54 Z" /><glyph glyph-name="" unicode="&#x397;" d="M73 714 l61 0 l0 -317 l443 0 l0 317 l61 0 l0 -714 l-61 0 l0 342 l-443 0 l0 -342 l-61 0 l0 714 Z" /><glyph glyph-name="" unicode="&#x398;" d="M382 728 q157 0 250 -108 q87 -102 87 -263 q0 -162 -87 -264 q-93 -107 -251 -107 q-159 0 -251 108 q-87 102 -87 263 q0 161 87 263 q93 108 252 108 ZM382 672 q-131 0 -206 -90 q-72 -87 -72 -225 q0 -141 71 -225 q75 -90 206 -90 q130 0 205 89 q72 86 72 226 q0 142 -72 226 q-74 89 -204 89 ZM220 389 l323 0 l0 -56 l-323 0 l0 56 Z" /><glyph glyph-name="" unicode="&#x399;" d="M82 714 l61 0 l0 -714 l-61 0 l0 714 Z" /><glyph glyph-name="" unicode="&#x39a;" d="M73 714 l61 0 l0 -392 l416 392 l82 0 l-328 -305 l373 -409 l-84 0 l-331 370 l-128 -119 l0 -251 l-61 0 l0 714 Z" /><glyph glyph-name="" unicode="&#x39c;" d="M73 714 l81 0 l280 -637 l3 0 l278 637 l81 0 l0 -714 l-61 0 l0 613 l-3 0 l-268 -613 l-59 0 l-267 613 l-4 0 l0 -613 l-61 0 l0 714 Z" /><glyph glyph-name="" unicode="&#x39d;" d="M73 714 l69 0 l432 -619 l3 0 l0 619 l62 0 l0 -714 l-68 0 l-434 624 l-3 0 l0 -624 l-61 0 l0 714 Z" /><glyph glyph-name="" unicode="&#x39e;" d="M62 714 l503 0 l0 -54 l-503 0 l0 54 ZM111 387 l405 0 l0 -54 l-405 0 l0 54 ZM53 54 l521 0 l0 -54 l-521 0 l0 54 Z" /><glyph glyph-name="" unicode="&#x39f;" d="M382 728 q157 0 250 -108 q87 -102 87 -263 q0 -162 -87 -264 q-93 -107 -251 -107 q-159 0 -251 108 q-87 102 -87 263 q0 161 87 263 q93 108 252 108 ZM382 672 q-131 0 -206 -90 q-72 -87 -72 -225 q0 -141 71 -225 q75 -90 206 -90 q130 0 205 89 q72 86 72 226 q0 142 -72 226 q-74 89 -204 89 Z" /><glyph glyph-name="" unicode="&#x3a1;" d="M73 714 l290 0 q238 0 238 -205 q0 -206 -239 -206 l-228 0 l0 -303 l-61 0 l0 714 ZM134 660 l0 -303 l225 0 q91 0 137 38 q43 38 43 114 q0 75 -43 112 q-45 39 -137 39 l-225 0 Z" /><glyph glyph-name="" unicode="&#x3a3;" d="M36 714 l513 0 l0 -54 l-441 0 l270 -288 l-277 -318 l464 0 l0 -54 l-537 0 l0 61 l270 311 l-262 280 l0 62 Z" /><glyph glyph-name="" unicode="&#x3a4;" d="M18 714 l585 0 l0 -54 l-262 0 l0 -660 l-61 0 l0 660 l-262 0 l0 54 Z" /><glyph glyph-name="" unicode="&#x3a5;" d="M80 714 l243 -363 l242 363 l75 0 l-287 -420 l0 -294 l-61 0 l0 294 l-287 420 l75 0 Z" /><glyph glyph-name="" unicode="&#x3a6;" d="M357 714 l61 0 l0 -80 q127 -3 203 -51 q111 -66 111 -214 q0 -146 -111 -214 q-79 -46 -203 -50 l0 -105 l-61 0 l0 105 q-126 4 -203 50 q-111 68 -111 214 q0 148 111 214 q76 46 203 51 l0 80 ZM357 578 q-104 -3 -166 -42 q-87 -51 -87 -167 q0 -113 87 -166 q61 -37 166 -43 l0 418 ZM418 160 q103 4 166 42 q86 54 86 167 q0 116 -86 167 q-63 39 -166 42 l0 -418 Z" /><glyph glyph-name="" unicode="&#x3a7;" d="M102 714 l208 -293 l209 293 l76 0 l-248 -343 l269 -371 l-77 0 l-229 323 l-229 -323 l-76 0 l268 371 l-247 343 l76 0 Z" /><glyph glyph-name="" unicode="&#x3a8;" d="M53 714 l61 0 l0 -217 q0 -123 71 -178 q56 -45 168 -51 l0 446 l61 0 l0 -446 q112 6 170 51 q69 56 69 178 l0 217 l61 0 l0 -218 q0 -270 -300 -282 l0 -214 l-61 0 l0 214 q-300 14 -300 282 l0 218 Z" /><glyph glyph-name="" unicode="&#x3b1;" d="M275 531 q124 0 182 -119 l2 0 l9 105 l47 0 l0 -417 q0 -64 38 -64 q10 0 34 6 l5 -46 q-33 -10 -59 -10 q-37 0 -55 29 q-19 25 -20 65 l0 27 l-1 0 q-54 -121 -182 -121 q-114 0 -176 83 q-56 74 -56 188 q0 118 59 192 q63 82 173 82 ZM282 480 q-88 0 -134 -67 q-43 -59 -43 -156 q0 -98 43 -156 q46 -64 135 -64 q86 0 132 66 q40 62 40 155 q0 94 -43 155 q-45 67 -130 67 Z" /><glyph glyph-name="" unicode="&#x3b2;" d="M282 728 q89 0 144 -49 q52 -49 52 -120 q0 -112 -101 -150 l0 -2 q72 -18 111 -70 q40 -52 40 -123 q0 -102 -60 -165 q-60 -63 -159 -63 q-57 0 -104 27 q-50 30 -80 83 l-2 0 l0 -294 l-60 0 l0 668 q0 126 59 192 q57 66 160 66 ZM278 676 q-72 0 -111 -49 q-44 -50 -44 -156 l0 -234 q0 -87 51 -146 q48 -54 119 -54 q83 0 129 48 q45 48 45 127 q0 75 -45 117 q-46 46 -136 46 l-43 0 l0 46 l41 0 q62 0 99 35 q34 37 34 91 q0 57 -35 92 q-37 37 -104 37 Z" /><glyph glyph-name="" unicode="&#x3b3;" d="M13 517 l30 0 q50 0 79 -25 q25 -22 43 -74 l124 -339 l169 438 l65 0 l-204 -513 l0 -202 l-60 0 l0 200 l-151 401 q-13 35 -29 49 q-14 13 -50 13 l-16 0 l0 52 Z" /><glyph glyph-name="" unicode="&#x3b4;" d="M121 714 l353 0 l0 -52 l-267 0 l188 -149 q73 -57 104 -108 q36 -60 36 -152 q0 -107 -59 -183 q-67 -84 -186 -84 q-116 0 -185 83 q-62 74 -62 185 q0 110 69 185 q67 74 163 74 q25 0 40 -5 l-194 154 l0 52 ZM292 466 q-84 0 -136 -61 q-52 -59 -52 -152 q0 -91 47 -150 q51 -65 139 -65 q89 0 140 65 q44 61 44 150 q0 93 -44 151 q-49 62 -138 62 Z" /><glyph glyph-name="" unicode="&#x3b5;" d="M260 531 q93 0 150 -51 q48 -44 57 -106 l-61 0 q-9 41 -38 70 q-41 38 -108 38 q-67 0 -102 -25 q-36 -25 -36 -72 q0 -43 38 -68 q33 -22 83 -22 l47 0 l0 -47 l-42 0 q-66 0 -104 -24 q-40 -24 -40 -74 q0 -50 38 -82 q39 -33 112 -33 q65 0 104 28 q40 32 52 96 l61 0 q-10 -84 -68 -129 q-58 -44 -149 -44 q-98 0 -156 47 q-55 46 -55 115 q0 98 107 126 q-90 36 -90 116 q0 64 53 102 q54 39 147 39 Z" /><glyph glyph-name="" unicode="&#x3b6;" d="M83 714 l370 0 l0 -56 q-142 -54 -242 -183 q-107 -132 -107 -274 q0 -84 46 -120 q32 -24 112 -39 q96 -16 129 -39 q52 -34 52 -112 q0 -39 -18 -89 l-61 0 q19 48 19 83 q0 50 -29 70 q-30 21 -119 33 q-100 15 -144 59 q-48 50 -48 150 q0 142 99 274 q88 122 223 191 l-282 0 l0 52 Z" /><glyph glyph-name="" unicode="&#x3b7;" d="M291 531 q192 0 192 -213 l0 -516 l-60 0 l0 512 q0 165 -147 165 q-62 0 -104 -45 q-44 -44 -49 -122 l0 -312 l-60 0 l0 517 l60 0 l0 -85 q27 46 70 73 q42 26 98 26 Z" /><glyph glyph-name="" unicode="&#x3b8;" d="M265 728 q121 0 178 -122 q44 -96 44 -248 q0 -151 -44 -250 q-57 -122 -178 -122 q-118 0 -175 120 q-47 95 -47 252 q0 157 47 251 q57 119 175 119 ZM265 676 q-87 0 -128 -105 q-29 -69 -32 -181 l320 0 q-3 107 -32 180 q-42 106 -128 106 ZM104 337 q3 -116 33 -193 q41 -106 128 -106 q86 0 128 106 q30 77 33 193 l-322 0 Z" /><glyph glyph-name="" unicode="&#x3b9;" d="M63 517 l60 0 l0 -396 q0 -83 58 -83 q33 0 69 12 l8 -48 q-50 -16 -88 -16 q-107 0 -107 135 l0 396 Z" /><glyph glyph-name="" unicode="&#x3ba;" d="M63 517 l60 0 l0 -269 l289 269 l81 0 l-221 -205 l245 -312 l-79 0 l-209 271 l-106 -97 l0 -174 l-60 0 l0 517 Z" /><glyph glyph-name="" unicode="&#x3bb;" d="M145 728 q59 0 91 -38 q28 -29 53 -107 l154 -464 q27 -81 65 -81 q9 0 37 7 l9 -50 q-33 -9 -59 -9 q-44 0 -70 31 q-21 23 -40 80 l-109 333 l-197 -430 l-66 0 l238 508 l-16 50 q-21 67 -41 91 q-22 27 -57 27 q-22 0 -51 -6 l-10 50 q32 8 69 8 Z" /><glyph glyph-name="" unicode="&#x3bd;" d="M78 517 l152 -455 q64 64 113 184 q52 135 61 271 l61 0 q-9 -149 -71 -301 q-61 -144 -141 -216 l-61 0 l-179 517 l65 0 Z" /><glyph glyph-name="" unicode="&#x3be;" d="M58 714 l365 0 l0 -49 l-27 0 q-87 0 -162 -44 q-86 -49 -86 -121 q0 -43 43 -70 q50 -33 146 -33 l73 0 l0 -51 l-85 0 q-89 0 -154 -53 q-66 -54 -66 -124 q0 -61 48 -93 q29 -20 109 -37 q98 -19 131 -38 q61 -34 61 -107 q0 -38 -19 -92 l-60 0 q20 55 20 86 q0 48 -49 69 q-23 11 -112 28 q-92 18 -134 52 q-57 45 -57 131 q0 63 47 119 q47 57 116 83 q-57 17 -89 52 q-30 33 -30 74 q0 57 47 101 q39 41 107 65 l-183 0 l0 52 Z" /><glyph glyph-name="" unicode="&#x3bf;" d="M289 531 q114 0 183 -82 q63 -76 63 -191 q0 -113 -63 -190 q-70 -82 -183 -82 q-113 0 -183 82 q-63 77 -63 190 q0 115 64 191 q67 82 182 82 ZM289 479 q-89 0 -139 -68 q-46 -59 -46 -153 q0 -93 46 -152 q51 -68 139 -68 q89 0 140 68 q46 63 46 152 q0 92 -46 153 q-50 68 -140 68 Z" /><glyph glyph-name="" unicode="&#x3c1;" d="M305 531 q117 0 185 -83 q63 -75 63 -190 q0 -112 -63 -190 q-70 -82 -181 -82 q-122 0 -187 124 l0 -308 l-59 0 l0 448 q0 126 61 200 q65 81 181 81 ZM306 479 q-90 0 -139 -65 q-46 -59 -46 -156 q0 -88 48 -151 q53 -69 140 -69 q86 0 137 66 q46 64 46 154 q0 93 -46 154 q-51 67 -140 67 Z" /><glyph glyph-name="" unicode="&#x3c3;" d="M577 517 l0 -52 l-159 0 q117 -69 117 -214 q0 -109 -63 -184 q-69 -81 -183 -81 q-115 0 -183 79 q-63 75 -63 186 q0 121 73 194 q71 72 183 72 l278 0 ZM292 465 q-86 0 -136 -59 q-52 -59 -52 -156 q0 -91 45 -148 q49 -64 140 -64 q85 0 137 63 q49 61 49 150 q0 91 -49 152 q-50 62 -134 62 Z" /><glyph glyph-name="" unicode="&#x3c4;" d="M13 517 l464 0 l0 -52 l-218 0 l0 -348 q0 -77 51 -77 q31 0 65 12 l9 -52 q-50 -14 -88 -14 q-97 0 -97 128 l0 351 l-186 0 l0 52 Z" /><glyph glyph-name="" unicode="&#x3c5;" d="M63 517 l60 0 l0 -319 q0 -81 34 -119 q36 -41 117 -41 q79 0 115 41 q35 40 35 119 l0 319 l60 0 l0 -321 q0 -210 -210 -210 q-211 0 -211 210 l0 321 Z" /><glyph glyph-name="" unicode="&#x3c6;" d="M328 714 l60 0 l0 -196 q119 -4 196 -65 q88 -70 88 -194 q0 -123 -88 -194 q-75 -59 -196 -65 l0 -198 l-60 0 l0 198 q-123 6 -198 66 q-87 71 -87 193 q0 125 87 194 q76 61 198 65 l0 196 ZM328 467 q-102 -5 -160 -56 q-64 -54 -64 -152 q0 -95 64 -152 q57 -50 160 -56 l0 416 ZM388 52 q101 5 159 55 q64 58 64 152 q0 97 -64 152 q-60 52 -159 55 l0 -414 Z" /><glyph glyph-name="" unicode="&#x3c7;" d="M94 517 l156 -282 l157 282 l68 0 l-193 -339 l213 -376 l-69 0 l-176 319 l-176 -319 l-69 0 l214 376 l-193 339 l68 0 Z" /><glyph glyph-name="" unicode="&#x3c8;" d="M312 714 l60 0 l0 -662 q90 5 142 52 q61 58 61 164 q0 132 -55 245 l58 18 q58 -125 58 -262 q0 -132 -74 -201 q-70 -64 -190 -68 l0 -198 l-60 0 l0 198 q-249 9 -249 246 l0 271 l60 0 l0 -271 q0 -96 44 -141 q46 -49 145 -53 l0 662 Z" /><glyph glyph-name="" unicode="&#x3c9;" d="M183 511 q-78 -127 -78 -269 q0 -90 33 -146 q35 -58 94 -58 q50 0 79 47 q26 46 26 119 l0 155 l60 0 l0 -155 q0 -75 27 -120 q28 -46 78 -46 q58 0 95 58 q33 56 33 146 q0 142 -78 269 l54 20 q85 -138 85 -289 q0 -109 -48 -181 q-52 -75 -137 -75 q-106 0 -139 114 q-33 -114 -139 -114 q-85 0 -136 75 q-49 71 -49 181 q0 153 85 289 l55 -20 Z" /><glyph glyph-name="" unicode="&#x401;" d="M232 864 q16 0 29 -11 q10 -10 10 -28 q0 -16 -10 -29 q-13 -10 -29 -10 q-18 0 -28 10 q-11 11 -11 29 q0 20 11 28 q9 11 28 11 ZM401 864 q16 0 29 -11 q10 -10 10 -28 q0 -16 -10 -29 q-13 -10 -29 -10 q-18 0 -28 10 q-11 11 -11 29 q0 20 11 28 q9 11 28 11 ZM73 714 l501 0 l0 -54 l-440 0 l0 -263 l416 0 l0 -55 l-416 0 l0 -288 l457 0 l0 -54 l-518 0 l0 714 Z" /><glyph glyph-name="" unicode="&#x410;" d="M358 714 l286 -714 l-67 0 l-83 213 l-344 0 l-83 -213 l-67 0 l286 714 l72 0 ZM474 265 l-150 383 l-3 0 l-151 -383 l304 0 Z" /><glyph glyph-name="" unicode="&#x411;" d="M561 714 l0 -53 l-427 0 l0 -253 l255 0 q115 0 178 -54 q61 -53 61 -145 q0 -209 -242 -209 l-313 0 l0 714 l488 0 ZM134 355 l0 -302 l245 0 q187 0 187 156 q0 71 -49 109 q-49 37 -143 37 l-240 0 Z" /><glyph glyph-name="" unicode="&#x412;" d="M73 714 l314 0 q98 0 154 -47 q57 -48 57 -132 q0 -61 -35 -105 q-34 -41 -89 -58 q70 -12 112 -57 q41 -47 41 -118 q0 -101 -73 -153 q-64 -44 -170 -44 l-311 0 l0 714 ZM134 661 l0 -266 l240 0 q76 0 119 34 q44 35 44 100 q0 66 -43 100 q-42 32 -119 32 l-241 0 ZM134 343 l0 -290 l248 0 q79 0 128 32 q56 39 56 113 q0 73 -52 110 q-48 35 -133 35 l-247 0 Z" /><glyph glyph-name="" unicode="&#x413;" d="M73 714 l487 0 l0 -54 l-426 0 l0 -660 l-61 0 l0 714 Z" /><glyph glyph-name="" unicode="&#x414;" d="M577 714 l0 -658 l89 0 l0 -196 l-61 0 l0 141 l-521 0 l0 -141 l-61 0 l0 196 l75 0 l106 658 l373 0 ZM258 660 l-98 -604 l355 0 l0 604 l-257 0 Z" /><glyph glyph-name="" unicode="&#x415;" d="M73 714 l501 0 l0 -54 l-440 0 l0 -263 l416 0 l0 -55 l-416 0 l0 -288 l457 0 l0 -54 l-518 0 l0 714 Z" /><glyph glyph-name="" unicode="&#x416;" d="M141 714 q22 -161 101 -246 q70 -76 181 -85 l0 331 l60 0 l0 -331 q110 9 181 84 q76 85 100 247 l62 0 q-27 -186 -119 -286 q-25 -25 -58 -48 l234 -380 l-74 0 l-215 351 q-51 -19 -111 -24 l0 -327 l-60 0 l0 327 q-61 4 -112 24 l-214 -351 l-74 0 l234 379 q-27 18 -58 49 q-93 99 -120 286 l62 0 Z" /><glyph glyph-name="" unicode="&#x417;" d="M300 728 q111 0 173 -50 q63 -49 63 -144 q0 -47 -28 -91 q-32 -45 -88 -66 q132 -45 132 -172 q0 -104 -70 -162 q-69 -57 -187 -57 q-113 0 -176 55 q-65 58 -76 180 l63 0 q9 -93 54 -135 q46 -44 136 -44 q89 0 141 41 q53 42 53 123 q0 81 -67 118 q-42 23 -97 23 l-71 0 l0 53 l72 0 q68 0 111 43 q36 38 36 89 q0 140 -174 140 q-82 0 -127 -39 q-45 -36 -60 -113 l-63 0 q36 208 250 208 Z" /><glyph glyph-name="" unicode="&#x418;" d="M73 714 l61 0 l0 -624 l3 0 l434 624 l68 0 l0 -714 l-62 0 l0 619 l-3 0 l-432 -619 l-69 0 l0 714 Z" /><glyph glyph-name="" unicode="&#x419;" d="M251 894 q7 -47 32 -70 q25 -25 73 -25 q45 0 73 25 q24 22 31 70 l48 0 q-9 -62 -42 -95 q-36 -36 -110 -36 q-74 0 -110 36 q-34 33 -43 95 l48 0 ZM73 714 l61 0 l0 -624 l3 0 l434 624 l68 0 l0 -714 l-62 0 l0 619 l-3 0 l-432 -619 l-69 0 l0 714 Z" /><glyph glyph-name="" unicode="&#x41a;" d="M73 714 l61 0 l0 -332 q167 3 258 79 q92 79 122 253 l65 0 q-33 -199 -143 -293 l-17 -12 l-17 -13 l225 -396 l-72 0 l-206 368 q-91 -38 -215 -41 l0 -327 l-61 0 l0 714 Z" /><glyph glyph-name="" unicode="&#x41b;" d="M633 714 l0 -714 l-61 0 l0 660 l-266 0 l-76 -470 q-18 -106 -59 -148 q-42 -42 -124 -42 l-34 0 l0 59 l23 0 q54 0 84 25 q35 31 49 113 l84 517 l380 0 Z" /><glyph glyph-name="" unicode="&#x41c;" d="M73 714 l81 0 l280 -637 l3 0 l278 637 l81 0 l0 -714 l-61 0 l0 613 l-3 0 l-268 -613 l-59 0 l-267 613 l-4 0 l0 -613 l-61 0 l0 714 Z" /><glyph glyph-name="" unicode="&#x41d;" d="M73 714 l61 0 l0 -317 l443 0 l0 317 l61 0 l0 -714 l-61 0 l0 342 l-443 0 l0 -342 l-61 0 l0 714 Z" /><glyph glyph-name="" unicode="&#x41e;" d="M382 728 q157 0 250 -108 q87 -102 87 -263 q0 -162 -87 -264 q-93 -107 -251 -107 q-159 0 -251 108 q-87 102 -87 263 q0 161 87 263 q93 108 252 108 ZM382 672 q-131 0 -206 -90 q-72 -87 -72 -225 q0 -141 71 -225 q75 -90 206 -90 q130 0 205 89 q72 86 72 226 q0 142 -72 226 q-74 89 -204 89 Z" /><glyph glyph-name="" unicode="&#x41f;" d="M73 714 l556 0 l0 -714 l-61 0 l0 660 l-434 0 l0 -660 l-61 0 l0 714 Z" /><glyph glyph-name="" unicode="&#x420;" d="M73 714 l290 0 q238 0 238 -205 q0 -206 -239 -206 l-228 0 l0 -303 l-61 0 l0 714 ZM134 660 l0 -303 l225 0 q91 0 137 38 q43 38 43 114 q0 75 -43 112 q-45 39 -137 39 l-225 0 Z" /><glyph glyph-name="" unicode="&#x421;" d="M381 728 q114 0 194 -62 q83 -63 97 -168 l-59 0 q-13 83 -81 129 q-64 45 -152 45 q-131 0 -206 -93 q-70 -86 -70 -225 q0 -139 69 -223 q72 -89 201 -89 q90 0 157 49 q71 54 92 153 l59 0 q-23 -124 -112 -194 q-84 -64 -195 -64 q-160 0 -250 110 q-82 100 -82 258 q0 158 84 261 q91 113 254 113 Z" /><glyph glyph-name="" unicode="&#x422;" d="M18 714 l585 0 l0 -54 l-262 0 l0 -660 l-61 0 l0 660 l-262 0 l0 54 Z" /><glyph glyph-name="" unicode="&#x423;" d="M78 714 l236 -472 l211 472 l71 0 l-248 -544 q-43 -93 -95 -130 q-55 -40 -137 -40 l-65 0 l0 59 l49 0 q77 0 126 40 q29 26 55 72 l-276 543 l73 0 Z" /><glyph glyph-name="" unicode="&#x424;" d="M357 714 l61 0 l0 -80 q127 -3 203 -51 q111 -66 111 -214 q0 -146 -111 -214 q-79 -46 -203 -50 l0 -105 l-61 0 l0 105 q-126 4 -203 50 q-111 68 -111 214 q0 148 111 214 q76 46 203 51 l0 80 ZM357 578 q-104 -3 -166 -42 q-87 -51 -87 -167 q0 -113 87 -166 q61 -37 166 -43 l0 418 ZM418 160 q103 4 166 42 q86 54 86 167 q0 116 -86 167 q-63 39 -166 42 l0 -418 Z" /><glyph glyph-name="" unicode="&#x425;" d="M102 714 l208 -293 l209 293 l76 0 l-248 -343 l269 -371 l-77 0 l-229 323 l-229 -323 l-76 0 l268 371 l-247 343 l76 0 Z" /><glyph glyph-name="" unicode="&#x426;" d="M73 714 l61 0 l0 -660 l399 0 l0 660 l61 0 l0 -660 l98 0 l0 -194 l-61 0 l0 140 l-558 0 l0 714 Z" /><glyph glyph-name="" unicode="&#x427;" d="M73 714 l61 0 l0 -237 q0 -96 34 -136 q35 -39 115 -39 q120 0 241 138 l0 274 l61 0 l0 -714 l-61 0 l0 375 q-36 -36 -62 -56 q-96 -72 -193 -72 q-99 0 -147 51 q-49 53 -49 172 l0 244 Z" /><glyph glyph-name="" unicode="&#x428;" d="M73 714 l61 0 l0 -660 l287 0 l0 660 l61 0 l0 -660 l286 0 l0 660 l61 0 l0 -714 l-756 0 l0 714 Z" /><glyph glyph-name="" unicode="&#x429;" d="M73 714 l61 0 l0 -660 l287 0 l0 660 l61 0 l0 -660 l286 0 l0 660 l61 0 l0 -660 l95 0 l0 -194 l-60 0 l0 140 l-791 0 l0 714 Z" /><glyph glyph-name="" unicode="&#x42a;" d="M23 714 l249 0 l0 -306 l244 0 q115 0 178 -54 q61 -53 61 -145 q0 -209 -242 -209 l-302 0 l0 659 l-188 0 l0 55 ZM272 355 l0 -302 l234 0 q188 0 188 156 q0 71 -50 109 q-49 37 -143 37 l-229 0 Z" /><glyph glyph-name="" unicode="&#x42b;" d="M748 714 l61 0 l0 -714 l-61 0 l0 714 ZM73 714 l61 0 l0 -306 l210 0 q115 0 178 -54 q61 -53 61 -145 q0 -209 -242 -209 l-268 0 l0 714 ZM134 355 l0 -302 l200 0 q188 0 188 156 q0 71 -50 109 q-49 37 -143 37 l-195 0 Z" /><glyph glyph-name="" unicode="&#x42c;" d="M73 714 l61 0 l0 -306 l255 0 q115 0 178 -54 q61 -53 61 -145 q0 -209 -242 -209 l-313 0 l0 714 ZM134 355 l0 -302 l245 0 q187 0 187 156 q0 71 -49 109 q-49 37 -143 37 l-240 0 Z" /><glyph glyph-name="" unicode="&#x42d;" d="M343 728 q157 0 246 -110 q82 -102 82 -261 q0 -159 -81 -260 q-90 -110 -247 -110 q-114 0 -190 56 q-76 57 -100 158 l61 0 q18 -75 81 -117 q60 -42 148 -42 q128 0 199 88 q61 77 67 206 l-410 0 l0 54 l409 0 q-8 116 -64 190 q-71 92 -201 92 q-87 0 -146 -40 q-63 -42 -81 -115 l-61 0 q19 97 95 153 q77 58 193 58 Z" /><glyph glyph-name="" unicode="&#x42e;" d="M73 714 l61 0 l0 -324 l169 0 q6 142 76 233 q81 105 223 105 q142 0 223 -105 q78 -99 78 -266 q0 -165 -78 -266 q-81 -105 -223 -105 q-142 0 -223 105 q-73 95 -77 245 l-168 0 l0 -336 l-61 0 l0 714 ZM602 672 q-113 0 -176 -85 q-63 -85 -63 -230 q0 -144 63 -228 q63 -87 176 -87 q113 0 177 87 q62 85 62 228 q0 144 -62 230 q-64 85 -177 85 Z" /><glyph glyph-name="" unicode="&#x42f;" d="M575 714 l0 -714 l-61 0 l0 308 l-204 0 l-19 1 l-17 0 l-182 -309 l-69 0 l188 319 q-39 10 -68 28 q-80 52 -80 165 q0 202 266 202 l246 0 ZM331 660 q-103 0 -153 -35 q-54 -36 -54 -113 q0 -150 194 -150 l196 0 l0 298 l-183 0 Z" /><glyph glyph-name="" unicode="&#x430;" d="M282 531 q109 0 161 -59 q46 -51 46 -139 l0 -333 l-57 0 l0 99 q-32 -46 -84 -77 q-61 -36 -135 -36 q-75 0 -121 38 q-49 39 -49 103 q0 90 73 132 q64 41 181 41 l132 2 l0 31 q0 147 -150 147 q-64 0 -103 -26 q-45 -29 -57 -82 l-59 4 q15 79 78 118 q55 37 144 37 ZM429 255 l-129 -2 q-196 -1 -196 -125 q0 -41 33 -67 q34 -26 88 -26 q79 0 142 54 q62 51 62 112 l0 54 Z" /><glyph glyph-name="" unicode="&#x431;" d="M493 694 q-20 -28 -47 -43 q-38 -20 -106 -28 q-198 -19 -231 -231 q28 46 74 72 q47 28 106 28 q104 0 166 -71 q62 -70 62 -180 q0 -109 -65 -182 q-67 -73 -168 -73 q-108 0 -175 76 q-66 75 -66 196 q0 173 60 276 q69 120 211 138 q64 9 91 21 q26 12 44 34 l44 -33 ZM281 440 q-80 0 -129 -59 q-48 -54 -48 -133 q0 -92 46 -150 q48 -60 130 -60 q77 0 127 56 q49 58 49 147 q0 89 -47 144 q-48 55 -128 55 Z" /><glyph glyph-name="" unicode="&#x432;" d="M63 517 l247 0 q72 0 111 -29 q47 -32 47 -98 q0 -86 -95 -118 q114 -33 114 -126 q0 -68 -44 -107 q-45 -39 -136 -39 l-244 0 l0 517 ZM123 467 l0 -175 l162 0 q55 0 90 22 q38 24 38 69 q0 84 -114 84 l-176 0 ZM123 244 l0 -194 l180 0 q72 0 105 31 q24 24 24 67 q0 96 -146 96 l-163 0 Z" /><glyph glyph-name="" unicode="&#x433;" d="M63 517 l353 0 l0 -52 l-293 0 l0 -465 l-60 0 l0 517 Z" /><glyph glyph-name="" unicode="&#x434;" d="M458 517 l0 -465 l69 0 l0 -192 l-60 0 l0 140 l-384 0 l0 -140 l-60 0 l0 192 l59 0 l81 465 l295 0 ZM216 465 l-72 -413 l254 0 l0 413 l-182 0 Z" /><glyph glyph-name="" unicode="&#x435;" d="M272 531 q123 0 184 -83 q55 -74 59 -207 l-420 0 q5 -95 51 -149 q48 -54 128 -54 q69 0 114 37 q36 31 55 91 l61 0 q-18 -75 -69 -123 q-63 -57 -161 -57 q-109 0 -174 74 q-67 74 -67 199 q0 114 64 191 q66 81 175 81 ZM273 479 q-77 0 -123 -53 q-47 -53 -54 -136 l356 0 q-15 189 -179 189 Z" /><glyph glyph-name="" unicode="&#x436;" d="M124 517 q18 -115 75 -172 q50 -53 140 -62 l0 234 l60 0 l0 -234 q89 9 139 61 q54 57 75 173 l63 0 q-24 -134 -91 -206 q-20 -20 -38 -33 l167 -278 l-73 0 l-148 251 q-40 -14 -94 -19 l0 -232 l-60 0 l0 232 q-51 4 -95 20 l-149 -252 l-72 0 l168 279 q-24 18 -39 32 q-69 72 -91 206 l63 0 Z" /><glyph glyph-name="" unicode="&#x437;" d="M255 531 q91 0 146 -39 q53 -39 53 -102 q0 -78 -90 -116 q107 -29 107 -126 q0 -69 -54 -114 q-58 -48 -157 -48 q-92 0 -148 44 q-58 45 -69 129 l61 0 q12 -65 52 -96 q39 -28 105 -28 q72 0 112 33 q38 33 38 82 q0 47 -37 73 q-37 25 -102 25 l-48 0 l0 47 l50 0 q50 0 84 23 q36 24 36 67 q0 46 -37 72 q-35 25 -103 25 q-69 0 -107 -38 q-30 -29 -39 -70 l-61 0 q7 63 58 106 q57 51 150 51 Z" /><glyph glyph-name="" unicode="&#x438;" d="M63 517 l60 0 l0 -431 l305 431 l67 0 l0 -517 l-60 0 l0 431 l-306 -431 l-66 0 l0 517 Z" /><glyph glyph-name="" unicode="&#x439;" d="M175 717 q6 -45 31 -69 q24 -26 73 -26 q46 0 74 25 q24 24 31 70 l48 0 q-9 -62 -42 -95 q-37 -36 -110 -36 q-75 0 -111 36 q-33 33 -42 95 l48 0 ZM63 517 l60 0 l0 -431 l305 431 l67 0 l0 -517 l-60 0 l0 431 l-306 -431 l-66 0 l0 517 Z" /><glyph glyph-name="" unicode="&#x43a;" d="M63 517 l60 0 l0 -234 q117 3 183 55 q69 56 89 179 l63 0 q-24 -148 -109 -218 l-21 -15 l158 -284 l-70 0 l-141 258 q-61 -23 -152 -26 l0 -232 l-60 0 l0 517 Z" /><glyph glyph-name="" unicode="&#x43b;" d="M508 517 l0 -517 l-60 0 l0 465 l-194 0 l-56 -325 q-15 -81 -53 -113 q-31 -27 -89 -27 l-33 0 l0 52 l25 0 q36 0 58 17 q22 22 34 82 l62 366 l306 0 Z" /><glyph glyph-name="" unicode="&#x43c;" d="M63 517 l78 0 l218 -454 l1 0 l218 454 l78 0 l0 -517 l-60 0 l0 423 l-3 0 l-203 -423 l-61 0 l-204 423 l-2 0 l0 -423 l-60 0 l0 517 Z" /><glyph glyph-name="" unicode="&#x43d;" d="M63 517 l60 0 l0 -220 l308 0 l0 220 l60 0 l0 -517 l-60 0 l0 246 l-308 0 l0 -246 l-60 0 l0 517 Z" /><glyph glyph-name="" unicode="&#x43e;" d="M289 531 q114 0 183 -82 q63 -76 63 -191 q0 -113 -63 -190 q-70 -82 -183 -82 q-113 0 -183 82 q-63 77 -63 190 q0 115 64 191 q67 82 182 82 ZM289 479 q-89 0 -139 -68 q-46 -59 -46 -153 q0 -93 46 -152 q51 -68 139 -68 q89 0 140 68 q46 63 46 152 q0 92 -46 153 q-50 68 -140 68 Z" /><glyph glyph-name="" unicode="&#x43f;" d="M63 517 l429 0 l0 -517 l-60 0 l0 465 l-309 0 l0 -465 l-60 0 l0 517 Z" /><glyph glyph-name="" unicode="&#x440;" d="M302 531 q110 0 174 -83 q57 -75 57 -191 q0 -113 -56 -189 q-64 -82 -173 -82 q-124 0 -181 122 l0 -306 l-60 0 l0 715 l57 0 l0 -102 q57 116 182 116 ZM295 480 q-84 0 -131 -66 q-43 -58 -43 -153 l0 -11 q0 -94 46 -153 q47 -60 126 -60 q87 0 136 64 q42 59 42 156 q0 97 -41 156 q-48 67 -135 67 Z" /><glyph glyph-name="" unicode="&#x441;" d="M281 531 q93 0 151 -45 q59 -45 71 -138 l-60 0 q-10 65 -52 98 q-42 33 -110 33 q-82 0 -130 -63 q-47 -59 -47 -161 q0 -99 45 -158 q45 -59 131 -59 q144 0 166 147 l59 0 q-15 -98 -74 -149 q-58 -50 -151 -50 q-115 0 -178 78 q-59 71 -59 191 q0 118 61 194 q64 82 177 82 Z" /><glyph glyph-name="" unicode="&#x442;" d="M23 517 l450 0 l0 -52 l-195 0 l0 -465 l-60 0 l0 465 l-195 0 l0 52 Z" /><glyph glyph-name="" unicode="&#x443;" d="M70 517 l176 -445 l164 445 l65 0 l-204 -537 q-39 -97 -79 -136 q-46 -42 -127 -42 l-29 0 l0 52 l21 0 q65 0 105 43 q27 32 56 100 l-213 520 l65 0 Z" /><glyph glyph-name="" unicode="&#x444;" d="M368 728 l60 0 l0 -264 q46 67 125 67 q94 0 148 -75 q51 -70 51 -197 q0 -126 -51 -198 q-54 -75 -148 -75 q-78 0 -125 67 l0 -251 l-60 0 l0 251 q-49 -67 -125 -67 q-95 0 -149 75 q-51 72 -51 198 q0 127 53 198 q50 74 147 74 q77 0 125 -67 l0 264 ZM254 479 q-71 0 -109 -54 q-40 -56 -40 -166 q0 -110 40 -166 q38 -55 109 -55 q40 0 73 28 q28 26 41 67 l0 251 q-13 41 -41 66 q-30 29 -73 29 ZM542 479 q-44 0 -73 -29 q-29 -23 -41 -66 l0 -251 q12 -42 41 -67 q31 -28 73 -28 q69 0 109 55 q39 57 39 166 q0 111 -39 166 q-39 54 -109 54 Z" /><glyph glyph-name="" unicode="&#x445;" d="M99 517 l148 -199 l148 199 l71 0 l-185 -244 l207 -273 l-72 0 l-169 228 l-170 -228 l-72 0 l208 273 l-186 244 l72 0 Z" /><glyph glyph-name="" unicode="&#x446;" d="M63 517 l60 0 l0 -465 l285 0 l0 465 l60 0 l0 -465 l81 0 l0 -192 l-60 0 l0 140 l-426 0 l0 517 Z" /><glyph glyph-name="" unicode="&#x447;" d="M63 517 l60 0 l0 -152 q0 -75 25 -106 q24 -30 86 -30 q57 0 115 38 q31 22 52 44 l0 206 l60 0 l0 -517 l-60 0 l0 253 q-11 -10 -35 -28 q-69 -48 -143 -48 q-83 0 -122 44 q-38 42 -38 135 l0 161 Z" /><glyph glyph-name="" unicode="&#x448;" d="M63 517 l60 0 l0 -465 l209 0 l0 465 l60 0 l0 -465 l209 0 l0 465 l60 0 l0 -517 l-598 0 l0 517 Z" /><glyph glyph-name="" unicode="&#x449;" d="M63 517 l60 0 l0 -465 l209 0 l0 465 l60 0 l0 -465 l209 0 l0 465 l60 0 l0 -465 l74 0 l0 -192 l-60 0 l0 140 l-612 0 l0 517 Z" /><glyph glyph-name="" unicode="&#x44a;" d="M23 517 l194 0 l0 -195 l173 0 q85 0 129 -43 q46 -43 46 -116 q0 -75 -46 -119 q-46 -44 -129 -44 l-233 0 l0 465 l-134 0 l0 52 ZM217 271 l0 -219 l162 0 q60 0 94 29 q32 30 32 82 q0 52 -33 80 q-32 28 -93 28 l-162 0 Z" /><glyph glyph-name="" unicode="&#x44b;" d="M565 517 l60 0 l0 -517 l-60 0 l0 517 ZM63 517 l60 0 l0 -195 l149 0 q83 0 130 -43 q46 -43 46 -116 q0 -75 -46 -119 q-47 -44 -130 -44 l-209 0 l0 517 ZM123 271 l0 -219 l138 0 q60 0 94 29 q32 30 32 82 q0 52 -33 80 q-32 28 -93 28 l-138 0 Z" /><glyph glyph-name="" unicode="&#x44c;" d="M63 517 l60 0 l0 -195 l179 0 q83 0 129 -43 q47 -42 47 -116 q0 -75 -47 -119 q-46 -44 -129 -44 l-239 0 l0 517 ZM123 271 l0 -219 l168 0 q59 0 93 29 q33 30 33 82 q0 52 -33 80 q-32 28 -93 28 l-168 0 Z" /><glyph glyph-name="" unicode="&#x44d;" d="M262 531 q112 0 178 -82 q60 -75 60 -190 q0 -115 -60 -192 q-66 -81 -177 -81 q-88 0 -143 40 q-61 44 -77 127 l60 0 q26 -115 159 -115 q83 0 131 62 q41 54 45 138 l-271 0 l0 52 l271 0 q-6 79 -45 127 q-47 62 -132 62 q-132 0 -157 -115 l-61 0 q16 85 76 127 q53 40 143 40 Z" /><glyph glyph-name="" unicode="&#x44e;" d="M63 517 l60 0 l0 -227 l143 0 q6 96 60 162 q63 79 169 79 q107 0 171 -80 q59 -76 59 -192 q0 -117 -59 -193 q-65 -80 -171 -80 q-107 0 -170 80 q-56 69 -60 172 l-142 0 l0 -238 l-60 0 l0 517 ZM495 479 q-78 0 -123 -61 q-45 -60 -45 -159 q0 -100 44 -159 q45 -62 124 -62 q78 0 125 62 q44 61 44 159 q0 98 -44 159 q-46 61 -125 61 Z" /><glyph glyph-name="" unicode="&#x44f;" d="M463 517 l0 -517 l-60 0 l0 222 l-164 0 l-124 -222 l-72 0 l132 230 q-28 7 -49 20 q-58 36 -58 118 q0 76 51 112 q49 37 144 37 l200 0 ZM268 465 q-138 0 -138 -95 q0 -47 28 -71 q31 -26 97 -26 l148 0 l0 192 l-135 0 Z" /><glyph glyph-name="" unicode="&#x451;" d="M190 690 q17 0 28 -10 q11 -11 11 -29 q0 -17 -11 -28 q-11 -11 -28 -11 q-18 0 -29 11 q-10 10 -10 28 q0 19 10 29 q10 10 29 10 ZM358 690 q18 0 29 -10 q11 -11 11 -29 q0 -17 -11 -28 q-13 -11 -29 -11 q-17 0 -28 11 q-11 10 -11 28 q0 19 11 29 q10 10 28 10 ZM272 531 q123 0 184 -83 q55 -74 59 -207 l-420 0 q5 -95 51 -149 q48 -54 128 -54 q69 0 114 37 q36 31 55 91 l61 0 q-18 -75 -69 -123 q-63 -57 -161 -57 q-109 0 -174 74 q-67 74 -67 199 q0 114 64 191 q66 81 175 81 ZM273 479 q-77 0 -123 -53 q-47 -53 -54 -136 l356 0 q-15 189 -179 189 Z" /><glyph glyph-name="" unicode="&#x2016;" d="M112 775 l41 0 l0 -830 l-41 0 l0 830 ZM347 775 l41 0 l0 -830 l-41 0 l0 830 Z" /><glyph glyph-name="" unicode="&#x2032;" d="M195 817 l-89 -245 l-50 0 l76 245 l63 0 Z" /><glyph glyph-name="" unicode="&#x2035;" d="M234 901 l105 -146 l-44 0 l-133 146 l72 0 Z" /><glyph glyph-name="" unicode="&#x203b;" d="M500 718 q23 0 37 -14 q14 -14 14 -35 q0 -20 -14 -36 q-15 -15 -37 -15 q-21 0 -36 15 q-15 15 -15 36 q0 22 15 35 q14 14 36 14 ZM500 399 l254 253 l38 -38 l-253 -254 l253 -254 l-38 -39 l-254 254 l-254 -254 l-38 39 l253 254 l-253 254 l38 38 l254 -253 ZM193 410 q22 0 36 -14 q15 -13 15 -35 q0 -21 -15 -36 q-15 -15 -36 -15 q-22 0 -36 15 q-15 15 -15 36 q0 22 15 35 q13 14 36 14 ZM808 410 q22 0 36 -14 q15 -13 15 -35 q0 -21 -15 -36 q-15 -15 -36 -15 q-22 0 -37 15 q-14 14 -14 36 q0 22 14 35 q14 14 37 14 ZM500 103 q23 0 37 -13 q14 -16 14 -36 q0 -21 -14 -37 q-16 -14 -37 -14 q-21 0 -36 15 q-15 15 -15 36 q0 21 15 36 q14 13 36 13 Z" /><glyph glyph-name="" unicode="&#x2103;" d="M144 827 q49 0 85 -36 q36 -34 36 -85 q0 -49 -36 -85 q-36 -36 -85 -36 q-50 0 -85 36 q-36 36 -36 85 q0 51 36 85 q35 36 85 36 ZM144 789 q-34 0 -58 -24 q-25 -24 -25 -59 q0 -34 25 -58 q24 -24 58 -24 q34 0 58 24 q24 24 24 58 q0 35 -24 59 q-24 24 -58 24 ZM575 728 q114 0 194 -62 q83 -63 97 -168 l-59 0 q-13 83 -81 129 q-64 45 -152 45 q-131 0 -206 -93 q-70 -86 -70 -225 q0 -139 69 -223 q72 -89 201 -89 q90 0 157 49 q71 54 92 153 l59 0 q-23 -124 -112 -194 q-84 -64 -195 -64 q-160 0 -250 110 q-82 100 -82 258 q0 158 84 261 q91 113 254 113 Z" /><glyph glyph-name="" unicode="&#x2121;" d="M707 728 l52 0 l0 -354 l229 0 l0 -46 l-281 0 l0 400 ZM373 728 l293 0 l0 -46 l-241 0 l0 -127 l229 0 l0 -44 l-229 0 l0 -137 l250 0 l0 -46 l-302 0 l0 400 ZM13 728 l328 0 l0 -46 l-138 0 l0 -354 l-52 0 l0 354 l-138 0 l0 46 Z" /><glyph glyph-name="" unicode="&#x2160;" d="M470 714 l61 0 l0 -714 l-61 0 l0 714 Z" /><glyph glyph-name="" unicode="&#x2161;" d="M343 714 l61 0 l0 -714 l-61 0 l0 714 ZM596 714 l62 0 l0 -714 l-62 0 l0 714 Z" /><glyph glyph-name="" unicode="&#x2162;" d="M222 714 l62 0 l0 -714 l-62 0 l0 714 ZM470 714 l61 0 l0 -714 l-61 0 l0 714 ZM716 714 l62 0 l0 -714 l-62 0 l0 714 Z" /><glyph glyph-name="" unicode="&#x2163;" d="M139 714 l61 0 l0 -714 l-61 0 l0 714 ZM381 714 l219 -645 l2 0 l218 645 l69 0 l-250 -714 l-76 0 l-250 714 l68 0 Z" /><glyph glyph-name="" unicode="&#x2164;" d="M260 714 l239 -649 l2 0 l240 649 l68 0 l-270 -714 l-78 0 l-269 714 l68 0 Z" /><glyph glyph-name="" unicode="&#x2165;" d="M180 714 l219 -645 l1 0 l219 645 l68 0 l-249 -714 l-76 0 l-251 714 l69 0 ZM800 714 l61 0 l0 -714 l-61 0 l0 714 Z" /><glyph glyph-name="" unicode="&#x2166;" d="M110 714 l194 -631 l2 0 l194 631 l68 0 l-228 -714 l-70 0 l-228 714 l68 0 ZM653 714 l62 0 l0 -714 l-62 0 l0 714 ZM838 714 l61 0 l0 -714 l-61 0 l0 714 Z" /><glyph glyph-name="" unicode="&#x2167;" d="M93 714 l157 -622 l2 0 l158 622 l66 0 l-190 -714 l-69 0 l-189 714 l65 0 ZM554 714 l60 0 l0 -714 l-60 0 l0 714 ZM711 714 l60 0 l0 -714 l-60 0 l0 714 ZM869 714 l60 0 l0 -714 l-60 0 l0 714 Z" /><glyph glyph-name="" unicode="&#x2168;" d="M122 714 l65 0 l0 -714 l-65 0 l0 714 ZM393 714 l208 -293 l209 293 l76 0 l-247 -343 l268 -371 l-77 0 l-229 322 l-229 -322 l-76 0 l267 371 l-246 343 l76 0 Z" /><glyph glyph-name="" unicode="&#x2169;" d="M292 714 l208 -293 l208 293 l77 0 l-248 -343 l268 -371 l-76 0 l-229 323 l-229 -323 l-76 0 l267 371 l-247 343 l77 0 Z" /><glyph glyph-name="" unicode="&#x216a;" d="M190 714 l209 -293 l208 293 l76 0 l-247 -343 l268 -371 l-76 0 l-229 323 l-229 -323 l-77 0 l268 371 l-247 343 l76 0 ZM813 714 l65 0 l0 -714 l-65 0 l0 714 Z" /><glyph glyph-name="" unicode="&#x216b;" d="M131 714 l175 -287 l175 287 l76 0 l-213 -346 l227 -368 l-76 0 l-189 310 l-189 -310 l-76 0 l227 368 l-213 346 l76 0 ZM662 714 l65 0 l0 -714 l-65 0 l0 714 ZM846 714 l65 0 l0 -714 l-65 0 l0 714 Z" /><glyph glyph-name="" unicode="&#x2190;" d="M277 540 l-157 -155 l858 0 l0 -50 l-858 0 l157 -155 l-28 -30 l-227 210 l227 210 l28 -30 Z" /><glyph glyph-name="" unicode="&#x2191;" d="M710 611 l-30 -28 l-155 157 l0 -858 l-50 0 l0 858 l-155 -157 l-30 28 l210 227 l210 -227 Z" /><glyph glyph-name="" unicode="&#x2192;" d="M978 360 l-227 -210 l-28 30 l157 155 l-858 0 l0 50 l858 0 l-157 155 l28 30 l227 -210 Z" /><glyph glyph-name="" unicode="&#x2193;" d="M475 838 l50 0 l0 -858 l155 157 l30 -28 l-210 -227 l-210 227 l30 28 l155 -157 l0 858 Z" /><glyph glyph-name="" unicode="&#x2196;" d="M433 725 l-3 -42 l-220 1 l667 -665 l-36 -36 l-665 667 l1 -220 l-42 -3 l-12 310 l310 -12 Z" /><glyph glyph-name="" unicode="&#x2197;" d="M865 427 l-42 3 l1 220 l-665 -667 l-36 36 l667 665 l-220 -1 l-3 42 l310 12 l-12 -310 Z" /><glyph glyph-name="" unicode="&#x2198;" d="M824 70 l-1 220 l42 3 l12 -310 l-310 12 l3 42 l220 -1 l-667 665 l36 36 l665 -667 Z" /><glyph glyph-name="" unicode="&#x2199;" d="M877 701 l-667 -665 l220 1 l3 -42 l-310 -12 l12 310 l42 -3 l-1 -220 l665 667 l36 -36 Z" /><glyph glyph-name="" unicode="&#x2208;" d="M707 626 l0 -52 l-337 0 q-104 0 -161 -44 q-65 -48 -73 -147 l571 0 l0 -52 l-571 0 q8 -96 73 -147 q59 -44 161 -44 l337 0 l0 -52 l-336 0 q-126 0 -200 59 q-88 70 -88 210 q0 141 88 210 q72 59 200 59 l336 0 Z" /><glyph glyph-name="" unicode="&#x221d;" d="M232 547 q54 0 127 -48 q46 -30 131 -107 q78 74 131 108 q71 47 126 47 q101 0 151 -80 l-42 -31 q-35 59 -108 59 q-44 0 -106 -42 q-48 -33 -114 -95 q74 -67 115 -96 q63 -43 105 -43 q69 0 108 60 l42 -32 q-51 -80 -151 -80 q-54 0 -126 48 q-51 33 -131 107 q-81 -73 -132 -108 q-73 -47 -126 -47 q-79 0 -129 53 q-50 53 -50 137 q0 84 50 137 q49 53 129 53 ZM232 495 q-57 0 -92 -39 q-35 -36 -35 -99 q0 -61 35 -99 q35 -39 92 -39 q43 0 106 43 q42 30 113 95 q-67 61 -114 95 q-62 43 -105 43 Z" /><glyph glyph-name="" unicode="&#x221f;" d="M103 680 l52 0 l0 -592 l572 0 l0 -52 l-624 0 l0 644 Z" /><glyph glyph-name="" unicode="&#x2220;" d="M636 680 l-450 -592 l522 0 l0 -52 l-625 0 l488 644 l65 0 Z" /><glyph glyph-name="" unicode="&#x2223;" d="M141 860 l52 0 l0 -1000 l-52 0 l0 1000 Z" /><glyph glyph-name="" unicode="&#x2225;" d="M552 714 l-192 -714 l-42 0 l192 714 l42 0 ZM317 714 l-192 -714 l-42 0 l192 714 l42 0 Z" /><glyph glyph-name="" unicode="&#x2227;" d="M396 680 l278 -644 l-57 0 l-248 575 l-249 -575 l-57 0 l278 644 l55 0 Z" /><glyph glyph-name="" unicode="&#x2228;" d="M120 680 l249 -575 l248 575 l57 0 l-278 -644 l-55 0 l-278 644 l57 0 Z" /><glyph glyph-name="" unicode="&#x2229;" d="M344 679 q138 0 203 -89 q58 -76 58 -207 l0 -348 l-52 0 l0 350 q0 243 -209 243 q-209 0 -209 -243 l0 -350 l-52 0 l0 348 q0 132 57 207 q65 89 204 89 Z" /><glyph glyph-name="" unicode="&#x222a;" d="M83 679 l52 0 l0 -349 q0 -243 209 -243 q209 0 209 243 l0 349 l52 0 l0 -348 q0 -129 -58 -207 q-66 -89 -203 -89 q-138 0 -204 89 q-57 77 -57 207 l0 348 Z" /><glyph glyph-name="" unicode="&#x222e;" d="M264 542 q75 0 128 -53 q53 -53 53 -128 q0 -73 -53 -128 q-33 -31 -70 -44 q10 -80 10 -114 q0 -69 -23 -115 q-31 -58 -93 -58 q-104 0 -116 135 l53 0 q8 -86 65 -86 q61 0 61 109 q0 37 -10 120 l-5 0 q-75 0 -128 53 q-53 53 -53 128 q0 76 53 128 q33 35 79 47 l-3 23 l-2 23 q-6 68 1 116 q13 122 103 122 q102 0 115 -136 l-52 0 q-9 86 -66 86 q-60 0 -60 -109 q0 -48 10 -119 l3 0 ZM267 499 q6 -41 25 -139 q17 -88 23 -127 q27 12 46 31 q41 41 41 97 q0 58 -41 97 q-39 41 -94 41 ZM263 223 q-6 32 -8 49 q-21 116 -31 195 q-3 14 -3 25 q-31 -9 -54 -34 q-40 -39 -40 -97 q0 -57 40 -97 q39 -41 96 -41 Z" /><glyph glyph-name="" unicode="&#x2234;" d="M431 714 q22 0 36 -14 q15 -13 15 -36 q0 -21 -15 -36 q-16 -14 -36 -14 q-22 0 -36 14 q-15 15 -15 36 q0 23 15 36 q13 14 36 14 ZM727 100 q23 0 37 -14 q14 -14 14 -36 q0 -20 -14 -36 q-16 -14 -37 -14 q-21 0 -36 15 q-14 14 -14 35 q0 23 14 36 q14 14 36 14 ZM134 100 q22 0 36 -14 q15 -13 15 -36 q0 -21 -15 -36 q-16 -14 -36 -14 q-22 0 -37 15 q-14 14 -14 35 q0 23 14 36 q14 14 37 14 Z" /><glyph glyph-name="" unicode="&#x2235;" d="M134 714 q22 0 36 -14 q15 -13 15 -36 q0 -21 -15 -36 q-16 -14 -36 -14 q-21 0 -37 14 q-14 14 -14 36 q0 23 14 36 q14 14 37 14 ZM727 714 q23 0 37 -14 q14 -14 14 -36 q0 -20 -14 -36 q-16 -14 -37 -14 q-20 0 -36 14 q-14 14 -14 36 q0 23 14 36 q14 14 36 14 ZM431 100 q22 0 36 -14 q15 -13 15 -36 q0 -21 -15 -36 q-16 -14 -36 -14 q-22 0 -36 15 q-15 15 -15 35 q0 23 15 36 q13 14 36 14 Z" /><glyph glyph-name="" unicode="&#x2236;" d="M250 714 q23 0 37 -14 q14 -14 14 -36 q0 -20 -14 -36 q-16 -14 -37 -14 q-22 0 -36 14 q-15 15 -15 36 q0 23 15 36 q13 14 36 14 ZM250 100 q23 0 37 -14 q14 -14 14 -36 q0 -20 -14 -36 q-16 -14 -37 -14 q-22 0 -36 15 q-15 15 -15 35 q0 23 15 36 q13 14 36 14 Z" /><glyph glyph-name="" unicode="&#x2237;" d="M134 714 q22 0 36 -14 q15 -13 15 -36 q0 -21 -15 -36 q-16 -14 -36 -14 q-21 0 -37 14 q-14 14 -14 36 q0 23 14 36 q14 14 37 14 ZM134 100 q22 0 36 -14 q15 -13 15 -36 q0 -21 -15 -36 q-16 -14 -36 -14 q-22 0 -37 15 q-14 14 -14 35 q0 23 14 36 q14 14 37 14 ZM634 714 q22 0 36 -14 q15 -13 15 -36 q0 -21 -15 -36 q-16 -14 -36 -14 q-21 0 -37 14 q-14 14 -14 36 q0 23 14 36 q14 14 37 14 ZM634 100 q22 0 36 -14 q15 -13 15 -36 q0 -21 -15 -36 q-16 -14 -36 -14 q-22 0 -37 15 q-14 14 -14 35 q0 23 14 36 q14 14 37 14 Z" /><glyph glyph-name="" unicode="&#x223d;" d="M529 437 q52 0 95 -30 q35 -23 73 -78 l-38 -32 q-64 88 -130 88 q-46 0 -135 -51 q-90 -51 -147 -51 q-91 0 -164 106 l38 32 q28 -42 59 -63 q34 -23 68 -23 q46 0 136 51 q87 51 145 51 Z" /><glyph glyph-name="" unicode="&#x224c;" d="M529 610 q52 0 95 -31 q35 -23 73 -78 l-38 -32 q-64 89 -130 89 q-47 0 -135 -52 q-90 -51 -147 -51 q-92 0 -164 107 l38 31 q28 -42 59 -63 q34 -23 68 -23 q46 0 136 51 q86 52 145 52 ZM83 357 l624 0 l0 -52 l-624 0 l0 52 ZM83 167 l624 0 l0 -52 l-624 0 l0 52 Z" /><glyph glyph-name="" unicode="&#x2252;" d="M83 492 l624 0 l0 -52 l-624 0 l0 52 ZM83 279 l624 0 l0 -52 l-624 0 l0 52 ZM173 714 q23 0 37 -14 q14 -14 14 -36 q0 -20 -14 -36 q-16 -14 -37 -14 q-20 0 -36 14 q-14 14 -14 36 q0 23 14 36 q14 14 36 14 ZM616 100 q23 0 37 -14 q14 -14 14 -36 q0 -20 -14 -36 q-16 -14 -37 -14 q-21 0 -36 15 q-14 14 -14 35 q0 23 14 36 q14 14 36 14 Z" /><glyph glyph-name="" unicode="&#x2261;" d="M83 600 l624 0 l0 -52 l-624 0 l0 52 ZM83 385 l624 0 l0 -52 l-624 0 l0 52 ZM83 171 l624 0 l0 -52 l-624 0 l0 52 Z" /><glyph glyph-name="" unicode="&#x2266;" d="M707 648 l-538 -150 l538 -150 l0 -54 l-624 174 l0 60 l624 174 l0 -54 ZM83 217 l624 0 l0 -52 l-624 0 l0 52 ZM83 52 l624 0 l0 -52 l-624 0 l0 52 Z" /><glyph glyph-name="" unicode="&#x2267;" d="M83 702 l624 -174 l0 -60 l-624 -174 l0 54 l538 150 l-538 150 l0 54 ZM83 217 l624 0 l0 -52 l-624 0 l0 52 ZM83 52 l624 0 l0 -52 l-624 0 l0 52 Z" /><glyph glyph-name="" unicode="&#x226e;" d="M399 714 l52 0 l0 -167 l256 111 l0 -58 l-256 -111 l0 -258 l256 -111 l0 -58 l-256 111 l0 -173 l-52 0 l0 196 l-316 138 l0 52 l316 138 l0 190 ZM399 467 l-246 -107 l246 -107 l0 214 Z" /><glyph glyph-name="" unicode="&#x226f;" d="M83 658 l256 -112 l0 168 l52 0 l0 -191 l316 -137 l0 -52 l-316 -137 l0 -197 l-52 0 l0 174 l-256 -112 l0 58 l256 111 l0 258 l-256 111 l0 58 ZM391 254 l246 106 l-246 106 l0 -212 Z" /><glyph glyph-name="" unicode="&#x2295;" d="M435 711 q148 0 250 -102 q102 -102 102 -250 q0 -147 -102 -251 q-102 -102 -250 -102 q-148 0 -250 102 q-102 104 -102 251 q0 148 102 250 q102 102 250 102 ZM457 382 l285 0 q-9 116 -89 196 q-80 80 -196 88 l0 -284 ZM413 666 q-116 -7 -197 -88 q-82 -80 -89 -196 l286 0 l0 284 ZM457 338 l0 -287 q117 9 197 89 q80 82 88 198 l-285 0 ZM127 338 q6 -116 89 -198 q80 -80 197 -89 l0 287 l-286 0 Z" /><glyph glyph-name="" unicode="&#x2299;" d="M435 711 q148 0 250 -102 q102 -102 102 -250 q0 -147 -102 -251 q-102 -102 -250 -102 q-148 0 -250 102 q-102 104 -102 251 q0 148 102 250 q102 102 250 102 ZM435 667 q-131 0 -219 -89 q-89 -88 -89 -219 q0 -130 89 -219 q89 -90 219 -90 q128 0 218 90 q90 90 90 219 q0 129 -90 219 q-89 89 -218 89 ZM435 429 q28 0 49 -21 q21 -21 21 -49 q0 -28 -21 -49 q-21 -21 -49 -21 q-28 0 -49 21 q-21 21 -21 49 q0 28 21 49 q21 21 49 21 Z" /><glyph glyph-name="" unicode="&#x22a5;" d="M369 680 l52 0 l0 -592 l286 0 l0 -52 l-624 0 l0 52 l286 0 l0 592 Z" /><glyph glyph-name="" unicode="&#x22bf;" d="M690 36 l-627 0 l627 639 l0 -639 ZM638 550 l-454 -462 l454 0 l0 462 Z" /><glyph glyph-name="" unicode="&#x2312;" d="M500 213 q233 0 439 -179 l-28 -34 q-195 168 -411 168 q-216 0 -411 -168 l-28 34 q206 179 439 179 Z" /><glyph glyph-name="" unicode="&#x2460;" d="M500 848 q202 0 345 -143 q143 -143 143 -345 q0 -200 -143 -345 q-145 -143 -345 -143 q-202 0 -345 143 q-143 143 -143 345 q0 203 143 345 q142 143 345 143 ZM500 817 q-190 0 -323 -134 q-134 -133 -134 -323 q0 -189 134 -323 q134 -134 323 -134 q187 0 322 133 q134 136 134 322 q0 188 -134 324 q-133 135 -322 135 ZM547 693 l0 -671 l-60 0 l0 595 q-69 -71 -157 -97 l0 61 q96 27 167 112 l50 0 Z" /><glyph glyph-name="" unicode="&#x2461;" d="M500 848 q202 0 345 -143 q143 -143 143 -345 q0 -200 -143 -345 q-145 -143 -345 -143 q-202 0 -345 143 q-143 143 -143 345 q0 203 143 345 q142 143 345 143 ZM500 817 q-190 0 -323 -134 q-134 -133 -134 -323 q0 -189 134 -323 q134 -134 323 -134 q187 0 322 133 q134 136 134 322 q0 188 -134 324 q-133 135 -322 135 ZM509 706 q90 0 149 -52 q59 -53 59 -140 q0 -83 -61 -153 q-35 -38 -132 -103 q-153 -102 -169 -181 l363 0 l0 -55 l-436 0 q1 88 71 165 q40 46 142 117 q86 61 109 86 q53 58 53 125 q0 64 -40 101 q-41 37 -110 37 q-71 0 -113 -49 q-42 -48 -45 -136 l-60 0 q2 109 63 173 q59 65 157 65 Z" /><glyph glyph-name="" unicode="&#x2462;" d="M500 848 q202 0 345 -143 q143 -143 143 -345 q0 -200 -143 -345 q-145 -143 -345 -143 q-202 0 -345 143 q-143 143 -143 345 q0 203 143 345 q142 143 345 143 ZM500 817 q-190 0 -323 -134 q-134 -133 -134 -323 q0 -189 134 -323 q134 -134 323 -134 q187 0 322 133 q134 136 134 322 q0 188 -134 324 q-133 135 -322 135 ZM507 706 q94 0 150 -50 q58 -49 58 -131 q0 -55 -27 -94 q-29 -39 -79 -57 q53 -18 87 -61 q32 -43 32 -100 q0 -91 -63 -148 q-63 -57 -164 -57 q-88 0 -149 47 q-74 57 -80 171 l59 0 q6 -90 59 -131 q43 -34 111 -34 q74 0 122 43 q45 42 45 107 q0 61 -41 97 q-42 39 -114 39 l-56 0 l0 48 l52 0 q69 0 107 32 q38 33 38 94 q0 58 -40 95 q-38 37 -108 37 q-70 0 -111 -40 q-41 -38 -49 -112 l-59 0 q9 94 68 149 q57 56 152 56 Z" /><glyph glyph-name="" unicode="&#x2463;" d="M500 848 q202 0 345 -143 q143 -143 143 -345 q0 -200 -143 -345 q-145 -143 -345 -143 q-202 0 -345 143 q-143 143 -143 345 q0 203 143 345 q142 143 345 143 ZM500 817 q-190 0 -323 -134 q-134 -133 -134 -323 q0 -189 134 -323 q134 -134 323 -134 q187 0 322 133 q134 136 134 322 q0 188 -134 324 q-133 135 -322 135 ZM615 693 l0 -464 l114 0 l0 -51 l-114 0 l0 -156 l-58 0 l0 156 l-347 0 l0 56 l348 459 l57 0 ZM555 611 l-289 -382 l291 0 l0 382 l-2 0 Z" /><glyph glyph-name="" unicode="&#x2464;" d="M500 848 q202 0 345 -143 q143 -143 143 -345 q0 -200 -143 -345 q-145 -143 -345 -143 q-202 0 -345 143 q-143 143 -143 345 q0 203 143 345 q142 143 345 143 ZM500 817 q-190 0 -323 -134 q-134 -133 -134 -323 q0 -189 134 -323 q134 -134 323 -134 q187 0 322 133 q134 136 134 322 q0 188 -134 324 q-133 135 -322 135 ZM694 693 l0 -55 l-319 0 l-23 -243 l2 0 q60 70 156 70 q95 0 153 -60 q60 -61 60 -170 q0 -98 -67 -162 q-66 -64 -162 -64 q-87 0 -146 48 q-68 53 -74 145 l60 0 q6 -68 53 -106 q43 -34 107 -34 q73 0 121 50 q48 50 48 123 q0 83 -44 132 q-44 47 -121 47 q-104 0 -149 -88 l-58 0 l34 367 l369 0 Z" /><glyph glyph-name="" unicode="&#x2465;" d="M500 848 q202 0 345 -143 q143 -143 143 -345 q0 -200 -143 -345 q-145 -143 -345 -143 q-202 0 -345 143 q-143 143 -143 345 q0 203 143 345 q142 143 345 143 ZM500 817 q-190 0 -323 -134 q-134 -133 -134 -323 q0 -189 134 -323 q134 -134 323 -134 q187 0 322 133 q134 136 134 322 q0 188 -134 324 q-133 135 -322 135 ZM510 706 q178 0 206 -177 l-60 0 q-12 58 -40 87 q-37 37 -107 37 q-85 0 -132 -84 q-45 -78 -45 -205 l0 -10 q0 -9 1 -19 l2 0 q23 55 73 89 q48 33 109 33 q96 0 154 -62 q57 -60 57 -158 q0 -98 -62 -163 q-62 -65 -157 -65 q-123 0 -183 93 q-54 84 -54 238 q0 160 60 259 q62 107 178 107 ZM507 405 q-68 0 -116 -48 q-48 -48 -48 -120 q0 -73 43 -122 q45 -53 121 -53 q70 0 116 49 q45 50 45 126 q0 76 -44 123 q-43 45 -117 45 Z" /><glyph glyph-name="" unicode="&#x2466;" d="M500 848 q202 0 345 -143 q143 -143 143 -345 q0 -200 -143 -345 q-145 -143 -345 -143 q-202 0 -345 143 q-143 143 -143 345 q0 203 143 345 q142 143 345 143 ZM500 817 q-190 0 -323 -134 q-134 -133 -134 -323 q0 -189 134 -323 q134 -134 323 -134 q187 0 322 133 q134 136 134 322 q0 188 -134 324 q-133 135 -322 135 ZM286 693 l428 0 l0 -51 l-247 -620 l-65 0 l249 615 l-365 0 l0 56 Z" /><glyph glyph-name="" unicode="&#x2467;" d="M500 848 q202 0 345 -143 q143 -143 143 -345 q0 -200 -143 -345 q-145 -143 -345 -143 q-202 0 -345 143 q-143 143 -143 345 q0 203 143 345 q142 143 345 143 ZM500 817 q-190 0 -323 -134 q-134 -133 -134 -323 q0 -189 134 -323 q134 -134 323 -134 q187 0 322 133 q134 136 134 322 q0 188 -134 324 q-133 135 -322 135 ZM500 706 q104 0 161 -53 q52 -49 52 -122 q0 -112 -110 -150 l0 -1 q62 -17 97 -64 q37 -48 37 -111 q0 -87 -59 -140 q-64 -56 -178 -56 q-114 0 -178 56 q-59 52 -59 140 q0 65 37 111 q36 48 97 64 l0 1 q-110 37 -110 150 q0 74 52 122 q56 53 161 53 ZM500 654 q-78 0 -120 -39 q-36 -33 -36 -86 q0 -55 34 -88 q41 -39 122 -39 q80 0 122 39 q34 34 34 88 q0 53 -36 86 q-42 39 -120 39 ZM500 352 q-87 0 -133 -43 q-44 -38 -44 -104 q0 -64 43 -103 q45 -42 134 -42 q88 0 134 42 q43 40 43 103 q0 64 -43 104 q-47 43 -134 43 Z" /><glyph glyph-name="" unicode="&#x2468;" d="M500 848 q202 0 345 -143 q143 -143 143 -345 q0 -200 -143 -345 q-145 -143 -345 -143 q-202 0 -345 143 q-143 143 -143 345 q0 203 143 345 q142 143 345 143 ZM500 817 q-190 0 -323 -134 q-134 -133 -134 -323 q0 -189 134 -323 q134 -134 323 -134 q187 0 322 133 q134 136 134 322 q0 188 -134 324 q-133 135 -322 135 ZM491 706 q122 0 183 -93 q54 -82 54 -238 q0 -158 -59 -258 q-66 -108 -179 -108 q-179 0 -206 177 l60 0 q11 -58 40 -87 q37 -37 107 -37 q85 0 133 84 q44 80 44 205 l0 10 q-1 10 -1 19 l-2 0 q-26 -57 -73 -89 q-49 -33 -109 -33 q-97 0 -154 62 q-57 60 -57 158 q0 101 62 164 q60 64 157 64 ZM493 653 q-73 0 -116 -49 q-45 -48 -45 -126 q0 -77 44 -122 q43 -46 117 -46 q68 0 116 48 q48 50 48 120 q0 73 -43 122 q-44 53 -121 53 Z" /><glyph glyph-name="" unicode="&#x2469;" d="M500 848 q202 0 345 -143 q143 -143 143 -345 q0 -200 -143 -345 q-145 -143 -345 -143 q-202 0 -345 143 q-143 143 -143 345 q0 203 143 345 q142 143 345 143 ZM500 817 q-190 0 -323 -134 q-134 -133 -134 -323 q0 -189 134 -323 q134 -134 323 -134 q187 0 322 133 q134 136 134 322 q0 188 -134 324 q-133 135 -322 135 ZM630 706 q186 0 186 -348 q0 -349 -186 -349 q-185 0 -185 348 q0 349 185 349 ZM630 653 q-59 0 -89 -57 q-38 -69 -38 -239 q0 -168 38 -237 q31 -58 89 -58 q58 0 89 57 q39 72 39 239 q0 169 -39 239 q-31 56 -89 56 ZM337 693 l0 -671 l-56 0 l0 592 q-46 -58 -119 -93 l0 60 q75 35 131 112 l44 0 Z" /><glyph glyph-name="" unicode="&#x2500;" d="M0 382 l1000 0 l0 -43 l-1000 0 l0 43 Z" /><glyph glyph-name="" unicode="&#x2501;" d="M0 423 l1000 0 l0 -125 l-1000 0 l0 125 Z" /><glyph glyph-name="" unicode="&#x2504;" d="M40 382 l254 0 l0 -43 l-254 0 l0 43 ZM373 382 l254 0 l0 -43 l-254 0 l0 43 ZM707 382 l254 0 l0 -43 l-254 0 l0 43 Z" /><glyph glyph-name="" unicode="&#x2505;" d="M706 423 l254 0 l0 -125 l-254 0 l0 125 ZM373 423 l254 0 l0 -125 l-254 0 l0 125 ZM39 423 l254 0 l0 -125 l-254 0 l0 125 Z" /><glyph glyph-name="" unicode="&#x2506;" d="M479 820 l43 0 l0 -254 l-43 0 l0 254 ZM479 487 l43 0 l0 -254 l-43 0 l0 254 ZM479 153 l43 0 l0 -254 l-43 0 l0 254 Z" /><glyph glyph-name="" unicode="&#x2507;" d="M438 820 l125 0 l0 -254 l-125 0 l0 254 ZM438 488 l125 0 l0 -254 l-125 0 l0 254 ZM438 154 l125 0 l0 -254 l-125 0 l0 254 Z" /><glyph glyph-name="" unicode="&#x2508;" d="M782 382 l186 0 l0 -43 l-186 0 l0 43 ZM532 382 l185 0 l0 -43 l-185 0 l0 43 ZM282 382 l185 0 l0 -43 l-185 0 l0 43 ZM31 382 l186 0 l0 -43 l-186 0 l0 43 Z" /><glyph glyph-name="" unicode="&#x250a;" d="M479 827 l43 0 l0 -186 l-43 0 l0 186 ZM479 576 l43 0 l0 -185 l-43 0 l0 185 ZM479 326 l43 0 l0 -185 l-43 0 l0 185 ZM479 76 l43 0 l0 -185 l-43 0 l0 185 Z" /><glyph glyph-name="" unicode="&#x250c;" d="M479 382 l521 0 l0 -43 l-478 0 l0 -479 l-43 0 l0 522 Z" /><glyph glyph-name="" unicode="&#x250d;" d="M479 423 l521 0 l0 -125 l-478 0 l0 -438 l-43 0 l0 563 Z" /><glyph glyph-name="" unicode="&#x250e;" d="M438 382 l562 0 l0 -43 l-437 0 l0 -479 l-125 0 l0 522 Z" /><glyph glyph-name="" unicode="&#x250f;" d="M438 423 l562 0 l0 -125 l-437 0 l0 -438 l-125 0 l0 563 Z" /><glyph glyph-name="" unicode="&#x2510;" d="M0 382 l522 0 l0 -522 l-43 0 l0 479 l-479 0 l0 43 Z" /><glyph glyph-name="" unicode="&#x2511;" d="M0 423 l522 0 l0 -563 l-43 0 l0 438 l-479 0 l0 125 Z" /><glyph glyph-name="" unicode="&#x2512;" d="M0 382 l563 0 l0 -522 l-125 0 l0 479 l-438 0 l0 43 Z" /><glyph glyph-name="" unicode="&#x2513;" d="M0 423 l563 0 l0 -563 l-125 0 l0 438 l-438 0 l0 125 Z" /><glyph glyph-name="" unicode="&#x2514;" d="M479 860 l43 0 l0 -478 l478 0 l0 -43 l-521 0 l0 521 Z" /><glyph glyph-name="" unicode="&#x2517;" d="M438 860 l125 0 l0 -437 l437 0 l0 -125 l-562 0 l0 562 Z" /><glyph glyph-name="" unicode="&#x2518;" d="M479 860 l43 0 l0 -521 l-522 0 l0 43 l479 0 l0 478 Z" /><glyph glyph-name="" unicode="&#x251b;" d="M438 860 l125 0 l0 -562 l-563 0 l0 125 l438 0 l0 437 Z" /><glyph glyph-name="" unicode="&#x251c;" d="M479 860 l43 0 l0 -478 l478 0 l0 -43 l-478 0 l0 -479 l-43 0 l0 1000 Z" /><glyph glyph-name="" unicode="&#x251d;" d="M479 860 l43 0 l0 -437 l478 0 l0 -125 l-478 0 l0 -438 l-43 0 l0 1000 Z" /><glyph glyph-name="" unicode="&#x251e;" d="M438 860 l125 0 l0 -478 l437 0 l0 -43 l-478 0 l0 -479 l-43 0 l0 479 l-41 0 l0 521 Z" /><glyph glyph-name="" unicode="&#x251f;" d="M479 860 l43 0 l0 -478 l478 0 l0 -43 l-437 0 l0 -479 l-125 0 l0 522 l41 0 l0 478 Z" /><glyph glyph-name="" unicode="&#x2520;" d="M438 860 l125 0 l0 -478 l437 0 l0 -43 l-437 0 l0 -479 l-125 0 l0 1000 Z" /><glyph glyph-name="" unicode="&#x2521;" d="M438 860 l125 0 l0 -437 l437 0 l0 -125 l-478 0 l0 -438 l-43 0 l0 438 l-41 0 l0 562 Z" /><glyph glyph-name="" unicode="&#x2522;" d="M479 860 l43 0 l0 -437 l478 0 l0 -125 l-437 0 l0 -438 l-125 0 l0 563 l41 0 l0 437 Z" /><glyph glyph-name="" unicode="&#x2523;" d="M438 860 l125 0 l0 -437 l437 0 l0 -125 l-437 0 l0 -438 l-125 0 l0 1000 Z" /><glyph glyph-name="" unicode="&#x2526;" d="M438 860 l125 0 l0 -521 l-41 0 l0 -479 l-43 0 l0 479 l-479 0 l0 43 l438 0 l0 478 Z" /><glyph glyph-name="" unicode="&#x2528;" d="M438 860 l125 0 l0 -1000 l-125 0 l0 479 l-438 0 l0 43 l438 0 l0 478 Z" /><glyph glyph-name="" unicode="&#x252c;" d="M0 382 l1000 0 l0 -43 l-478 0 l0 -479 l-43 0 l0 479 l-479 0 l0 43 Z" /><glyph glyph-name="" unicode="&#x252d;" d="M0 423 l522 0 l0 -41 l478 0 l0 -43 l-478 0 l0 -479 l-43 0 l0 438 l-479 0 l0 125 Z" /><glyph glyph-name="" unicode="&#x252e;" d="M479 423 l521 0 l0 -125 l-478 0 l0 -438 l-43 0 l0 479 l-479 0 l0 43 l479 0 l0 41 Z" /><glyph glyph-name="" unicode="&#x252f;" d="M0 423 l1000 0 l0 -125 l-478 0 l0 -438 l-43 0 l0 438 l-479 0 l0 125 Z" /><glyph glyph-name="" unicode="&#x2530;" d="M0 382 l1000 0 l0 -43 l-437 0 l0 -479 l-125 0 l0 479 l-438 0 l0 43 Z" /><glyph glyph-name="" unicode="&#x2531;" d="M0 423 l563 0 l0 -41 l437 0 l0 -43 l-437 0 l0 -479 l-125 0 l0 438 l-438 0 l0 125 Z" /><glyph glyph-name="" unicode="&#x2532;" d="M438 423 l562 0 l0 -125 l-437 0 l0 -438 l-125 0 l0 479 l-438 0 l0 43 l438 0 l0 41 Z" /><glyph glyph-name="" unicode="&#x2533;" d="M0 423 l1000 0 l0 -125 l-437 0 l0 -438 l-125 0 l0 438 l-438 0 l0 125 Z" /><glyph glyph-name="" unicode="&#x2537;" d="M479 860 l43 0 l0 -437 l478 0 l0 -125 l-1000 0 l0 125 l479 0 l0 437 Z" /><glyph glyph-name="" unicode="&#x253b;" d="M438 860 l125 0 l0 -437 l437 0 l0 -125 l-1000 0 l0 125 l438 0 l0 437 Z" /><glyph glyph-name="" unicode="&#x253c;" d="M479 860 l43 0 l0 -478 l478 0 l0 -43 l-478 0 l0 -479 l-43 0 l0 479 l-479 0 l0 43 l479 0 l0 478 Z" /><glyph glyph-name="" unicode="&#x253d;" d="M479 860 l43 0 l0 -478 l478 0 l0 -43 l-478 0 l0 -479 l-43 0 l0 438 l-479 0 l0 125 l479 0 l0 437 Z" /><glyph glyph-name="" unicode="&#x253e;" d="M479 860 l43 0 l0 -437 l478 0 l0 -125 l-478 0 l0 -438 l-43 0 l0 479 l-479 0 l0 43 l479 0 l0 478 Z" /><glyph glyph-name="" unicode="&#x253f;" d="M479 860 l43 0 l0 -437 l478 0 l0 -125 l-478 0 l0 -438 l-43 0 l0 438 l-479 0 l0 125 l479 0 l0 437 Z" /><glyph glyph-name="" unicode="&#x2540;" d="M438 860 l125 0 l0 -478 l437 0 l0 -43 l-478 0 l0 -479 l-43 0 l0 479 l-479 0 l0 43 l438 0 l0 478 Z" /><glyph glyph-name="" unicode="&#x2541;" d="M479 860 l43 0 l0 -478 l478 0 l0 -43 l-437 0 l0 -479 l-125 0 l0 479 l-438 0 l0 43 l479 0 l0 478 Z" /><glyph glyph-name="" unicode="&#x2542;" d="M438 860 l125 0 l0 -478 l437 0 l0 -43 l-437 0 l0 -479 l-125 0 l0 479 l-438 0 l0 43 l438 0 l0 478 Z" /><glyph glyph-name="" unicode="&#x2543;" d="M438 860 l125 0 l0 -478 l437 0 l0 -43 l-437 0 l0 -41 l-41 0 l0 -438 l-43 0 l0 438 l-479 0 l0 125 l438 0 l0 437 Z" /><glyph glyph-name="" unicode="&#x2550;" d="M0 418 l1000 0 l0 -31 l-1000 0 l0 31 ZM0 334 l1000 0 l0 -31 l-1000 0 l0 31 Z" /><glyph glyph-name="" unicode="&#x2553;" d="M443 376 l557 0 l0 -31 l-442 0 l0 -485 l-31 0 l0 485 l-53 0 l0 -485 l-31 0 l0 516 Z" /><glyph glyph-name="" unicode="&#x2554;" d="M443 418 l557 0 l0 -31 l-526 0 l0 -527 l-31 0 l0 558 ZM527 334 l473 0 l0 -31 l-442 0 l0 -443 l-31 0 l0 474 Z" /><glyph glyph-name="" unicode="&#x2557;" d="M0 418 l558 0 l0 -558 l-31 0 l0 527 l-527 0 l0 31 ZM0 334 l474 0 l0 -474 l-31 0 l0 443 l-443 0 l0 31 Z" /><glyph glyph-name="" unicode="&#x255a;" d="M527 860 l31 0 l0 -442 l442 0 l0 -31 l-473 0 l0 473 ZM443 860 l31 0 l0 -526 l526 0 l0 -31 l-557 0 l0 557 Z" /><glyph glyph-name="" unicode="&#x255d;" d="M443 860 l31 0 l0 -473 l-474 0 l0 31 l443 0 l0 442 ZM527 860 l31 0 l0 -557 l-558 0 l0 31 l527 0 l0 526 Z" /><glyph glyph-name="" unicode="&#x2565;" d="M0 376 l1000 0 l0 -31 l-442 0 l0 -485 l-31 0 l0 485 l-53 0 l0 -485 l-31 0 l0 485 l-443 0 l0 31 Z" /><glyph glyph-name="" unicode="&#x2569;" d="M527 860 l31 0 l0 -442 l442 0 l0 -31 l-473 0 l0 473 ZM443 860 l31 0 l0 -473 l-474 0 l0 31 l443 0 l0 442 ZM0 334 l1000 0 l0 -31 l-1000 0 l0 31 Z" /><glyph glyph-name="" unicode="&#x256c;" d="M527 860 l31 0 l0 -442 l442 0 l0 -31 l-473 0 l0 473 ZM443 860 l31 0 l0 -473 l-474 0 l0 31 l443 0 l0 442 ZM527 334 l473 0 l0 -31 l-442 0 l0 -443 l-31 0 l0 474 ZM0 334 l474 0 l0 -474 l-31 0 l0 443 l-443 0 l0 31 Z" /><glyph glyph-name="" unicode="&#x256d;" d="M1000 376 l0 -31 l-192 0 q-130 0 -210 -83 q-82 -83 -82 -215 l0 -187 l-31 0 l0 204 q0 130 89 220 q89 92 220 92 l206 0 Z" /><glyph glyph-name="" unicode="&#x256e;" d="M0 376 l206 0 q131 0 220 -92 q90 -91 90 -220 l0 -204 l-31 0 l0 187 q0 129 -83 214 q-82 84 -210 84 l-192 0 l0 31 Z" /><glyph glyph-name="" unicode="&#x256f;" d="M485 860 l31 0 l0 -204 q0 -127 -90 -220 q-91 -91 -220 -91 l-206 0 l0 31 l192 0 q128 0 210 84 q83 85 83 213 l0 187 Z" /><glyph glyph-name="" unicode="&#x2570;" d="M485 860 l31 0 l0 -187 q0 -130 82 -213 q81 -84 210 -84 l192 0 l0 -31 l-206 0 q-129 0 -220 91 q-89 92 -89 220 l0 204 Z" /><glyph glyph-name="" unicode="&#x2571;" d="M1000 860 l0 -22 l-978 -978 l-22 0 l0 20 l980 980 l20 0 Z" /><glyph glyph-name="" unicode="&#x2572;" d="M0 860 l19 0 l981 -980 l0 -20 l-23 0 l-977 978 l0 22 Z" /><glyph glyph-name="" unicode="&#x2573;" d="M0 860 l19 0 l481 -480 l480 480 l20 0 l0 -22 l-478 -479 l478 -479 l0 -20 l-23 0 l-477 477 l-478 -477 l-22 0 l0 20 l478 479 l-478 479 l0 22 Z" /><glyph glyph-name="" unicode="&#x2581;" d="M0 -11 l1000 0 l0 -129 l-1000 0 l0 129 Z" /><glyph glyph-name="" unicode="&#x2582;" d="M0 114 l1000 0 l0 -254 l-1000 0 l0 254 Z" /><glyph glyph-name="" unicode="&#x2583;" d="M0 239 l1000 0 l0 -379 l-1000 0 l0 379 Z" /><glyph glyph-name="" unicode="&#x2584;" d="M0 362 l1000 0 l0 -502 l-1000 0 l0 502 Z" /><glyph glyph-name="" unicode="&#x2585;" d="M0 487 l1000 0 l0 -627 l-1000 0 l0 627 Z" /><glyph glyph-name="" unicode="&#x2586;" d="M0 612 l1000 0 l0 -752 l-1000 0 l0 752 Z" /><glyph glyph-name="" unicode="&#x2587;" d="M0 737 l1000 0 l0 -877 l-1000 0 l0 877 Z" /><glyph glyph-name="" unicode="&#x2588;" d="M0 860 l1000 0 l0 -1000 l-1000 0 l0 1000 Z" /><glyph glyph-name="" unicode="&#x258c;" d="M0 860 l500 0 l0 -1000 l-500 0 l0 1000 Z" /><glyph glyph-name="" unicode="&#x2593;" d="M0 860 l1000 0 l0 -1000 l-1000 0 l0 1000 ZM813 798 l0 -125 l125 0 l0 125 l-125 0 ZM563 798 l0 -125 l125 0 l0 125 l-125 0 ZM813 548 l0 -125 l125 0 l0 125 l-125 0 ZM313 798 l0 -125 l125 0 l0 125 l-125 0 ZM563 548 l0 -125 l125 0 l0 125 l-125 0 ZM813 298 l0 -125 l125 0 l0 125 l-125 0 ZM63 798 l0 -125 l125 0 l0 125 l-125 0 ZM313 548 l0 -125 l125 0 l0 125 l-125 0 ZM563 298 l0 -125 l125 0 l0 125 l-125 0 ZM813 48 l0 -125 l125 0 l0 125 l-125 0 ZM63 548 l0 -125 l125 0 l0 125 l-125 0 ZM313 298 l0 -125 l125 0 l0 125 l-125 0 ZM563 48 l0 -125 l125 0 l0 125 l-125 0 ZM63 298 l0 -125 l125 0 l0 125 l-125 0 ZM313 48 l0 -125 l125 0 l0 125 l-125 0 ZM63 48 l0 -125 l125 0 l0 125 l-125 0 Z" /><glyph glyph-name="" unicode="&#x2594;" d="M0 860 l1000 0 l0 -119 l-1000 0 l0 119 Z" /><glyph glyph-name="" unicode="&#x25a0;" d="M147 718 l706 0 l0 -708 l-706 0 l0 708 Z" /><glyph glyph-name="" unicode="&#x25a1;" d="M147 718 l706 0 l0 -708 l-706 0 l0 708 ZM188 677 l0 -626 l624 0 l0 626 l-624 0 Z" /><glyph glyph-name="" unicode="&#x25b2;" d="M907 10 l-814 0 l407 705 l407 -705 Z" /><glyph glyph-name="" unicode="&#x25b3;" d="M907 10 l-814 0 l407 705 l407 -705 ZM164 51 l672 0 l-336 581 l-336 -581 Z" /><glyph glyph-name="" unicode="&#x25bc;" d="M907 715 l-407 -705 l-407 705 l814 0 Z" /><glyph glyph-name="" unicode="&#x25bd;" d="M907 715 l-407 -705 l-407 705 l814 0 ZM164 674 l336 -581 l336 581 l-672 0 Z" /><glyph glyph-name="" unicode="&#x25c6;" d="M898 359 l-398 -398 l-397 397 l397 398 l398 -397 Z" /><glyph glyph-name="" unicode="&#x25c7;" d="M897 360 l-397 -396 l-396 396 l396 396 l397 -396 ZM166 360 l334 -333 l334 333 l-334 333 l-334 -333 Z" /><glyph glyph-name="" unicode="&#x25cb;" d="M500 746 q161 0 270 -110 q110 -112 110 -272 q0 -160 -110 -270 q-111 -109 -270 -109 q-161 0 -270 109 q-110 110 -110 270 q0 162 110 272 q109 110 270 110 ZM500 708 q-144 0 -243 -100 q-99 -99 -99 -244 q0 -144 98 -242 q99 -99 244 -99 q143 0 243 99 q99 99 99 242 q0 144 -99 244 q-100 100 -243 100 Z" /><glyph glyph-name="" unicode="&#x25ce;" d="M500 746 q161 0 270 -110 q110 -112 110 -272 q0 -160 -110 -270 q-112 -109 -271 -109 q-161 0 -269 110 q-110 110 -110 270 q0 161 110 271 q109 110 270 110 ZM500 708 q-144 0 -243 -100 q-99 -99 -99 -244 q0 -144 98 -242 q99 -99 244 -99 q143 0 243 99 q99 99 99 242 q0 144 -99 244 q-100 100 -243 100 ZM500 602 q100 0 168 -68 q69 -67 69 -168 q0 -99 -69 -168 q-69 -69 -168 -69 q-100 0 -168 69 q-69 69 -69 168 q0 103 68 168 q67 68 169 68 ZM499 563 q-85 0 -141 -56 q-56 -56 -56 -141 q0 -83 57 -142 q58 -56 141 -56 q83 0 141 57 q56 59 56 142 q0 83 -57 140 q-56 56 -141 56 Z" /><glyph glyph-name="" unicode="&#x25cf;" d="M500 746 q159 0 270 -111 q110 -112 110 -271 q0 -160 -110 -270 q-112 -109 -270 -109 q-161 0 -270 109 q-110 110 -110 270 q0 161 110 271 q110 111 270 111 Z" /><glyph glyph-name="" unicode="&#x25e2;" d="M1000 -140 l-999 0 l999 999 l0 -999 Z" /><glyph glyph-name="" unicode="&#x25e3;" d="M0 859 l999 -999 l-999 0 l0 999 Z" /><glyph glyph-name="" unicode="&#x25e4;" d="M0 860 l0 0 Z" /><glyph glyph-name="" unicode="&#x25e5;" d="M1000 860 l0 -999 l-999 999 l999 0 Z" /><glyph glyph-name="" unicode="&#x2605;" d="M600 468 l308 0 l-246 -190 l101 -303 l-263 192 l-262 -192 l100 303 l-246 190 l307 0 l101 302 l100 -302 Z" /><glyph glyph-name="" unicode="&#x2606;" d="M638 473 l351 0 l-296 -222 l143 -373 l-336 251 l-336 -251 l143 373 l-296 223 l350 0 l139 369 l138 -370 ZM388 434 l-260 0 l226 -170 l-106 -274 l252 189 l252 -189 l-106 274 l226 170 l-261 0 l-111 298 l-112 -298 Z" /><glyph glyph-name="" unicode="&#x2609;" d="M500 711 q148 0 250 -102 q102 -102 102 -250 q0 -147 -102 -251 q-102 -102 -250 -102 q-148 0 -250 102 q-102 104 -102 251 q0 148 102 250 q102 102 250 102 ZM500 667 q-131 0 -219 -89 q-89 -88 -89 -219 q0 -130 89 -219 q89 -90 219 -90 q128 0 218 90 q90 90 90 219 q0 129 -90 219 q-89 89 -218 89 ZM500 429 q28 0 49 -21 q21 -21 21 -49 q0 -28 -21 -49 q-21 -21 -49 -21 q-28 0 -49 21 q-21 21 -21 49 q0 28 21 49 q21 21 49 21 Z" /><glyph glyph-name="" unicode="&#x2640;" d="M500 790 q85 0 146 -60 q60 -60 60 -145 q0 -84 -60 -146 q-50 -50 -120 -59 l0 -118 l287 0 l0 -52 l-287 0 l0 -276 l-52 0 l0 276 l-286 0 l0 52 l286 0 l0 118 q-70 9 -120 59 q-60 62 -60 146 q0 85 60 145 q60 60 146 60 ZM500 738 q-63 0 -108 -45 q-46 -45 -46 -108 q0 -64 46 -109 q45 -45 108 -45 q63 0 108 45 q46 46 46 109 q0 62 -46 108 q-45 45 -108 45 Z" /><glyph glyph-name="" unicode="&#x2642;" d="M721 567 l-30 -29 l-165 162 l0 -369 q68 -7 120 -59 q60 -60 60 -145 q0 -85 -60 -145 q-63 -61 -146 -61 q-85 0 -146 61 q-60 60 -60 145 q0 85 60 145 q52 52 120 59 l0 369 l-164 -162 l-30 29 l220 237 l221 -237 ZM500 280 q-63 0 -108 -45 q-46 -45 -46 -108 q0 -63 46 -109 q45 -45 108 -45 q63 0 108 45 q46 48 46 109 q0 62 -46 108 q-45 45 -108 45 Z" /><glyph glyph-name="" unicode="&#x3001;" d="M172 133 q50 -34 111 -97 q52 -54 84 -100 l-39 -33 q-33 46 -83 99 q-59 62 -108 98 l35 33 Z" /><glyph glyph-name="" unicode="&#x3002;" d="M250 136 q51 0 88 -34 q36 -34 36 -86 q0 -50 -36 -86 q-39 -34 -88 -34 q-51 0 -88 34 q-36 35 -36 86 q0 53 36 86 q35 34 88 34 ZM250 94 q-35 0 -57 -23 q-24 -21 -24 -55 q0 -32 24 -55 q23 -23 57 -23 q32 0 57 23 q24 23 24 55 q0 33 -24 55 q-23 23 -57 23 Z" /><glyph glyph-name="" unicode="&#x3003;" d="M480 553 l-135 -396 l-40 13 l111 398 l64 -15 ZM695 553 l-135 -396 l-40 13 l110 398 l65 -15 Z" /><glyph glyph-name="" unicode="&#x3005;" d="M494 793 q-43 -132 -98 -235 l468 0 l0 -42 q-100 -251 -294 -391 q105 -85 186 -171 l-40 -40 q-140 153 -373 320 l37 35 q87 -61 148 -110 q179 127 274 345 l-435 0 q-83 -141 -192 -241 l-39 37 q205 198 307 506 l51 -13 Z" /><glyph glyph-name="" unicode="&#x3007;" d="M500 775 q173 0 296 -122 q125 -122 125 -293 q0 -171 -125 -294 q-125 -122 -296 -122 q-172 0 -296 122 q-125 122 -125 294 q0 172 125 293 q122 122 296 122 ZM500 723 q-153 0 -260 -107 q-109 -105 -109 -256 q0 -149 109 -257 q109 -107 260 -107 q150 0 260 107 q109 109 109 257 q0 150 -109 256 q-108 107 -260 107 Z" /><glyph glyph-name="" unicode="&#x300a;" d="M787 805 l-198 -445 l196 -445 l-48 -22 l-206 467 l206 467 l50 -22 ZM940 805 l-197 -445 l197 -445 l-48 -22 l-206 467 l206 467 l48 -22 Z" /><glyph glyph-name="" unicode="&#x300b;" d="M314 360 l-206 -467 l-48 22 l197 445 l-197 445 l48 22 l206 -467 ZM469 360 l-206 -467 l-48 22 l196 445 l-198 445 l50 22 l206 -467 Z" /><glyph glyph-name="" unicode="&#x300c;" d="M657 827 l313 0 l0 -52 l-257 0 l0 -561 l-56 0 l0 613 Z" /><glyph glyph-name="" unicode="&#x300d;" d="M287 506 l56 0 l0 -613 l-313 0 l0 52 l257 0 l0 561 Z" /><glyph glyph-name="" unicode="&#x300e;" d="M619 827 l351 0 l0 -182 l-169 0 l0 -431 l-182 0 l0 613 ZM660 785 l0 -529 l99 0 l0 431 l169 0 l0 98 l-268 0 Z" /><glyph glyph-name="" unicode="&#x300f;" d="M199 506 l182 0 l0 -613 l-351 0 l0 182 l169 0 l0 431 ZM241 464 l0 -431 l-169 0 l0 -98 l268 0 l0 529 l-99 0 Z" /><glyph glyph-name="" unicode="&#x3010;" d="M668 827 l282 0 q-160 -197 -160 -467 q0 -271 160 -467 l-282 0 l0 934 Z" /><glyph glyph-name="" unicode="&#x3011;" d="M332 827 l0 -934 l-282 0 q160 198 160 467 q0 268 -160 467 l282 0 Z" /><glyph glyph-name="" unicode="&#x3012;" d="M168 714 l665 0 l0 -52 l-665 0 l0 52 ZM168 466 l665 0 l0 -52 l-307 0 l0 -414 l-52 0 l0 414 l-306 0 l0 52 Z" /><glyph glyph-name="" unicode="&#x3013;" d="M190 689 l621 0 l0 -227 l-621 0 l0 227 ZM190 259 l621 0 l0 -227 l-621 0 l0 227 Z" /><glyph glyph-name="" unicode="&#x3014;" d="M969 781 l-232 -141 l0 -560 l232 -141 l-29 -46 l-259 156 l0 622 l259 156 l29 -46 Z" /><glyph glyph-name="" unicode="&#x3015;" d="M319 671 l0 -622 l-259 -156 l-29 46 l232 141 l0 560 l-232 141 l29 46 l259 -156 Z" /><glyph glyph-name="" unicode="&#x3016;" d="M644 827 l326 0 l0 -7 q-72 -93 -108 -216 q-34 -112 -34 -244 q0 -132 34 -244 q36 -121 108 -216 l0 -7 l-326 0 l0 934 ZM686 785 l0 -851 l213 0 q-56 87 -84 199 q-28 109 -28 227 q0 118 28 226 q29 116 84 199 l-213 0 Z" /><glyph glyph-name="" unicode="&#x3017;" d="M30 827 l326 0 l0 -934 l-326 0 l0 7 q72 95 108 216 q34 117 34 244 q0 127 -34 244 q-36 123 -108 216 l0 7 ZM101 785 q54 -83 84 -199 q28 -114 28 -226 q0 -112 -28 -227 q-30 -112 -84 -199 l213 0 l0 851 l-213 0 Z" /><glyph glyph-name="" unicode="&#x301d;" d="M859 837 q23 0 37 -14 q14 -12 14 -37 q0 -21 -15 -35 q-16 -14 -37 -14 q-4 0 -8 1 q-3 0 -6 1 q3 -74 76 -123 l-22 -35 q-100 54 -100 174 q0 82 61 82 ZM688 837 q23 0 37 -14 q13 -13 13 -37 q0 -21 -14 -35 q-16 -14 -37 -14 q-7 0 -15 2 q4 -75 77 -123 l-22 -35 q-100 54 -100 174 q0 82 61 82 Z" /><glyph glyph-name="" unicode="&#x301e;" d="M312 837 q61 0 61 -82 q0 -119 -100 -174 l-22 35 q71 47 77 123 q-8 -2 -15 -2 q-23 0 -37 14 q-14 13 -14 35 q0 25 13 37 q13 14 37 14 ZM141 837 q61 0 61 -82 q0 -119 -100 -174 l-22 35 q71 48 76 123 q-8 -2 -14 -2 q-23 0 -37 14 q-15 14 -15 35 q0 26 14 37 q13 14 37 14 Z" /><glyph glyph-name="" unicode="&#x3041;" d="M785 468 q-149 -9 -334 -12 q-7 -59 -7 -106 q52 13 116 13 l19 0 q10 -1 18 -2 l5 22 l5 21 l47 -8 l-5 -21 l-6 -22 q44 -13 80 -37 q77 -54 77 -144 q0 -186 -251 -218 l-14 43 q217 27 217 175 q0 70 -65 111 q-24 16 -57 26 q-33 -100 -84 -180 q-100 -151 -232 -151 q-54 0 -84 36 q-30 36 -30 91 q0 103 101 177 q42 33 94 53 q2 69 7 120 l-94 0 q-63 -1 -97 -1 l0 46 l51 0 l49 1 l96 0 q6 47 15 91 l48 -9 q-6 -28 -14 -81 q181 3 326 12 l3 -46 ZM571 319 l-13 0 q-66 0 -115 -14 l0 -8 q0 -125 16 -204 q27 30 51 67 q46 73 74 158 l-13 1 ZM395 288 q-34 -16 -62 -36 q-85 -63 -85 -147 q0 -82 68 -82 q53 0 101 33 q-22 97 -22 232 Z" /><glyph glyph-name="" unicode="&#x3042;" d="M876 643 q-170 -11 -448 -16 q-7 -64 -10 -150 q72 19 160 19 q30 0 58 -3 l15 59 l50 -11 l-7 -29 l-8 -29 q59 -15 108 -50 q104 -72 104 -197 q0 -130 -87 -205 q-82 -70 -237 -91 l-19 46 q140 18 213 81 q77 66 77 169 q0 103 -89 162 q-38 25 -83 37 q-45 -144 -112 -249 q-129 -203 -312 -203 q-71 0 -109 43 q-38 41 -38 118 q0 138 131 241 q60 48 132 75 q2 91 10 166 l-124 0 q-86 -1 -133 -1 l0 50 q49 0 136 1 l126 0 q6 57 20 128 l52 -12 q-12 -56 -18 -115 q271 5 439 15 l3 -49 ZM622 445 q-9 1 -22 2 l-22 0 q-89 0 -161 -22 l0 -21 q0 -165 24 -287 q38 38 75 95 q64 101 106 233 ZM364 405 q-53 -24 -95 -58 q-114 -90 -114 -203 q0 -112 94 -112 q74 0 145 46 q-30 138 -30 326 l0 1 Z" /><glyph glyph-name="" unicode="&#x3043;" d="M700 502 q68 -82 101 -192 q26 -85 35 -217 l-57 -5 q-9 127 -35 210 q-30 100 -89 172 l45 32 ZM282 497 q-14 -84 -14 -196 q0 -127 35 -203 q32 -70 75 -70 q29 0 56 63 q15 38 24 88 l54 -12 q-17 -79 -43 -127 q-37 -66 -89 -66 q-81 0 -126 93 q-43 89 -43 234 q0 113 14 205 l57 -9 Z" /><glyph glyph-name="" unicode="&#x3045;" d="M350 602 q133 -9 311 -51 l-11 -51 q-170 41 -307 50 l7 52 ZM559 427 q91 0 143 -49 q50 -48 50 -133 q0 -97 -74 -169 q-93 -88 -288 -120 l-14 50 q170 28 253 101 q67 61 67 138 q0 61 -35 94 q-36 36 -102 36 q-89 0 -302 -58 l-15 50 q221 60 317 60 Z" /><glyph glyph-name="" unicode="&#x3047;" d="M322 589 q184 -9 338 -46 l-12 -52 q-64 17 -158 28 q-93 14 -172 18 l4 52 ZM673 400 q-132 -134 -184 -183 q35 23 62 23 q38 0 56 -40 q12 -28 15 -89 q0 -47 19 -66 q17 -18 61 -18 q44 0 120 12 l6 -52 q-72 -11 -127 -11 q-65 0 -95 27 q-34 30 -35 98 q-1 44 -6 65 q-10 33 -32 33 q-31 0 -62 -20 q-27 -13 -46 -34 l-176 -183 l-40 35 q77 78 183 189 q110 117 189 197 q-165 -21 -333 -24 l0 51 q216 3 388 26 l10 2 l27 -38 Z" /><glyph glyph-name="" unicode="&#x3049;" d="M694 539 q93 -79 149 -162 l-41 -30 q-53 80 -143 157 l35 35 ZM635 437 l-47 -3 l-47 -3 q-52 -3 -91 -4 l0 -112 q57 12 125 12 q94 0 154 -50 q61 -52 61 -134 q0 -97 -75 -145 q-62 -38 -165 -41 l-13 47 q84 1 134 28 q68 36 68 111 q0 63 -46 101 q-44 37 -118 37 q-67 0 -124 -15 l0 -215 q0 -90 -89 -90 q-68 0 -113 34 q-46 36 -46 96 q0 109 118 175 q37 21 79 35 q-1 29 -1 64 l0 61 l-38 0 l-38 -1 q-26 0 -54 1 q-20 0 -45 1 l-1 48 q58 -2 100 -2 l37 1 l39 0 l0 126 l50 0 q0 -82 1 -124 q35 1 87 4 l47 3 l49 3 l2 -49 ZM400 250 q-24 -8 -42 -19 q-105 -54 -105 -140 q0 -38 33 -62 q30 -21 72 -21 q19 0 31 15 q11 16 11 34 l0 193 Z" /><glyph glyph-name="" unicode="&#x304b;" d="M453 775 q-22 -105 -48 -204 q21 1 63 1 q102 0 154 -63 q50 -61 50 -174 q0 -143 -29 -238 q-48 -145 -160 -145 q-71 0 -149 29 l8 54 q78 -29 140 -29 q80 0 113 134 q20 83 20 195 q0 185 -148 185 l-37 0 q-22 -1 -39 -2 q-91 -324 -221 -568 l-53 25 q126 241 212 538 q-95 -8 -209 -27 l-9 53 q132 23 233 28 q34 132 52 220 l57 -12 ZM761 649 q146 -154 202 -420 l-53 -18 q-27 126 -68 217 q-50 109 -125 187 l44 34 Z" /><glyph glyph-name="" unicode="&#x304d;" d="M813 647 q-151 -21 -293 -33 q31 -61 71 -129 q146 15 288 36 l10 -51 q-115 -17 -268 -34 q75 -116 154 -201 l-35 -40 q-72 38 -146 59 q-84 24 -150 24 q-109 0 -163 -38 q-52 -34 -52 -97 q0 -61 67 -97 q76 -41 223 -41 q103 0 205 16 l4 -51 q-94 -16 -209 -16 q-166 0 -256 49 q-90 50 -90 140 q0 87 65 133 q68 50 204 50 q118 0 248 -65 q-60 57 -130 169 q-212 -17 -449 -19 l0 51 q212 1 419 18 q-36 63 -69 130 q-157 -12 -309 -12 l0 51 q122 0 285 10 l-14 30 l-13 30 l-28 62 l52 22 q38 -90 62 -139 q141 11 308 35 l9 -52 Z" /><glyph glyph-name="" unicode="&#x304f;" d="M756 751 q-88 -89 -215 -195 q-129 -106 -228 -171 q-26 -16 -26 -30 q0 -13 28 -31 q105 -64 246 -169 q141 -106 234 -189 l-42 -46 q-101 91 -239 194 q-139 105 -249 174 q-50 32 -50 68 q0 34 43 61 q98 63 230 172 q144 120 224 202 l44 -40 Z" /><glyph glyph-name="" unicode="&#x3051;" d="M719 771 q16 -168 20 -224 q98 6 185 18 l0 -54 q-86 -12 -181 -18 q5 -88 5 -131 q0 -158 -34 -251 q-48 -124 -176 -190 l-36 47 q113 57 155 164 q32 82 32 228 q0 32 -4 130 q-78 -3 -164 -3 l-89 1 l-89 3 l0 54 q112 -4 178 -4 q82 0 160 3 q-4 71 -19 221 l57 6 ZM217 751 q-41 -195 -41 -452 q0 -185 54 -314 l-54 -20 q-58 137 -58 334 q0 260 43 462 l56 -10 Z" /><glyph glyph-name="" unicode="&#x3053;" d="M221 690 q123 -23 289 -23 q169 0 288 11 l21 -51 q-116 -64 -239 -154 l-33 43 q81 57 176 110 q-76 -12 -213 -12 q-173 0 -296 23 l7 53 ZM308 303 q-90 -102 -90 -155 q0 -134 304 -134 q179 0 322 29 l9 -54 q-143 -29 -331 -29 q-362 0 -362 186 q0 78 104 191 l44 -34 Z" /><glyph glyph-name="" unicode="&#x3055;" d="M907 583 q-156 -24 -298 -35 q6 -9 12 -21 q77 -141 172 -246 l-32 -42 q-165 70 -318 70 q-112 0 -166 -44 q-49 -37 -49 -100 q0 -73 66 -115 q68 -43 195 -43 q135 0 237 16 l7 -53 q-96 -17 -244 -17 q-150 0 -235 56 q-83 56 -83 156 q0 90 69 141 q71 55 201 55 q141 0 265 -56 q-73 83 -144 215 l-6 12 l-7 12 q-145 -9 -293 -9 q-35 0 -74 1 q-28 1 -67 3 l-1 54 q110 -5 142 -5 q123 0 267 8 q-43 87 -78 183 l53 19 q34 -95 85 -198 q156 12 319 36 l5 -53 Z" /><glyph glyph-name="" unicode="&#x3057;" d="M243 768 l59 0 l0 -567 q0 -193 206 -193 q225 0 345 329 l55 -20 q-57 -155 -135 -244 q-108 -122 -265 -122 q-265 0 -265 243 l0 574 Z" /><glyph glyph-name="" unicode="&#x3058;" d="M720 742 q66 -67 106 -135 l-34 -24 q-51 79 -104 134 l32 25 ZM618 676 q60 -62 106 -135 l-34 -24 q-46 75 -104 134 l32 25 ZM243 768 l59 0 l0 -567 q0 -193 206 -193 q225 0 345 329 l55 -20 q-57 -155 -135 -244 q-108 -122 -265 -122 q-265 0 -265 243 l0 574 Z" /><glyph glyph-name="" unicode="&#x3059;" d="M635 796 l3 -141 l282 4 l0 -51 l-280 -4 l0 -19 q3 -236 4 -255 q0 -171 -66 -255 q-63 -79 -232 -142 l-26 50 q117 38 177 91 q64 53 88 152 q-47 -77 -130 -77 q-88 0 -139 53 q-49 50 -49 128 q0 75 47 125 q51 58 141 58 q96 0 138 -82 q-7 60 -7 129 l-1 43 l-494 -7 l0 51 l493 7 l-3 142 l54 0 ZM455 464 q-64 0 -101 -43 q-33 -37 -33 -91 q0 -58 35 -93 q36 -38 99 -38 q58 0 97 39 q36 39 36 90 q0 56 -37 96 q-37 40 -96 40 Z" /><glyph glyph-name="" unicode="&#x305b;" d="M737 771 q5 -114 6 -249 l173 8 l2 -54 l-175 -8 l0 -13 q0 -148 -19 -205 q-27 -72 -105 -72 q-52 0 -116 14 l1 53 q68 -14 114 -14 q49 0 64 81 q6 35 6 142 l0 12 l-368 -16 l-2 -264 q0 -93 54 -135 q50 -39 148 -39 q169 0 303 14 l4 -54 q-151 -13 -307 -13 q-126 0 -189 49 q-70 55 -70 178 l0 106 q1 77 2 156 l-179 -8 l-2 53 l181 8 l2 238 l57 0 l-2 -235 l368 16 q-2 152 -7 250 l56 1 Z" /><glyph glyph-name="" unicode="&#x305d;" d="M783 701 l-390 -255 q187 22 497 49 l5 -52 q-132 -6 -226 -43 q-96 -36 -148 -91 q-55 -55 -55 -121 q0 -80 75 -127 q70 -44 180 -44 q14 0 56 2 q26 3 36 3 l-10 -56 l-25 -1 q-42 -2 -57 -2 q-134 0 -218 54 q-94 60 -94 169 q0 78 67 144 q58 61 161 95 q-307 -34 -532 -63 l-8 51 l197 23 l391 261 l-435 -19 l-3 53 l508 16 l28 -46 Z" /><glyph glyph-name="" unicode="&#x305f;" d="M880 437 q-224 0 -415 -17 l-3 54 q190 17 418 17 l0 -54 ZM598 603 q-103 -14 -251 -22 q-20 -105 -47 -220 q-57 -237 -123 -405 l-55 20 q68 166 123 398 q21 91 43 204 q-65 -2 -200 -4 l-2 54 q50 0 109 1 q40 1 103 3 q15 87 27 172 l57 -8 l-12 -81 l-13 -80 q128 7 232 21 l9 -53 ZM524 222 q-46 -65 -46 -117 q0 -44 59 -66 q58 -23 160 -23 q106 0 194 17 l1 -54 q-86 -16 -195 -16 q-276 0 -276 137 q0 71 54 149 l49 -27 Z" /><glyph glyph-name="" unicode="&#x3061;" d="M877 600 q-210 -14 -473 -18 q-10 -42 -15 -62 q-38 -139 -91 -213 q156 110 323 110 q106 0 173 -58 q69 -60 69 -157 q0 -105 -79 -172 q-91 -73 -264 -73 q-118 0 -206 16 l5 54 q91 -16 201 -16 q147 0 223 59 q63 51 63 132 q0 72 -50 117 q-51 45 -135 45 q-89 0 -181 -34 q-95 -33 -182 -99 l-41 37 q72 99 118 260 l14 53 l-112 0 l-57 -1 l-58 0 l0 54 q43 0 122 1 l116 0 q14 76 22 170 l56 -4 q-10 -94 -22 -165 q281 6 458 19 l3 -55 Z" /><glyph glyph-name="" unicode="&#x3063;" d="M553 485 q109 0 177 -62 q70 -64 70 -161 q0 -137 -99 -203 q-101 -67 -315 -77 l-13 53 q202 9 290 68 q78 54 78 159 q0 72 -52 121 q-52 48 -136 48 q-112 0 -370 -69 l-15 52 q257 71 385 71 Z" /><glyph glyph-name="" unicode="&#x3064;" d="M578 654 q145 0 234 -83 q89 -83 89 -213 q0 -179 -130 -270 q-130 -91 -413 -104 l-14 56 q269 13 388 93 q109 76 109 225 q0 105 -71 171 q-73 69 -192 69 q-148 0 -494 -91 l-16 55 q353 92 510 92 Z" /><glyph glyph-name="" unicode="&#x3066;" d="M889 658 l-174 -8 q-49 -1 -120 -57 q-78 -60 -127 -143 q-59 -94 -59 -190 q0 -114 94 -178 q101 -67 284 -70 l-11 -52 q-210 3 -318 80 q-107 77 -107 217 q0 126 84 238 q73 100 175 152 q-214 -15 -502 -42 l-7 54 q501 44 786 50 l2 -51 Z" /><glyph glyph-name="" unicode="&#x3068;" d="M427 795 q3 -146 21 -227 q11 -56 40 -108 q113 45 293 93 l22 -51 q-254 -68 -382 -132 q-194 -93 -194 -208 q0 -150 312 -150 q122 0 287 18 l6 -56 q-179 -16 -293 -16 q-186 0 -278 49 q-93 51 -93 154 q0 145 212 252 q25 14 55 26 q-32 59 -45 130 q-17 77 -20 225 l57 1 Z" /><glyph glyph-name="" unicode="&#x306a;" d="M645 705 q66 -21 141 -66 q72 -45 126 -93 l-37 -40 q-50 46 -121 88 q-76 44 -130 61 l21 50 ZM534 597 q-109 -7 -196 -11 q-20 -69 -50 -156 q-70 -194 -159 -328 l-47 31 q85 125 155 319 q23 66 42 132 q-110 -2 -174 -2 l0 52 q99 0 189 3 q23 89 38 167 l55 -12 q-11 -57 -34 -153 q93 5 177 12 l4 -54 ZM706 488 q9 -169 12 -287 q107 -46 214 -138 l-36 -41 q-96 80 -173 119 q-4 2 -5 3 l0 -4 q0 -98 -51 -148 q-51 -46 -135 -46 q-85 0 -138 33 q-60 39 -60 110 q0 72 54 114 q48 41 133 41 q70 0 139 -22 q-4 131 -10 262 l56 4 ZM661 168 q-71 25 -140 25 q-63 0 -98 -32 q-33 -30 -33 -72 q0 -43 42 -69 q38 -22 100 -22 q59 0 95 38 q34 40 34 106 l0 26 Z" /><glyph glyph-name="" unicode="&#x306b;" d="M860 602 q-251 0 -460 -16 l-8 54 q231 18 471 18 l-3 -56 ZM486 306 q-51 -87 -51 -143 q0 -59 65 -86 q62 -27 198 -27 q84 0 198 12 l3 -56 q-142 -10 -201 -10 q-165 0 -240 36 q-81 39 -81 129 q0 69 57 171 l52 -26 ZM266 754 q-54 -214 -54 -432 q0 -207 56 -348 l-53 -20 q-60 153 -60 368 q0 228 56 446 l55 -14 Z" /><glyph glyph-name="" unicode="&#x306c;" d="M282 711 q1 -93 17 -188 q2 3 5 3 q114 75 235 87 q7 83 8 154 l55 0 q-2 -79 -9 -152 q136 -3 219 -92 q82 -90 82 -233 q0 -76 -22 -144 q24 -18 95 -82 l-36 -35 q-53 48 -80 70 l-7 -13 q-63 -104 -178 -104 q-67 0 -109 33 q-43 33 -43 90 q0 54 39 87 q41 37 117 37 q77 0 155 -50 q14 53 14 111 q0 123 -66 196 q-69 77 -186 77 q-16 -101 -40 -185 q-95 -373 -330 -373 q-76 0 -113 55 q-29 42 -29 116 q0 107 67 202 q44 63 108 111 q-20 102 -23 221 l55 1 ZM807 132 q-72 48 -137 48 q-50 0 -77 -21 q-27 -21 -27 -54 q0 -34 28 -53 q25 -19 72 -19 q90 0 137 89 l3 5 l2 5 l-1 0 ZM261 432 q-132 -114 -132 -256 q0 -55 21 -87 q24 -33 69 -33 q88 0 156 74 q-64 103 -101 249 q-6 22 -13 53 ZM533 560 q-121 -14 -225 -91 q7 -36 15 -67 q33 -133 87 -227 q34 53 63 131 q40 117 60 254 Z" /><glyph glyph-name="" unicode="&#x306d;" d="M652 633 q128 0 184 -101 q52 -90 52 -267 q0 -62 -14 -118 q53 -37 103 -86 l-37 -37 q-42 40 -83 72 q-8 -18 -20 -38 q-63 -101 -185 -101 q-85 0 -134 37 q-48 36 -48 101 q0 61 46 100 q47 40 127 40 q86 0 181 -55 q8 42 8 85 q0 152 -38 228 q-45 87 -142 87 q-127 0 -282 -139 q-22 -18 -45 -42 q-6 -289 -6 -462 l-56 0 q0 151 6 404 q-80 -84 -168 -202 l-45 35 q120 157 215 249 l4 148 l-178 -12 l-3 53 l182 11 l4 175 l56 0 q-1 -22 -5 -172 l26 -23 l-28 -64 l-2 -63 q2 3 8 7 q173 150 317 150 ZM809 128 q-88 56 -166 56 q-58 0 -88 -27 q-30 -25 -30 -62 q0 -34 22 -55 q33 -31 105 -31 q94 0 142 86 q9 17 15 33 Z" /><glyph glyph-name="" unicode="&#x306e;" d="M522 700 q168 0 275 -106 q105 -102 105 -249 q0 -164 -94 -261 q-89 -89 -273 -128 l-19 52 q179 34 259 125 q71 80 71 212 q0 127 -93 214 q-86 83 -216 88 q-12 -123 -19 -187 q-21 -147 -56 -242 q-66 -192 -176 -192 q-80 0 -135 76 q-51 75 -51 183 q0 171 111 288 q120 127 311 127 ZM286 78 q91 0 148 238 q36 147 48 329 q-131 -10 -221 -100 q-105 -103 -105 -260 q0 -90 38 -148 q36 -59 92 -59 Z" /><glyph glyph-name="" unicode="&#x306f;" d="M917 553 q-74 -9 -169 -15 q8 -197 10 -337 q92 -47 190 -138 l-35 -41 q-86 80 -157 121 q-6 -70 -43 -118 q-53 -67 -154 -67 q-81 0 -133 32 q-62 38 -62 113 q0 73 54 113 q51 39 131 39 q77 0 152 -29 q-1 35 -2 60 q-1 37 -2 72 q-3 89 -7 178 q-42 -1 -68 -1 q-39 -1 -73 -1 q-95 0 -193 5 l-1 55 q96 -6 194 -6 q33 0 71 1 q25 0 68 1 l-9 185 l57 1 q5 -97 9 -183 q96 6 171 15 l1 -55 ZM701 171 q-76 32 -152 32 q-58 0 -91 -24 q-37 -27 -37 -76 q0 -50 47 -74 q36 -17 91 -17 q74 0 110 50 q29 41 32 109 ZM238 759 q-42 -201 -42 -462 q0 -187 54 -321 l-52 -20 q-58 137 -58 341 q0 266 43 472 l55 -10 Z" /><glyph glyph-name="" unicode="&#x3072;" d="M690 730 q37 -110 107 -198 q63 -79 165 -152 l-33 -48 q-131 95 -197 215 q16 -52 26 -116 q10 -70 10 -110 q0 -167 -76 -266 q-85 -106 -243 -106 q-138 0 -220 76 q-83 77 -83 217 q0 92 40 190 q43 107 129 208 q-53 -28 -133 -47 q-77 -16 -143 -16 l0 55 q185 5 319 76 l37 -38 q-110 -139 -155 -254 q-36 -88 -36 -174 q0 -114 65 -176 q67 -62 180 -62 q129 0 198 86 q64 85 64 232 q0 185 -76 387 l55 21 Z" /><glyph glyph-name="" unicode="&#x3075;" d="M284 762 q193 -6 430 -66 l-15 -51 q-223 58 -417 64 l2 53 ZM757 399 q127 -167 180 -355 l-54 -17 q-51 182 -171 340 l45 32 ZM500 564 q-41 -66 -41 -115 q0 -30 66 -90 q63 -57 92 -96 q42 -60 42 -129 q0 -84 -52 -131 q-54 -46 -147 -46 q-95 0 -207 50 l18 51 q107 -48 189 -48 q77 0 113 39 q29 32 29 85 q0 54 -38 107 q-24 33 -75 78 q-86 77 -86 129 q0 58 41 131 l56 -15 ZM281 373 q-45 -216 -178 -352 l-44 34 q122 122 166 330 l56 -12 Z" /><glyph glyph-name="" unicode="&#x3077;" d="M854 826 q42 0 72 -30 q31 -31 31 -73 q0 -42 -31 -73 q-31 -29 -72 -29 q-41 0 -72 29 q-31 30 -31 73 q0 43 31 73 q30 30 72 30 ZM284 762 q193 -6 430 -66 l-15 -51 q-223 58 -417 64 l2 53 ZM757 399 q127 -167 180 -355 l-54 -17 q-51 182 -171 340 l45 32 ZM500 564 q-41 -66 -41 -115 q0 -30 66 -90 q63 -57 92 -96 q42 -60 42 -129 q0 -84 -52 -131 q-54 -46 -147 -46 q-95 0 -207 50 l18 51 q107 -48 189 -48 q77 0 113 39 q29 32 29 85 q0 54 -38 107 q-24 33 -75 78 q-86 77 -86 129 q0 58 41 131 l56 -15 ZM281 373 q-45 -216 -178 -352 l-44 34 q122 122 166 330 l56 -12 ZM854 792 q-31 0 -48 -20 q-20 -19 -20 -49 q0 -29 20 -49 q19 -19 48 -19 q26 0 48 19 q20 22 20 49 q0 29 -20 49 q-20 20 -48 20 Z" /><glyph glyph-name="" unicode="&#x3078;" d="M387 628 q20 0 41 -12 q23 -14 57 -52 q255 -286 468 -483 l-41 -45 q-190 172 -466 484 q-11 13 -22 24 q-3 4 -7 8 l-3 3 l-3 3 q-13 9 -23 9 q-16 0 -37 -27 q-121 -153 -264 -306 l-45 43 q130 136 265 303 q39 48 80 48 Z" /><glyph glyph-name="" unicode="&#x307b;" d="M896 675 q-92 -12 -166 -17 q6 -95 9 -184 q78 6 165 12 l0 -51 q-80 -8 -163 -12 l1 -60 l2 -59 q1 -64 2 -113 q93 -48 188 -137 l-34 -40 q-80 76 -155 119 q-6 -74 -45 -122 q-51 -60 -151 -60 q-84 0 -137 33 q-63 39 -63 111 q0 71 57 113 q50 37 132 37 q78 0 153 -29 l-1 49 l-1 50 q-1 58 -2 105 q-87 -3 -179 -3 q-57 0 -157 2 l0 51 q63 -3 158 -3 q52 0 176 4 l-9 184 q-108 -4 -160 -4 q-47 0 -155 4 l0 51 q110 -4 155 -4 q194 0 380 24 l0 -51 ZM691 160 q-77 34 -153 34 q-60 0 -95 -26 q-39 -25 -39 -73 q0 -48 44 -71 q39 -21 101 -21 q136 0 142 157 ZM228 755 q-43 -188 -43 -417 q0 -233 53 -368 l-51 -21 q-57 147 -57 389 q0 236 43 429 l55 -12 Z" /><glyph glyph-name="" unicode="&#x307e;" d="M866 612 q-170 -6 -322 -9 l1 -44 l2 -41 q1 -50 2 -77 l298 6 l0 -52 l-297 -6 q3 -117 3 -180 q30 -11 67 -27 q124 -54 242 -149 l-35 -44 q-117 92 -224 143 q-28 14 -52 23 q-7 -86 -42 -134 q-52 -67 -166 -67 q-85 0 -136 36 q-56 40 -56 108 q0 70 57 112 q51 39 137 39 q73 0 151 -21 q0 12 -1 30 l0 18 l-1 19 q-1 54 -2 94 l-106 0 q-13 0 -205 4 l-18 1 l-1 52 q21 0 88 -3 q108 -2 136 -2 l105 0 q-1 27 -2 76 l-2 41 l-1 44 l-86 0 q-33 0 -149 2 q-18 0 -37 1 l-28 0 q-28 1 -36 1 l-1 52 q21 0 102 -3 l41 -1 l39 0 q42 -1 69 -1 l85 0 l-4 137 l56 1 l1 -36 l2 -34 q1 -44 2 -67 q61 1 153 4 q31 1 83 3 l44 2 l44 1 l0 -52 ZM497 174 q-79 25 -152 25 q-62 0 -100 -28 q-39 -27 -39 -73 q0 -44 38 -69 q38 -25 99 -25 q83 0 123 52 q28 40 31 118 Z" /><glyph glyph-name="" unicode="&#x307f;" d="M794 571 q-3 -152 -11 -238 q91 -33 173 -70 l-24 -49 q-89 41 -155 65 q-13 -84 -29 -129 q-46 -128 -195 -202 l-36 47 q76 35 117 79 q49 52 70 129 q11 40 18 95 q-131 44 -251 58 l-8 -27 l-8 -26 q-93 -289 -226 -289 q-61 0 -102 46 q-40 47 -40 114 q0 112 75 176 q74 65 207 65 l28 0 q17 -1 30 -2 q33 127 56 267 q-159 -13 -295 -13 l0 54 q183 0 326 14 l30 -19 q-26 -168 -59 -308 q119 -16 243 -56 q8 93 9 221 l57 -2 ZM391 362 l-22 0 q-112 0 -170 -52 q-57 -48 -57 -136 q0 -46 26 -76 q24 -30 61 -30 q97 0 178 271 l6 22 l-22 1 Z" /><glyph glyph-name="" unicode="&#x3080;" d="M694 729 q114 -94 226 -230 l-39 -35 q-120 139 -223 226 l36 39 ZM621 612 q-93 -6 -222 -9 q-2 -44 -2 -56 l-1 -37 l-2 -36 q-2 -43 -2 -67 q-3 -72 -6 -117 q-3 -49 -24 -139 q-6 -30 -6 -59 q0 -83 195 -83 q157 0 233 38 q58 32 58 80 q0 82 -50 196 l48 22 q56 -126 56 -219 q0 -168 -345 -168 q-250 0 -250 131 q0 43 19 90 q-36 -50 -87 -50 q-66 0 -105 44 q-39 45 -39 112 q0 77 40 126 q42 54 116 54 q33 0 60 -23 q28 -21 39 -53 q-3 15 -3 27 q0 78 4 186 l-34 0 q-112 0 -210 3 l1 50 q117 -3 209 -3 l35 0 q3 65 6 149 l54 0 l-5 -148 q122 3 216 9 l4 -50 ZM245 416 q-51 0 -78 -40 q-27 -36 -27 -91 q0 -45 26 -74 q26 -30 67 -30 q44 0 75 34 q27 33 27 81 q0 48 -21 81 q-25 39 -69 39 Z" /><glyph glyph-name="" unicode="&#x3081;" d="M611 775 q-3 -72 -11 -153 q121 -11 202 -78 q104 -87 104 -242 q0 -151 -109 -248 q-99 -85 -264 -111 l-20 51 q154 24 244 100 q94 82 94 208 q0 131 -88 204 q-66 56 -169 65 q-21 -153 -63 -273 q-99 -279 -297 -279 q-66 0 -107 46 q-43 49 -43 135 q0 166 139 293 q16 16 31 27 q-16 92 -19 199 l55 5 q3 -95 14 -169 q108 67 241 69 q8 63 11 156 l55 -5 ZM539 573 q-126 -3 -225 -75 q7 -40 18 -82 q33 -130 87 -227 q37 58 65 143 q38 117 55 241 ZM385 143 q-64 104 -104 250 q-12 44 -16 66 l-6 -6 q-120 -114 -120 -253 q0 -62 29 -97 q27 -32 67 -32 q84 0 150 72 Z" /><glyph glyph-name="" unicode="&#x3082;" d="M757 601 q-109 -4 -346 -8 q-9 -82 -16 -175 l79 3 l82 3 q94 4 171 8 l0 -54 q-75 -4 -169 -8 l-168 -6 q-9 -117 -9 -179 q0 -91 52 -133 q50 -41 156 -41 q98 0 162 23 q88 33 88 111 q0 57 -48 150 l52 24 q53 -109 53 -176 q0 -185 -307 -185 q-131 0 -198 53 q-67 54 -67 174 q0 79 8 178 q-150 -2 -223 -2 l0 53 q107 0 227 3 q5 66 17 175 l-111 0 q-76 -1 -117 -1 l0 53 l61 0 l59 1 l114 0 q5 64 17 155 l57 0 l-17 -154 q233 4 341 8 l0 -53 Z" /><glyph glyph-name="" unicode="&#x3083;" d="M521 595 q27 -49 55 -132 q1 -3 3 -11 q31 4 63 4 q82 0 131 -48 q50 -47 50 -119 q0 -67 -44 -109 q-49 -47 -134 -47 q-58 0 -127 20 l11 49 q63 -19 116 -19 q61 0 95 32 q29 29 29 75 q0 49 -34 81 q-33 32 -92 32 q-22 0 -49 -3 q12 -46 17 -83 l-54 -8 q-5 35 -17 83 q-48 -7 -109 -24 l-20 -5 l-20 -6 l12 -44 l5 -23 l6 -24 q25 -112 57 -290 l-52 -10 q-40 224 -79 376 q-74 -22 -156 -55 l-23 48 q92 37 165 58 q-25 90 -51 156 l49 20 q29 -76 53 -161 q22 7 38 11 q57 16 110 25 l0 2 l-1 2 q-23 73 -52 123 l49 24 Z" /><glyph glyph-name="" unicode="&#x3085;" d="M288 536 q-14 -55 -25 -135 q-9 -63 -9 -102 l0 -19 q0 -13 1 -25 q39 112 111 178 q66 63 154 72 l-5 35 l-6 36 l54 10 l12 -79 q98 -4 159 -59 q66 -60 66 -161 q0 -100 -64 -159 q-65 -58 -182 -61 q-42 -79 -139 -132 l-31 45 q75 40 111 95 q-31 11 -54 23 q-59 31 -101 73 l38 39 q66 -69 141 -84 q20 62 20 152 q0 75 -12 177 q-92 -9 -158 -78 q-72 -72 -109 -206 q6 -35 19 -93 l-53 -11 q-26 101 -26 196 q0 143 35 287 l53 -14 ZM582 455 q12 -100 12 -177 q0 -91 -18 -156 q71 4 117 41 q52 44 52 124 q0 82 -51 127 q-41 35 -112 41 Z" /><glyph glyph-name="" unicode="&#x3087;" d="M722 380 l-194 -14 q6 -102 10 -200 q24 -9 52 -23 q103 -50 173 -110 l-37 -38 q-67 60 -160 103 l-14 7 l-14 6 q-5 -64 -33 -104 q-42 -56 -129 -56 q-66 0 -109 32 q-45 35 -45 90 q0 52 40 85 q45 39 130 39 q43 0 91 -13 q-5 119 -24 382 l55 0 l11 -148 l196 14 l1 -52 ZM484 131 q-50 17 -92 17 q-61 0 -90 -25 q-24 -19 -24 -50 q0 -30 25 -51 q28 -20 73 -20 q107 0 108 129 Z" /><glyph glyph-name="" unicode="&#x308e;" d="M608 464 q104 0 164 -69 q56 -64 56 -157 q0 -111 -81 -179 q-76 -64 -213 -80 l-18 50 q118 12 185 64 q72 56 72 145 q0 76 -42 124 q-44 50 -123 50 q-90 0 -186 -71 q-27 -19 -45 -35 q-4 -160 -4 -337 l-54 0 q0 139 3 286 q-61 -60 -128 -138 l-43 36 q103 114 173 175 q0 51 3 102 l-134 -8 l-3 53 l139 6 l3 126 l54 -1 q-1 -9 -4 -123 l22 -17 l-24 -56 q-1 -12 -1 -36 l1 0 q117 90 228 90 Z" /><glyph glyph-name="" unicode="&#x3090;" d="M560 723 q-10 -94 -31 -208 q33 3 67 3 q144 0 228 -74 q84 -73 84 -195 q0 -141 -62 -218 q-64 -79 -183 -79 q-69 0 -112 32 q-44 32 -44 91 q0 58 45 92 q44 36 115 36 q80 0 173 -63 q12 48 12 109 q0 98 -68 157 q-68 59 -188 59 q-47 0 -78 -5 q-21 -99 -48 -182 q-98 -301 -246 -301 q-64 0 -100 45 q-32 41 -32 109 q0 170 168 284 q98 67 212 91 q17 87 27 180 q-146 -11 -296 -11 l0 53 q202 0 330 14 l27 -19 ZM822 91 q-84 62 -155 62 q-50 0 -77 -23 q-28 -21 -28 -55 q0 -33 28 -54 q26 -18 73 -18 q112 0 159 88 ZM460 448 q-86 -21 -161 -72 q-151 -99 -151 -245 q0 -47 18 -74 q21 -27 58 -27 q110 0 192 255 q25 82 44 163 Z" /><glyph glyph-name="" unicode="&#x3091;" d="M696 707 q-141 -76 -369 -194 q144 60 262 60 q112 0 180 -49 q68 -48 68 -130 q0 -86 -92 -136 q-91 -50 -248 -50 q-21 0 -53 2 q-23 -19 -100 -76 q56 31 85 31 q45 0 69 -51 q19 -37 23 -98 q36 88 89 129 q46 40 98 40 q79 0 131 -62 q40 -46 83 -162 l-50 -19 q-36 104 -73 149 q-37 45 -91 45 q-49 0 -89 -41 q-49 -48 -91 -155 l-51 12 q4 18 4 24 q0 147 -63 147 q-90 0 -308 -166 l-34 42 l201 137 q68 48 111 81 l-22 6 l-20 5 q-93 30 -93 97 q0 46 42 76 q39 29 105 29 q60 0 98 -25 q37 -26 37 -66 q0 -36 -46 -87 l10 0 q128 0 209 43 q74 41 74 99 q0 57 -49 94 q-53 38 -147 38 q-106 0 -240 -39 q-127 -36 -206 -86 l-27 41 q245 143 484 264 l-386 -12 l-1 50 l459 9 l27 -46 ZM431 256 q53 53 53 83 q0 18 -20 32 q-23 16 -65 16 q-45 0 -69 -20 q-27 -18 -27 -42 q0 -42 79 -61 q29 -6 49 -8 Z" /><glyph glyph-name="" unicode="&#x3092;" d="M805 630 q-141 -16 -384 -19 q-64 -117 -133 -192 q89 76 182 76 q71 0 110 -55 q10 -15 20 -40 q94 36 240 74 l16 -52 q-147 -38 -244 -74 q3 -24 3 -51 l0 -172 l-54 0 l0 165 q0 15 -2 37 q-30 -12 -54 -24 q-180 -85 -180 -180 q0 -62 69 -89 q60 -22 172 -22 q129 0 250 21 l5 -53 q-128 -20 -255 -20 q-140 0 -212 33 q-85 40 -85 130 q0 119 185 214 q41 22 95 43 q-22 68 -87 68 q-134 0 -293 -184 l-40 35 q120 132 184 233 q32 52 47 79 q-21 0 -93 1 l-123 0 l0 52 q163 0 239 -1 l4 0 q33 70 58 133 l51 -20 q-10 -25 -24 -58 l-13 -28 l-12 -27 q235 3 354 17 l4 -50 Z" /><glyph glyph-name="" unicode="&#x3093;" d="M450 744 q-108 -251 -176 -419 q35 54 73 82 q44 37 93 37 q62 0 94 -50 q26 -43 26 -107 q0 -6 -1 -32 l-1 -13 l-1 -15 q0 -19 -1 -36 q-2 -35 -3 -62 q-1 -22 -1 -30 q0 -45 29 -71 q30 -27 76 -27 q74 0 119 74 q48 81 78 272 l56 -12 q-33 -201 -89 -291 q-60 -96 -164 -96 q-70 0 -116 41 q-45 42 -45 110 q0 8 1 30 q1 27 3 62 q1 17 1 36 l1 15 l1 13 q1 26 1 32 q0 105 -70 105 q-60 0 -126 -75 q-58 -64 -86 -143 l-79 -216 l-56 16 q170 471 308 792 l55 -22 Z" /><glyph glyph-name="" unicode="&#x309e;" d="M709 703 q65 -66 106 -134 l-34 -25 q-48 79 -103 134 l31 25 ZM612 632 q62 -63 105 -135 l-33 -24 q-46 75 -104 134 l32 25 ZM344 657 q57 -159 143 -260 q97 -114 245 -168 l-1 -54 q-222 -61 -442 -130 l-22 53 q139 46 384 110 q-136 57 -227 174 q-80 101 -134 254 l54 21 Z" /><glyph glyph-name="" unicode="&#x30a1;" d="M228 530 l539 0 l32 -27 q-76 -154 -215 -267 l-38 37 q113 92 176 205 l-494 0 l0 52 ZM464 391 l57 0 l0 -97 q0 -245 -202 -348 l-35 45 q98 52 139 128 q41 73 41 175 l0 97 Z" /><glyph glyph-name="" unicode="&#x30a3;" d="M737 552 q-90 -94 -205 -179 l0 -410 l-57 0 l0 369 q-130 -89 -261 -145 l-31 49 q137 60 282 162 q137 98 227 194 l45 -40 Z" /><glyph glyph-name="" unicode="&#x30a5;" d="M466 593 l57 0 l0 -130 l209 0 l34 -19 q-10 -187 -89 -302 q-81 -114 -255 -186 l-33 48 q155 61 232 159 q73 95 85 246 l-414 0 l0 -176 l-57 0 l0 230 l231 0 l0 130 Z" /><glyph glyph-name="" unicode="&#x30a7;" d="M251 482 l499 0 l0 -53 l-221 0 l0 -379 l272 0 l0 -52 l-601 0 l0 52 l272 0 l0 379 l-221 0 l0 53 Z" /><glyph glyph-name="" unicode="&#x30a9;" d="M574 587 l54 0 l0 -137 l173 0 l0 -53 l-173 0 l0 -351 q0 -82 -85 -82 q-3 0 -99 7 l0 52 q64 -8 97 -8 q33 0 33 37 l0 299 q-24 -59 -131 -168 q-107 -106 -196 -161 l-36 43 q101 64 196 155 q93 90 149 177 l-328 0 l0 53 l346 0 l0 137 Z" /><glyph glyph-name="" unicode="&#x30ab;" d="M172 593 l300 0 q4 62 8 192 l57 0 q-1 -108 -6 -192 l328 0 l-14 -358 q-6 -146 -42 -209 q-42 -65 -136 -65 q-53 0 -122 11 l0 55 q65 -12 121 -12 q60 0 90 54 q28 52 34 172 l10 297 l-273 0 q-6 -66 -12 -109 q-25 -158 -95 -267 q-78 -117 -234 -207 l-38 45 q125 73 194 162 q69 90 99 217 q17 64 26 159 l-295 0 l0 55 Z" /><glyph glyph-name="" unicode="&#x30ad;" d="M823 576 l-324 -39 l28 -214 l370 44 l7 -55 l-370 -44 l40 -312 l-57 -8 l-40 313 l-373 -44 l-8 54 l374 45 l-28 214 l-317 -39 l-7 55 l317 38 l-26 200 l57 8 l26 -201 l323 39 l8 -54 Z" /><glyph glyph-name="" unicode="&#x30af;" d="M479 772 q-20 -60 -51 -122 l355 0 l38 -20 q-41 -240 -176 -418 q-140 -181 -361 -269 l-32 51 q196 78 325 229 q134 158 176 372 l-354 0 q-16 -28 -45 -71 q-83 -117 -188 -203 l-41 40 q103 83 183 199 q80 119 116 230 l55 -18 Z" /><glyph glyph-name="" unicode="&#x30b1;" d="M288 536 l-6 -10 q-88 -136 -186 -211 l-41 42 q95 73 178 204 q72 117 112 240 l57 -17 q-30 -98 -82 -193 l579 0 l0 -55 l-273 0 q-16 -207 -93 -345 q-90 -156 -273 -249 l-38 47 q175 88 260 238 q69 126 84 309 l-278 0 Z" /><glyph glyph-name="" unicode="&#x30b3;" d="M160 650 l669 0 l0 -643 l-681 0 l0 55 l621 0 l0 533 l-609 0 l0 55 Z" /><glyph glyph-name="" unicode="&#x30b5;" d="M74 575 l196 0 l0 209 l59 0 l0 -209 l342 0 l0 221 l58 0 l0 -221 l197 0 l0 -55 l-197 0 l0 -131 q0 -168 -75 -276 q-76 -107 -238 -170 l-31 50 q152 57 220 152 q66 93 66 246 l0 129 l-342 0 l0 -245 l-59 0 l0 245 l-196 0 l0 55 Z" /><glyph glyph-name="" unicode="&#x30b7;" d="M229 750 q162 -44 281 -122 l-33 -46 q-108 70 -272 114 l24 54 ZM883 526 q-87 -203 -255 -356 q-183 -165 -421 -227 l-28 55 q222 56 404 214 q163 146 245 336 l55 -22 ZM141 515 q143 -37 280 -113 l-30 -50 q-126 71 -273 111 l23 52 Z" /><glyph glyph-name="" unicode="&#x30b9;" d="M521 257 l-3 -4 q-157 -181 -396 -302 l-36 48 q419 204 594 639 l-494 0 l0 55 l533 0 l38 -27 q-83 -211 -196 -360 q89 -61 178 -135 q114 -92 190 -178 l-46 -39 q-63 72 -183 172 q-97 83 -176 134 l-3 -3 Z" /><glyph glyph-name="" unicode="&#x30bb;" d="M389 783 l-1 -70 l-2 -68 q-1 -75 -2 -130 l475 69 l41 -30 q-121 -214 -276 -344 l-38 43 q129 109 228 272 l-431 -65 q-1 -84 -2 -179 l0 -158 q0 -63 42 -86 q41 -23 164 -23 q124 0 286 18 l0 -56 q-179 -16 -286 -16 q-153 0 -206 28 q-59 32 -59 132 l0 156 q1 93 2 175 l-214 -32 l-9 54 l224 33 q0 81 4 277 l60 0 Z" /><glyph glyph-name="" unicode="&#x30bd;" d="M873 726 q-48 -265 -191 -467 q-157 -219 -398 -309 l-33 52 q230 87 378 288 q138 189 186 448 l58 -12 ZM181 719 q61 -74 119 -166 q65 -103 92 -175 l-55 -26 q-29 73 -88 169 q-62 96 -116 161 l48 37 Z" /><glyph glyph-name="" unicode="&#x30bf;" d="M479 774 q-17 -54 -45 -112 l355 0 l38 -21 q-39 -234 -176 -418 q-145 -189 -368 -280 l-31 51 q203 82 338 247 l7 8 l6 8 q-35 27 -101 70 q-87 57 -150 87 l34 43 q64 -33 149 -86 q57 -36 101 -68 q92 139 125 304 l-356 0 q-32 -52 -55 -86 q-86 -119 -184 -200 l-41 40 q104 85 183 200 q80 118 116 231 l55 -18 Z" /><glyph glyph-name="" unicode="&#x30c1;" d="M785 718 q-110 -45 -242 -75 l0 -218 l360 0 l0 -55 l-360 0 q0 -143 -71 -256 q-69 -105 -192 -171 l-38 47 q111 62 174 153 q68 101 68 227 l-374 0 l0 55 l374 0 l0 206 q-133 -25 -297 -37 l-13 53 q161 12 310 43 q156 33 271 79 l30 -51 Z" /><glyph glyph-name="" unicode="&#x30c3;" d="M424 552 q36 -56 66 -104 q33 -53 56 -101 l-48 -28 q-46 87 -121 206 l47 27 ZM798 515 q-37 -213 -135 -348 q-104 -140 -285 -215 l-33 47 q172 73 268 198 q92 125 127 328 l58 -10 ZM249 491 q73 -108 121 -204 l-49 -28 q-55 105 -120 203 l48 29 Z" /><glyph glyph-name="" unicode="&#x30c4;" d="M400 738 q71 -107 149 -259 l-52 -31 q-22 41 -41 78 q-15 28 -28 52 q-40 71 -79 130 l51 30 ZM883 695 q-48 -268 -166 -447 q-138 -209 -377 -305 l-37 52 q227 93 359 286 q113 167 160 424 l61 -10 ZM168 660 q72 -108 150 -261 l-53 -30 q-47 91 -68 128 q-38 67 -80 131 l51 32 Z" /><glyph glyph-name="" unicode="&#x30c5;" d="M883 850 q65 -66 106 -134 l-34 -25 q-51 81 -104 134 l32 25 ZM755 832 q58 -60 106 -136 l-34 -23 q-45 72 -104 133 l32 26 ZM400 738 q71 -105 149 -259 l-52 -31 q-16 32 -39 73 l-8 16 l-8 15 q-9 16 -15 27 q-42 72 -78 129 l51 30 ZM874 652 q-51 -251 -168 -419 q-138 -197 -366 -290 l-37 52 q219 89 348 270 q111 159 162 395 l61 -8 ZM168 660 q69 -103 150 -261 l-53 -30 q-54 104 -68 129 q-42 75 -80 130 l51 32 Z" /><glyph glyph-name="" unicode="&#x30c6;" d="M177 718 l609 0 l0 -55 l-609 0 l0 55 ZM90 466 l808 0 l0 -55 l-363 0 q-6 -167 -60 -271 q-62 -116 -218 -205 l-38 45 q142 78 203 188 q49 92 55 243 l-387 0 l0 55 Z" /><glyph glyph-name="" unicode="&#x30c8;" d="M400 780 l59 0 l0 -324 q107 -18 238 -62 q122 -39 219 -87 l-26 -49 q-93 44 -205 81 q-116 40 -226 59 l0 -460 l-59 0 l0 842 Z" /><glyph glyph-name="" unicode="&#x30ca;" d="M90 517 l394 0 l0 267 l59 0 l0 -267 l367 0 l0 -55 l-367 0 l0 -50 q0 -173 -59 -288 q-62 -118 -197 -190 l-38 50 q128 65 185 179 q50 103 50 249 l0 50 l-394 0 l0 55 Z" /><glyph glyph-name="" unicode="&#x30cb;" d="M177 650 l646 0 l0 -55 l-646 0 l0 55 ZM108 62 l784 0 l0 -55 l-784 0 l0 55 Z" /><glyph glyph-name="" unicode="&#x30cc;" d="M344 494 q108 -55 236 -153 q98 135 172 308 l-530 0 l0 55 l569 0 l38 -30 q-88 -215 -202 -369 q134 -108 225 -208 l-44 -39 q-91 101 -216 201 q-3 -2 -7 -8 q-165 -200 -397 -308 l-36 48 q215 101 366 273 q18 22 27 32 q-124 94 -230 149 l29 49 Z" /><glyph glyph-name="" unicode="&#x30cd;" d="M472 799 l60 0 l0 -138 l245 0 l41 -32 q-105 -175 -286 -314 l0 -369 l-60 0 l0 325 q-144 -98 -326 -176 l-27 50 q192 80 348 194 q170 125 267 268 l-566 0 l0 54 l304 0 l0 138 ZM620 327 q62 -30 162 -90 q91 -56 157 -100 l-37 -47 q-58 41 -156 101 q-101 61 -158 89 l32 47 Z" /><glyph glyph-name="" unicode="&#x30ce;" d="M806 737 q-74 -284 -193 -462 q-142 -211 -387 -339 l-38 47 q237 124 376 326 q114 167 187 443 l55 -15 Z" /><glyph glyph-name="" unicode="&#x30cf;" d="M630 701 q93 -139 176 -334 q87 -202 129 -378 l-58 -13 q-41 172 -126 371 q-85 195 -171 326 l50 28 ZM361 672 q-17 -197 -76 -372 q-65 -185 -169 -326 l-55 28 q104 137 167 314 q59 170 74 363 l59 -7 Z" /><glyph glyph-name="" unicode="&#x30d2;" d="M825 551 q-222 -121 -545 -212 q-1 -54 -1 -167 q0 -74 43 -101 q54 -34 216 -34 q154 0 311 19 l-1 -57 q-211 -16 -306 -16 q-195 0 -259 38 q-62 37 -62 148 q0 361 4 585 l58 0 q-3 -169 -3 -357 q294 80 513 200 l32 -46 Z" /><glyph glyph-name="" unicode="&#x30d5;" d="M116 681 l677 0 l34 -26 q-57 -244 -194 -424 q-143 -188 -364 -291 l-38 47 q199 93 330 250 q139 166 197 389 l-642 0 l0 55 Z" /><glyph glyph-name="" unicode="&#x30d8;" d="M387 628 q20 0 41 -12 q23 -14 57 -52 q254 -285 468 -483 l-41 -45 q-202 183 -463 481 q-28 33 -39 41 q-12 9 -22 9 q-16 0 -37 -27 q-120 -150 -264 -306 l-45 43 q138 144 265 303 q39 48 80 48 Z" /><glyph glyph-name="" unicode="&#x30db;" d="M471 776 l60 0 l0 -185 l379 0 l0 -55 l-379 0 l0 -481 q0 -48 -22 -76 q-26 -29 -83 -29 q-18 0 -108 10 l0 57 q87 -10 105 -10 q48 0 48 52 l0 477 l-376 0 l0 55 l376 0 l0 185 ZM703 407 q59 -68 122 -173 q57 -96 97 -192 l-54 -23 q-41 94 -96 187 q-57 96 -117 169 l48 32 ZM323 387 q-73 -212 -198 -367 l-50 31 q121 150 194 355 l54 -19 Z" /><glyph glyph-name="" unicode="&#x30de;" d="M102 702 l759 0 l34 -34 q-60 -112 -167 -252 q-97 -125 -192 -217 q116 -108 218 -227 l-47 -38 q-99 115 -235 241 q-136 126 -245 199 l37 45 q108 -73 228 -180 q94 91 172 191 q88 111 150 217 l-712 0 l0 55 Z" /><glyph glyph-name="" unicode="&#x30df;" d="M208 754 q303 -31 610 -95 l-16 -59 q-305 66 -604 96 l10 58 ZM243 467 q236 -32 533 -109 l-15 -58 q-289 78 -529 110 l11 57 ZM165 141 q343 -35 679 -145 l-19 -57 q-321 110 -669 144 l9 58 Z" /><glyph glyph-name="" unicode="&#x30e0;" d="M633 415 q122 -154 279 -458 l-53 -28 q-13 26 -33 63 l-15 28 l-15 28 q-263 -41 -713 -61 l-1 55 l94 4 q115 327 270 733 l56 -19 q-127 -330 -262 -711 q318 18 528 49 q-15 28 -36 64 q-78 133 -146 218 l47 35 Z" /><glyph glyph-name="" unicode="&#x30e1;" d="M255 574 q167 -74 309 -167 q77 151 133 354 l60 -14 q-60 -218 -143 -374 q152 -107 292 -247 l-42 -42 q-141 138 -279 237 l-13 -21 l-14 -22 q-143 -213 -379 -329 l-38 48 q231 113 366 313 q18 30 28 45 q-138 92 -307 167 l27 52 Z" /><glyph glyph-name="" unicode="&#x30e2;" d="M145 717 l674 0 l0 -55 l-357 0 l0 -231 l405 0 l0 -55 l-405 0 l0 -260 q0 -95 125 -95 q133 0 271 12 l0 -57 q-152 -10 -273 -10 q-98 0 -141 32 q-41 32 -41 110 l0 268 l-296 0 l0 55 l296 0 l0 231 l-258 0 l0 55 Z" /><glyph glyph-name="" unicode="&#x30e3;" d="M815 415 q-83 -150 -197 -250 l-40 41 q93 87 154 180 l-286 -52 l71 -366 l-56 -10 l-72 366 l-193 -34 l-11 54 l193 34 l-38 193 l57 11 l38 -194 l340 59 l40 -32 Z" /><glyph glyph-name="" unicode="&#x30e5;" d="M262 488 l442 0 l-32 -435 l143 0 l0 -54 l-630 0 l0 54 l430 0 l27 381 l-380 0 l0 54 Z" /><glyph glyph-name="" unicode="&#x30e7;" d="M257 507 l496 0 l0 -513 l-506 0 l0 54 l448 0 l0 180 l-425 0 l0 54 l425 0 l0 171 l-438 0 l0 54 Z" /><glyph glyph-name="" unicode="&#x30ee;" d="M234 528 l496 0 l36 -19 q-12 -437 -346 -563 l-34 47 q301 112 321 482 l-416 0 l0 -185 l-57 0 l0 238 Z" /><glyph glyph-name="" unicode="&#x30f0;" d="M602 779 l59 0 l0 -152 l220 0 l0 -55 l-220 0 l0 -367 l256 0 l0 -55 l-256 0 l0 -216 l-59 0 l0 216 l-532 0 l0 55 l219 0 l0 367 l-172 0 l0 55 l485 0 l0 152 ZM348 572 l0 -367 l254 0 l0 367 l-254 0 Z" /><glyph glyph-name="" unicode="&#x30f1;" d="M140 696 l712 0 l34 -30 q-101 -205 -291 -350 l-39 42 q163 125 250 282 l-666 0 l0 56 ZM466 504 l60 0 l0 -430 l396 0 l0 -55 l-843 0 l0 55 l387 0 l0 430 Z" /><glyph glyph-name="" unicode="&#x30f2;" d="M206 452 l542 0 q25 95 31 210 l-611 0 l0 55 l632 0 l38 -21 q-7 -261 -104 -445 q-115 -214 -348 -310 l-34 50 q203 83 312 262 q39 64 67 144 l-525 0 l0 55 Z" /><glyph glyph-name="" unicode="&#x30f3;" d="M156 733 q107 -55 282 -187 l-37 -46 q-162 122 -275 183 l30 50 ZM887 537 q-99 -224 -263 -373 q-178 -160 -422 -224 l-28 54 q230 60 402 209 q164 146 256 356 l55 -22 Z" /><glyph glyph-name="" unicode="&#x30f4;" d="M881 839 q65 -66 106 -134 l-33 -25 q-51 81 -104 134 l31 25 ZM778 788 q60 -60 106 -136 l-34 -23 q-45 72 -104 133 l32 26 ZM463 792 l58 0 l0 -183 l284 0 l40 -24 q-11 -232 -111 -386 q-111 -170 -338 -258 l-32 49 q211 81 316 237 q89 134 103 327 l-568 0 l0 -241 l-59 0 l0 296 l307 0 l0 183 Z" /><glyph glyph-name="" unicode="&#x30f5;" d="M252 450 l220 0 q5 63 6 141 l57 0 q-1 -78 -6 -141 l246 0 l-11 -275 q-4 -107 -32 -154 q-33 -50 -108 -50 q-40 0 -91 7 l0 53 q51 -7 90 -7 q43 0 61 32 q20 34 25 130 l8 211 l-192 0 q-9 -84 -22 -131 q-24 -94 -74 -163 q-57 -75 -158 -136 l-41 43 q98 57 153 130 q45 63 66 148 q11 39 19 109 l-216 0 l0 53 Z" /><glyph glyph-name="" unicode="&#x30f6;" d="M342 397 q-67 -105 -146 -165 l-41 41 q76 61 135 151 q55 89 86 181 l55 -17 q-22 -66 -58 -138 l423 0 l0 -53 l-196 0 q-15 -134 -66 -233 q-68 -132 -214 -208 l-38 44 q133 69 196 178 q50 87 64 219 l-200 0 Z" /><glyph glyph-name="" unicode="&#x3105;" d="M310 784 l-65 -219 l591 0 q-29 -217 -68 -419 q-19 -93 -57 -141 q-49 -60 -139 -60 q-78 0 -216 30 l4 53 q141 -30 209 -30 q61 0 97 42 q29 34 47 114 q27 124 61 359 l-605 0 l84 281 l57 -10 Z" /><glyph glyph-name="" unicode="&#x3106;" d="M318 788 l-57 -181 l540 0 l0 -53 q-54 -196 -207 -352 q113 -86 250 -214 l-40 -41 q-124 118 -251 217 q-159 -141 -376 -222 l-21 51 q209 78 353 204 q-146 108 -291 179 l27 46 q146 -70 305 -187 q139 139 193 320 l-558 0 l76 241 l57 -8 Z" /><glyph glyph-name="" unicode="&#x3107;" d="M778 722 q28 0 43 -16 q15 -16 15 -46 l0 -674 l-55 0 l0 645 q0 39 -36 39 l-490 0 q-36 0 -36 -39 l0 -645 l-55 0 l0 674 q0 30 15 45 q14 17 45 17 l554 0 Z" /><glyph glyph-name="" unicode="&#x3108;" d="M162 696 l677 0 l0 -52 l-621 0 l0 -487 q0 -52 21 -75 q22 -22 73 -22 l527 0 l0 -52 l-543 0 q-134 0 -134 139 l0 549 Z" /><glyph glyph-name="" unicode="&#x3109;" d="M322 724 l-57 -187 l586 0 q-10 -229 -36 -409 q-12 -77 -42 -118 q-40 -54 -119 -54 q-61 0 -164 23 l5 52 q105 -21 151 -21 q51 0 78 32 q22 28 32 84 q26 150 36 359 l-285 0 q-30 -124 -115 -272 q-96 -163 -204 -243 l-35 40 q100 75 191 227 q77 133 106 248 l-261 0 l76 246 l57 -7 Z" /><glyph glyph-name="" unicode="&#x310a;" d="M132 549 l301 0 q31 96 49 196 l55 -8 q-15 -91 -45 -188 l376 0 l0 -52 l-394 0 q-22 -61 -48 -119 q-74 -162 -184 -323 l484 58 q-40 78 -96 169 l44 29 q117 -188 176 -330 l-51 -23 q-30 67 -49 107 l-560 -68 l-22 46 q164 230 247 454 l-283 0 l0 52 Z" /><glyph glyph-name="" unicode="&#x310b;" d="M206 746 l399 0 l-99 -279 l285 0 q-15 -180 -36 -303 q-17 -90 -44 -136 q-41 -65 -113 -65 q-75 0 -200 30 l5 53 q119 -30 184 -30 q50 0 77 41 q20 30 35 103 q19 111 32 255 l-300 0 l100 279 l-325 0 l0 52 Z" /><glyph glyph-name="" unicode="&#x310d;" d="M792 751 q-82 -210 -198 -399 q122 -170 227 -380 l-49 -29 q-118 239 -242 407 q129 215 212 422 l50 -21 ZM439 751 q-84 -210 -198 -399 q120 -169 226 -380 l-49 -29 q-120 242 -241 407 q126 211 211 423 l51 -22 Z" /><glyph glyph-name="" unicode="&#x310e;" d="M159 727 l682 0 l0 -52 l-403 0 l-72 -238 l388 0 q-7 -178 -20 -312 q-15 -153 -146 -153 q-86 0 -172 18 l5 53 q98 -19 160 -19 q86 0 98 106 q15 129 18 255 l-404 0 l89 290 l-223 0 l0 52 Z" /><glyph glyph-name="" unicode="&#x310f;" d="M259 728 l594 0 l0 -52 l-538 0 l0 -267 q0 -140 -25 -248 q-32 -123 -103 -205 l-42 37 q65 77 92 188 q22 96 22 228 l0 319 Z" /><glyph glyph-name="" unicode="&#x3110;" d="M699 729 l55 0 l0 -770 l-55 0 l0 337 l-338 -101 q-59 -17 -72 -17 q-43 0 -43 51 l0 468 l57 0 l0 -429 q0 -27 20 -27 q7 0 78 20 l298 88 l0 380 Z" /><glyph glyph-name="" unicode="&#x3111;" d="M660 754 q-120 -214 -292 -386 q199 -187 333 -391 l-46 -31 q-142 217 -358 421 q207 216 314 412 l49 -25 Z" /><glyph glyph-name="" unicode="&#x3112;" d="M159 728 l682 0 l0 -52 l-313 0 l0 -708 l-56 0 l0 708 l-313 0 l0 52 Z" /><glyph glyph-name="" unicode="&#x3113;" d="M472 741 l56 0 l0 -432 l219 0 q28 0 28 28 l0 339 l56 0 l0 -368 q0 -51 -54 -51 l-249 0 l0 -239 l338 0 l0 -52 l-732 0 l0 52 l338 0 l0 239 l-249 0 q-54 0 -54 51 l0 368 l56 0 l0 -339 q0 -28 28 -28 l219 0 l0 432 Z" /><glyph glyph-name="" unicode="&#x3114;" d="M631 741 q-69 -71 -179 -150 q-123 -87 -225 -129 l-15 52 q93 39 211 122 q102 74 169 141 l39 -36 ZM824 613 q-110 -128 -263 -246 l0 -412 l-55 0 l0 371 q-156 -112 -323 -187 l-10 53 q168 78 332 200 q166 125 279 257 l40 -36 Z" /><glyph glyph-name="" unicode="&#x3115;" d="M241 737 l557 0 q51 0 51 -51 l0 -262 q0 -51 -51 -51 l-467 0 q-6 -131 -47 -248 q-41 -112 -104 -170 l-38 45 q71 68 107 202 q26 101 29 224 l488 0 q27 0 27 26 l0 206 q0 27 -27 27 l-525 0 l0 52 Z" /><glyph glyph-name="" unicode="&#x3116;" d="M758 732 q31 0 49 -18 q18 -18 18 -53 l0 -627 q0 -35 -18 -53 q-18 -18 -49 -18 l-516 0 q-31 0 -49 18 q-18 18 -18 53 l0 627 q0 35 18 53 q18 18 49 18 l516 0 ZM275 680 q-44 0 -44 -47 l0 -571 q0 -47 44 -47 l450 0 q44 0 44 47 l0 571 q0 47 -44 47 l-450 0 ZM414 503 q125 -137 214 -277 l-44 -30 q-82 129 -210 271 l40 36 Z" /><glyph glyph-name="" unicode="&#x3117;" d="M168 726 l663 0 l-10 -323 q-8 -239 -140 -239 q-43 0 -123 16 l0 54 q74 -16 111 -16 q44 0 69 42 q25 47 28 143 l9 271 l-323 0 l0 -709 l-56 0 l0 709 l-228 0 l0 52 Z" /><glyph glyph-name="" unicode="&#x3118;" d="M138 629 l254 0 l19 79 l19 79 l53 -7 q-17 -82 -34 -151 l414 0 l0 -53 l-428 0 q-31 -116 -64 -223 l395 0 q-26 -116 -75 -220 q-53 -110 -128 -192 l-46 33 q59 67 106 152 q45 85 70 174 l-397 0 q39 124 82 276 l-240 0 l0 53 Z" /><glyph glyph-name="" unicode="&#x3119;" d="M500 718 q-47 -174 -118 -346 q-78 -186 -157 -314 l509 60 q-54 106 -102 185 l44 29 q85 -135 181 -343 l-50 -23 q-24 54 -48 102 l-582 -69 l-24 45 q90 140 171 333 q77 185 122 353 l54 -12 Z" /><glyph glyph-name="" unicode="&#x311a;" d="M188 749 q132 -126 303 -336 q156 160 323 324 l37 -35 l-334 -338 l0 -398 l-56 0 l0 398 q-174 218 -311 346 l38 39 Z" /><glyph glyph-name="" unicode="&#x311b;" d="M146 704 l709 0 l0 -52 l-315 0 l0 -252 l-26 -24 q-25 11 -70 11 q-83 0 -132 -53 q-47 -48 -47 -122 q0 -79 54 -127 q61 -52 169 -52 q140 0 215 111 l47 -27 q-90 -137 -262 -137 q-132 0 -207 66 q-72 65 -72 171 q0 94 63 157 q65 65 174 67 q27 0 38 -5 l0 216 l-338 0 l0 52 Z" /><glyph glyph-name="" unicode="&#x311c;" d="M483 776 l57 0 l0 -129 l315 0 l0 -54 l-315 0 l0 -193 l-28 -25 q-27 11 -68 11 q-83 0 -132 -53 q-47 -47 -47 -121 q0 -78 55 -126 q59 -53 168 -53 q138 0 214 112 l48 -29 q-90 -137 -262 -137 q-131 0 -207 67 q-73 64 -73 171 q0 94 64 157 q67 67 174 67 q18 0 37 -4 l0 156 l-337 0 l0 54 l337 0 l0 129 Z" /><glyph glyph-name="" unicode="&#x311d;" d="M648 728 l56 0 l0 -212 l174 0 l0 -52 l-174 0 l0 -250 l-56 0 l0 250 l-303 0 l0 -386 q0 -47 52 -47 l442 0 l0 -52 l-462 0 q-88 0 -88 78 l0 407 l-167 0 l0 52 l167 0 l0 197 l56 0 l0 -197 l303 0 l0 212 Z" /><glyph glyph-name="" unicode="&#x311e;" d="M153 715 l695 0 l0 -53 l-253 0 q-21 -149 -66 -281 l314 0 q-12 -234 -89 -432 l-52 19 q70 176 82 361 l-274 0 l-8 -21 l-9 -21 q-103 -235 -273 -334 l-32 43 q159 93 255 311 l5 11 l4 11 l-280 0 q40 143 66 296 l53 0 q-19 -112 -51 -244 l232 0 q45 126 69 281 l-388 0 l0 53 Z" /><glyph glyph-name="" unicode="&#x311f;" d="M514 756 q26 -213 106 -405 q83 -208 217 -357 l-41 -39 q-127 136 -217 346 q-83 193 -112 393 l-296 -49 l-8 55 l351 56 Z" /><glyph glyph-name="" unicode="&#x3120;" d="M450 745 q-94 -149 -227 -316 l29 -2 l31 -1 q38 -2 69 -4 q85 -5 162 -10 q105 129 165 237 l45 -28 q-74 -128 -205 -287 q-124 -146 -266 -277 l484 64 q-33 80 -75 160 l48 26 q75 -139 136 -317 l-52 -18 q-24 68 -37 100 l-576 -76 l-19 49 q129 108 278 278 l35 41 l-306 17 l-17 44 q141 170 251 349 l47 -29 Z" /><glyph glyph-name="" unicode="&#x3121;" d="M184 728 l621 0 l0 -52 q-51 -197 -229 -393 q176 -153 284 -276 l-43 -41 q-124 141 -278 277 q-171 -174 -367 -274 l-26 52 q190 96 350 259 q-147 125 -269 201 l30 46 q113 -68 277 -208 q164 181 212 357 l-562 0 l0 52 Z" /><glyph glyph-name="" unicode="&#x3122;" d="M143 727 l607 0 l-98 -380 l201 0 q-15 -232 -79 -388 l-55 11 q27 76 46 151 q19 84 29 174 l-616 0 q43 158 76 328 l55 0 q-30 -153 -61 -276 l346 0 l85 328 l-536 0 l0 52 Z" /><glyph glyph-name="" unicode="&#x3123;" d="M320 739 q-34 -181 -72 -331 l586 0 q-21 -238 -94 -440 l-55 14 q64 172 88 373 l-597 0 q48 173 89 391 l55 -7 Z" /><glyph glyph-name="" unicode="&#x3124;" d="M497 737 q-6 -107 -18 -196 l379 0 l0 -53 l-267 0 l0 -412 q0 -37 41 -37 l237 0 l0 -53 l-258 0 q-75 0 -75 73 l0 429 l-66 0 q-17 -87 -39 -154 q-75 -224 -246 -362 l-37 42 q162 135 231 337 q18 55 34 137 l-264 0 l0 53 l273 0 q14 95 20 201 l55 -5 Z" /><glyph glyph-name="" unicode="&#x3125;" d="M566 711 q-45 -157 -125 -329 q-86 -176 -187 -319 l577 0 l0 -52 l-631 0 l-17 46 q109 145 194 319 q84 174 135 348 l54 -13 Z" /><glyph glyph-name="" unicode="&#x3126;" d="M300 738 l55 0 l0 -303 q0 -167 -50 -284 q-51 -114 -156 -189 l-27 50 q92 71 134 168 q44 103 44 254 l0 304 ZM557 737 l55 0 l0 -662 q0 -39 40 -39 l107 0 q33 0 56 26 q17 21 31 65 l50 -14 q-36 -129 -130 -129 l-130 0 q-79 0 -79 83 l0 670 Z" /><glyph glyph-name="" unicode="&#x3127;" d="M119 387 l762 0 l0 -52 l-762 0 l0 52 Z" /><glyph glyph-name="" unicode="&#x3128;" d="M227 722 q159 -159 289 -306 q140 161 247 304 l46 -31 q-112 -146 -258 -313 q147 -166 289 -348 l-43 -36 q-136 178 -281 344 q-139 -155 -317 -339 l-40 42 q161 157 312 326 q6 8 10 11 q-133 149 -293 307 l39 39 Z" /><glyph glyph-name="" unicode="&#x3129;" d="M174 713 l56 0 l0 -622 q0 -39 36 -39 l468 0 q36 0 36 39 l0 622 l56 0 l0 -651 q0 -27 -16 -46 q-16 -16 -42 -16 l-533 0 q-31 0 -46 17 q-15 17 -15 45 l0 651 Z" /><glyph glyph-name="" unicode="&#x32a3;" d="M500 848 q202 0 345 -143 q143 -143 143 -345 q0 -200 -143 -345 q-145 -143 -345 -143 q-202 0 -345 143 q-143 143 -143 345 q0 203 143 345 q142 143 345 143 ZM500 817 q-190 0 -323 -134 q-134 -133 -134 -323 q0 -189 134 -323 q134 -134 323 -134 q187 0 322 133 q134 136 134 322 q0 188 -134 324 q-133 135 -322 135 ZM198 655 l604 0 l0 -53 l-258 0 l0 -201 l218 0 l0 -52 l-218 0 l0 -233 l283 0 l0 -53 l-653 0 l0 53 l110 0 l0 343 l53 0 l0 -343 l152 0 l0 486 l-291 0 l0 53 Z" /><glyph glyph-name="" unicode="&#xfe39;" d="M811 179 l156 -259 l-46 -29 l-141 232 l-560 0 l-141 -232 l-46 29 l156 259 l622 0 Z" /><glyph glyph-name="" unicode="&#xfe3a;" d="M220 596 l560 0 l141 233 l46 -29 l-156 -260 l-622 0 l-156 260 l46 29 l141 -233 Z" /><glyph glyph-name="" unicode="&#xfe3b;" d="M33 192 l934 0 l0 -282 q-197 160 -467 160 q-273 0 -467 -160 l0 282 Z" /><glyph glyph-name="" unicode="&#xfe3c;" d="M33 810 q196 -160 467 -160 q268 0 467 160 l0 -282 l-934 0 l0 282 Z" /><glyph glyph-name="" unicode="&#xfe3d;" d="M967 123 l-22 -49 l-445 198 l-445 -197 l-22 48 l467 206 l467 -206 ZM967 -31 l-22 -49 l-445 197 l-445 -197 l-22 49 l467 205 l467 -205 Z" /><glyph glyph-name="" unicode="&#xfe3e;" d="M500 604 l445 196 l22 -48 l-467 -206 l-467 206 l22 48 l445 -196 ZM500 449 l445 198 l22 -50 l-467 -205 l-467 205 l22 49 l445 -197 Z" /><glyph glyph-name="" unicode="&#xfe3f;" d="M967 -11 l-22 -49 l-445 197 l-445 -197 l-22 49 l467 205 l467 -205 Z" /><glyph glyph-name="" unicode="&#xfe40;" d="M500 584 l445 196 l22 -48 l-467 -206 l-467 206 l22 48 l445 -196 Z" /><glyph glyph-name="" unicode="&#xfe41;" d="M354 203 l613 0 l0 -313 l-52 0 l0 257 l-561 0 l0 56 Z" /><glyph glyph-name="" unicode="&#xfe43;" d="M354 241 l613 0 l0 -351 l-182 0 l0 169 l-431 0 l0 182 ZM396 200 l0 -99 l431 0 l0 -169 l98 0 l0 268 l-529 0 Z" /><glyph glyph-name="" unicode="&#xfe44;" d="M33 830 l182 0 l0 -169 l431 0 l0 -182 l-613 0 l0 351 ZM75 788 l0 -268 l529 0 l0 99 l-431 0 l0 169 l-98 0 Z" /><glyph glyph-name="" unicode="&#xfe49;" d="M772 821 l154 0 l0 -62 l-154 0 l0 62 ZM422 821 l155 0 l0 -62 l-155 0 l0 62 ZM73 821 l154 0 l0 -62 l-154 0 l0 62 Z" /><glyph glyph-name="" unicode="&#xfe4a;" d="M662 821 l263 0 l0 -62 l-263 0 l0 62 ZM500 828 q38 0 38 -39 q0 -14 -11 -27 q-12 -12 -27 -12 q-16 0 -28 12 q-11 11 -11 27 q0 39 39 39 ZM74 821 l263 0 l0 -62 l-263 0 l0 62 Z" /><glyph glyph-name="" unicode="&#xfe4b;" d="M11 860 q5 0 17 -13 q64 -73 82 -73 q10 0 56 43 q44 43 66 43 q23 0 73 -43 q51 -43 61 -43 q12 0 60 43 q46 43 71 43 q28 0 81 -43 q55 -43 58 -43 q7 0 55 43 q44 43 66 43 q29 0 79 -43 q51 -43 55 -43 q25 0 83 79 q6 7 14 7 q12 0 12 -10 l-8 -14 q-53 -85 -104 -85 q-21 0 -71 44 q-50 44 -60 44 q-9 0 -53 -44 q-47 -44 -70 -44 q-18 0 -71 44 q-53 44 -66 44 q-8 0 -55 -44 q-50 -44 -80 -44 q-21 0 -70 44 q-50 44 -60 44 q-10 0 -54 -44 q-46 -44 -69 -44 q-35 0 -97 80 q-12 15 -12 19 q0 10 11 10 Z" /><glyph glyph-name="" unicode="&#xfe4c;" d="M11 860 q5 0 17 -13 q64 -73 82 -73 q10 0 56 43 q44 43 66 43 q23 0 73 -43 q51 -43 61 -43 q12 0 60 43 q46 43 71 43 q28 0 81 -43 q55 -43 58 -43 q7 0 55 43 q44 43 66 43 q29 0 79 -43 q51 -43 55 -43 q25 0 83 79 q6 7 14 7 q12 0 12 -10 l-8 -14 q-53 -85 -104 -85 q-21 0 -71 44 q-50 44 -60 44 q-9 0 -53 -44 q-47 -44 -70 -44 q-18 0 -71 44 q-53 44 -66 44 q-8 0 -55 -44 q-50 -44 -80 -44 q-21 0 -70 44 q-50 44 -60 44 q-10 0 -54 -44 q-46 -44 -69 -44 q-35 0 -97 80 q-12 15 -12 19 q0 10 11 10 ZM11 734 q6 0 17 -14 q64 -73 82 -73 q10 0 58 43 q44 44 64 44 q23 0 73 -44 q51 -43 61 -43 q13 0 62 43 q44 44 69 44 q27 0 81 -44 q55 -43 58 -43 q7 0 56 43 q44 44 65 44 q28 0 78 -44 q51 -43 56 -43 q26 0 83 78 q6 9 14 9 q12 0 12 -11 l-8 -14 q-53 -85 -104 -85 q-21 0 -71 44 q-50 44 -60 44 q-9 0 -53 -44 q-47 -44 -70 -44 q-18 0 -71 44 q-53 44 -66 44 q-8 0 -55 -44 q-50 -44 -80 -44 q-21 0 -70 44 q-50 44 -60 44 q-10 0 -54 -44 q-46 -44 -69 -44 q-36 0 -97 79 q-12 17 -12 20 q0 11 11 11 Z" /><glyph glyph-name="" unicode="&#xfe4d;" d="M772 -39 l154 0 l0 -63 l-154 0 l0 63 ZM422 -39 l155 0 l0 -63 l-155 0 l0 63 ZM73 -39 l154 0 l0 -63 l-154 0 l0 63 Z" /><glyph glyph-name="" unicode="&#xfe4e;" d="M662 -39 l263 0 l0 -63 l-263 0 l0 63 ZM500 -30 q15 0 27 -12 q11 -11 11 -27 q0 -39 -38 -39 q-39 0 -39 39 q0 17 11 27 q12 12 28 12 ZM74 -39 l263 0 l0 -63 l-263 0 l0 63 Z" /><glyph glyph-name="" unicode="&#xfe4f;" d="M11 -29 q2 0 17 -16 q60 -71 82 -71 q10 0 56 44 q44 43 66 43 q24 0 74 -43 q50 -44 60 -44 q13 0 60 44 q46 43 71 43 q29 0 82 -43 q55 -44 57 -44 q7 0 54 44 q46 43 67 43 q29 0 79 -43 q50 -44 55 -44 q26 0 83 77 q6 10 14 10 q12 0 12 -13 l-8 -13 q-53 -85 -104 -85 q-21 0 -71 44 q-50 44 -60 44 q-9 0 -53 -44 q-47 -44 -70 -44 q-18 0 -71 44 q-53 44 -66 44 q-8 0 -55 -44 q-50 -44 -80 -44 q-21 0 -70 44 q-50 44 -60 44 q-10 0 -54 -44 q-46 -44 -69 -44 q-35 0 -97 80 q-12 15 -12 18 q0 13 11 13 Z" /><glyph glyph-name="" unicode="&#xfe55;" d="M500 566 q19 0 30 -11 q12 -10 12 -30 q0 -19 -12 -31 q-13 -11 -30 -11 q-19 0 -30 11 q-12 12 -12 31 q0 20 12 30 q10 11 30 11 ZM500 273 q19 0 30 -11 q12 -10 12 -30 q0 -18 -12 -30 q-13 -11 -30 -11 q-19 0 -30 11 q-12 12 -12 30 q0 20 12 30 q10 11 30 11 Z" /><glyph glyph-name="" unicode="&#xfe57;" d="M529 643 l-8 -426 l-42 0 l-8 426 l58 0 ZM500 154 q19 0 30 -11 q12 -10 12 -30 q0 -18 -12 -30 q-13 -11 -30 -11 q-19 0 -30 11 q-12 12 -12 30 q0 20 12 30 q10 11 30 11 Z" /><glyph glyph-name="" unicode="&#xfe62;" d="M478 616 l44 0 l0 -236 l228 0 l0 -45 l-228 0 l0 -235 l-44 0 l0 235 l-228 0 l0 45 l228 0 l0 236 Z" /><glyph glyph-name="" unicode="&#xfe63;" d="M250 380 l500 0 l0 -45 l-500 0 l0 45 Z" /><glyph glyph-name="" unicode="&#xfe64;" d="M750 550 l-442 -190 l442 -190 l0 -48 l-500 214 l0 48 l500 214 l0 -48 Z" /><glyph glyph-name="" unicode="&#xfe65;" d="M250 598 l500 -214 l0 -48 l-500 -214 l0 48 l442 190 l-442 190 l0 48 Z" /><glyph glyph-name="" unicode="&#xff01;" d="M284 714 l-10 -529 l-48 0 l-10 529 l68 0 ZM250 100 q23 0 37 -14 q14 -14 14 -36 q0 -20 -14 -36 q-16 -14 -37 -14 q-21 0 -36 15 q-15 15 -15 35 q0 23 15 36 q14 14 36 14 Z" /><glyph glyph-name="" unicode="&#xff03;" d="M474 714 l-28 -176 l166 0 l28 176 l51 0 l-27 -176 l108 0 l-8 -48 l-108 0 l-43 -268 l122 0 l-8 -47 l-121 0 l-28 -175 l-52 0 l28 175 l-165 0 l-28 -175 l-52 0 l28 175 l-109 0 l8 47 l108 0 l43 268 l-122 0 l8 48 l122 0 l28 176 l51 0 ZM561 222 l43 268 l-165 0 l-43 -268 l165 0 Z" /><glyph glyph-name="" unicode="&#xff04;" d="M478 809 l40 0 l0 -82 q85 -4 140 -53 q61 -50 76 -154 l-61 0 q-12 78 -58 117 q-38 32 -97 37 l0 -287 l119 -43 q108 -54 108 -154 q0 -105 -70 -158 q-58 -41 -157 -46 l0 -87 l-40 0 l0 88 q-100 6 -155 64 q-56 61 -68 177 l61 0 q12 -97 53 -141 q37 -40 109 -46 l0 302 l-102 36 q-108 54 -108 155 q0 97 68 147 q55 44 142 47 l0 81 ZM478 675 q-64 -3 -101 -33 q-48 -36 -48 -108 q0 -73 108 -117 l41 -15 l0 273 ZM518 40 q77 5 120 39 q46 40 46 109 q0 78 -108 120 l-58 20 l0 -288 Z" /><glyph glyph-name="" unicode="&#xff05;" d="M725 728 l-399 -742 l-51 0 l399 742 l51 0 ZM248 714 q77 0 119 -58 q37 -52 37 -137 q0 -83 -37 -137 q-42 -59 -119 -59 q-77 0 -118 59 q-37 50 -37 137 q0 87 37 137 q40 58 118 58 ZM248 670 q-51 0 -75 -43 q-23 -37 -23 -108 q0 -71 23 -108 q24 -44 75 -44 q51 0 76 45 q23 40 23 107 q0 68 -23 108 q-25 43 -76 43 ZM752 391 q77 0 119 -58 q37 -52 37 -137 q0 -83 -37 -137 q-42 -59 -119 -59 q-78 0 -119 59 q-37 50 -37 137 q0 87 37 137 q40 58 119 58 ZM752 347 q-52 0 -76 -43 q-23 -37 -23 -108 q0 -71 23 -108 q24 -44 76 -44 q49 0 76 45 q23 40 23 107 q0 69 -24 108 q-25 43 -75 43 Z" /><glyph glyph-name="" unicode="&#xff06;" d="M431 678 q-51 0 -80 -26 q-30 -25 -30 -71 q0 -34 35 -79 q15 -22 54 -63 l17 10 l18 9 q96 56 96 124 q0 41 -28 67 q-29 29 -82 29 ZM359 410 q-48 51 -66 81 q-33 48 -33 89 q0 70 52 110 q47 38 120 38 q76 0 122 -39 q48 -39 48 -104 q0 -87 -96 -149 l-30 -17 l-31 -17 l200 -210 q45 93 54 226 l61 0 q-7 -160 -71 -272 l138 -146 l-79 0 l-92 97 q-90 -111 -237 -111 q-106 0 -174 53 q-71 56 -71 153 q0 101 95 168 l90 50 ZM393 373 q-42 -22 -63 -34 q-95 -61 -95 -148 q0 -66 52 -108 q52 -41 130 -41 q124 0 197 99 l-221 232 Z" /><glyph glyph-name="" unicode="&#xff08;" d="M920 827 q-61 -100 -95 -208 q-43 -130 -43 -259 q0 -129 43 -259 q34 -107 95 -208 l-55 0 q-63 95 -99 206 q-43 130 -43 261 q0 131 43 260 q36 111 99 207 l55 0 Z" /><glyph glyph-name="" unicode="&#xff09;" d="M135 827 q62 -96 99 -207 q43 -134 43 -260 q0 -126 -43 -261 q-38 -111 -99 -206 l-55 0 q58 96 95 208 q43 135 43 259 q0 124 -43 259 q-37 113 -95 208 l55 0 Z" /><glyph glyph-name="" unicode="&#xff0a;" d="M534 649 l-8 -268 l248 93 l23 -64 l-256 -79 l170 -211 l-52 -41 l-159 221 l-159 -221 l-52 41 l170 211 l-256 79 l23 64 l248 -93 l-8 268 l68 0 Z" /><glyph glyph-name="" unicode="&#xff0b;" d="M474 680 l52 0 l0 -295 l286 0 l0 -52 l-286 0 l0 -297 l-52 0 l0 297 l-286 0 l0 52 l286 0 l0 295 Z" /><glyph glyph-name="" unicode="&#xff0c;" d="M179 100 q60 0 60 -83 q0 -118 -100 -173 l-21 35 q72 48 76 122 l-7 0 l-8 -1 q-22 0 -37 13 q-14 13 -14 36 q0 26 14 37 q13 14 37 14 Z" /><glyph glyph-name="" unicode="&#xff0d;" d="M188 385 l624 0 l0 -52 l-624 0 l0 52 Z" /><glyph glyph-name="" unicode="&#xff0e;" d="M179 100 q22 0 36 -14 q15 -13 15 -36 q0 -20 -16 -36 q-16 -14 -35 -14 q-22 0 -36 15 q-15 15 -15 35 q0 23 15 36 q13 14 36 14 Z" /><glyph glyph-name="" unicode="&#xff0f;" d="M707 820 l-359 -920 l-55 0 l359 920 l55 0 Z" /><glyph glyph-name="" unicode="&#xff10;" d="M500 728 q129 0 192 -118 q52 -96 52 -253 q0 -155 -52 -253 q-64 -118 -192 -118 q-128 0 -192 118 q-52 95 -52 253 q0 159 52 253 q63 118 192 118 ZM500 674 q-104 0 -149 -106 q-33 -78 -33 -211 q0 -131 33 -211 q45 -106 149 -106 q102 0 149 106 q34 82 34 211 q0 131 -34 211 q-46 106 -149 106 Z" /><glyph glyph-name="" unicode="&#xff1a;" d="M250 597 q23 0 37 -14 q14 -14 14 -36 q0 -21 -14 -35 q-15 -15 -37 -15 q-21 0 -36 15 q-15 15 -15 35 q0 23 15 36 q14 14 36 14 ZM250 231 q23 0 37 -14 q14 -14 14 -36 q0 -21 -14 -35 q-15 -15 -37 -15 q-21 0 -36 15 q-15 15 -15 35 q0 23 15 36 q14 14 36 14 Z" /><glyph glyph-name="" unicode="&#xff1b;" d="M250 597 q23 0 37 -14 q14 -14 14 -36 q0 -21 -14 -35 q-15 -15 -37 -15 q-21 0 -36 15 q-15 15 -15 35 q0 23 15 36 q14 14 36 14 ZM250 231 q61 0 61 -82 q0 -119 -100 -174 l-22 35 q71 48 76 123 q-8 -2 -14 -2 q-22 0 -37 13 q-15 15 -15 36 q0 25 14 38 q14 13 37 13 Z" /><glyph glyph-name="" unicode="&#xff1c;" d="M812 598 l-557 -241 l557 -241 l0 -57 l-624 270 l0 56 l624 270 l0 -57 Z" /><glyph glyph-name="" unicode="&#xff1d;" d="M188 489 l624 0 l0 -52 l-624 0 l0 52 ZM188 276 l624 0 l0 -52 l-624 0 l0 52 Z" /><glyph glyph-name="" unicode="&#xff1e;" d="M188 655 l624 -270 l0 -56 l-624 -270 l0 57 l557 241 l-557 241 l0 57 Z" /><glyph glyph-name="" unicode="&#xff1f;" d="M258 728 q94 0 151 -54 q54 -51 54 -138 q0 -63 -38 -113 q-15 -19 -79 -77 q-34 -30 -50 -57 q-21 -36 -21 -77 l0 -29 l-61 0 l0 29 q0 44 18 80 q22 48 92 109 q38 38 46 48 q32 41 32 85 q0 63 -37 102 q-38 38 -110 38 q-80 0 -121 -54 q-36 -45 -36 -124 l-60 0 q0 100 55 164 q59 68 165 68 ZM245 100 q22 0 36 -14 q15 -13 15 -36 q0 -21 -15 -36 q-16 -14 -36 -14 q-22 0 -37 15 q-14 14 -14 35 q0 23 14 36 q14 14 37 14 Z" /><glyph glyph-name="" unicode="&#xff20;" d="M510 728 q155 0 246 -92 q86 -86 86 -219 q0 -107 -68 -193 q-65 -80 -138 -80 q-62 0 -67 69 q-54 -71 -131 -71 q-62 0 -98 41 q-37 41 -37 104 q0 117 69 198 q66 79 155 79 q75 0 99 -79 l16 60 l51 0 l-73 -272 q-10 -34 -10 -57 q0 -27 31 -27 q49 0 99 61 q56 73 56 167 q0 113 -75 188 q-81 78 -213 78 q-141 0 -234 -94 q-95 -92 -95 -236 q0 -154 92 -240 q89 -84 236 -84 q110 0 194 42 q74 38 117 100 l55 0 q-52 -87 -147 -135 q-100 -50 -219 -50 q-172 0 -275 100 q-105 102 -105 269 q0 157 107 263 q110 110 276 110 ZM534 515 q-69 0 -121 -64 q-57 -67 -57 -165 q0 -45 22 -71 q24 -27 62 -27 q43 0 85 36 q39 33 51 75 l24 87 q9 36 9 46 q0 30 -18 54 q-22 29 -57 29 Z" /><glyph glyph-name="" unicode="&#xff3c;" d="M348 820 l359 -920 l-55 0 l-359 920 l55 0 Z" /><glyph glyph-name="" unicode="&#xff3e;" d="M530 714 l161 -344 l-52 0 l-139 290 l-138 -290 l-53 0 l161 344 l60 0 Z" /><glyph glyph-name="" unicode="&#xff3f;" d="M0 -88 l1000 0 l0 -52 l-1000 0 l0 52 Z" /><glyph glyph-name="" unicode="&#xff40;" d="M484 722 l105 -146 l-44 0 l-133 146 l72 0 Z" /><glyph glyph-name="" unicode="&#xff42;" d="M265 728 l60 0 l0 -320 q57 123 181 123 q110 0 172 -83 q57 -75 57 -189 q0 -116 -57 -191 q-64 -82 -174 -82 q-129 0 -182 116 l0 -102 l-57 0 l0 728 ZM495 480 q-80 0 -126 -62 q-45 -60 -45 -155 l0 -12 q0 -91 42 -150 q47 -64 131 -64 q88 0 136 66 q41 59 41 156 q0 97 -43 155 q-48 66 -136 66 Z" /><glyph glyph-name="" unicode="&#xff44;" d="M675 728 l60 0 l0 -728 l-56 0 l0 102 q-54 -116 -182 -116 q-111 0 -175 82 q-57 75 -57 191 q0 114 57 189 q62 83 172 83 q124 0 181 -123 l0 320 ZM505 480 q-88 0 -136 -66 q-43 -56 -43 -155 q0 -97 42 -156 q47 -66 136 -66 q83 0 130 64 q43 60 43 150 l0 12 q0 95 -45 155 q-47 62 -127 62 Z" /><glyph glyph-name="" unicode="&#xff50;" d="M504 531 q112 0 174 -83 q57 -75 57 -191 q0 -113 -56 -189 q-64 -82 -173 -82 q-124 0 -181 122 l0 -306 l-60 0 l0 715 l57 0 l0 -102 q57 116 182 116 ZM497 480 q-84 0 -131 -66 q-42 -58 -42 -153 l0 -11 q0 -93 45 -153 q47 -60 126 -60 q87 0 136 64 q43 60 43 156 q0 98 -42 156 q-48 67 -135 67 Z" /><glyph glyph-name="" unicode="&#xff5b;" d="M960 827 l0 -49 l-54 0 q-73 0 -73 -81 l0 -218 q0 -89 -78 -119 q78 -33 78 -119 l0 -219 q0 -80 73 -80 l54 0 l0 -49 l-62 0 q-57 0 -90 36 q-31 34 -31 94 l0 216 q0 46 -19 68 q-23 26 -77 26 l0 54 q54 2 77 26 q19 22 19 68 l0 215 q0 61 31 95 q33 36 90 36 l62 0 Z" /><glyph glyph-name="" unicode="&#xff5c;" d="M474 860 l52 0 l0 -1000 l-52 0 l0 1000 Z" /><glyph glyph-name="" unicode="&#xff5d;" d="M40 827 l62 0 q57 0 90 -36 q31 -36 31 -95 l0 -215 q0 -47 19 -69 q21 -23 77 -25 l0 -54 q-54 0 -76 -25 q-20 -21 -20 -69 l0 -216 q0 -58 -31 -94 q-33 -36 -90 -36 l-62 0 l0 49 l54 0 q73 0 73 80 l0 219 q0 86 78 119 q-78 30 -78 119 l0 218 q0 81 -73 81 l-54 0 l0 49 Z" /><glyph glyph-name="" unicode="&#xff5e;" d="M327 457 q49 0 113 -32 q42 -22 90 -51 q99 -57 156 -57 q78 0 156 117 l42 -32 q-92 -139 -198 -139 q-69 0 -168 57 q-56 35 -90 52 q-59 31 -101 31 q-90 0 -168 -112 l-42 33 q91 133 210 133 Z" /><glyph glyph-name="" unicode="&#xffe0;" d="M753 756 l-48 -84 l8 -6 q83 -63 97 -168 l-59 0 q-14 79 -75 125 l-313 -540 q62 -41 149 -41 q91 0 157 48 q71 54 92 153 l59 0 q-23 -125 -112 -193 q-84 -64 -196 -64 q-103 0 -178 46 l-54 -93 l-33 20 l56 96 q-20 16 -40 41 q-82 100 -82 258 q0 159 83 261 q91 113 254 113 q86 0 155 -36 l48 83 l32 -19 ZM644 643 q-54 29 -127 29 q-131 0 -206 -93 q-69 -87 -69 -225 q0 -139 69 -223 l10 -12 l12 -12 l311 536 Z" /><glyph glyph-name="" unicode="&#xffe1;" d="M538 728 q119 0 176 -85 q36 -56 42 -139 l-62 0 q-7 83 -41 124 q-39 46 -116 46 q-74 0 -114 -43 q-40 -40 -40 -106 q0 -52 22 -146 l1 -3 l0 -3 l216 0 l0 -40 l-207 0 q13 -67 13 -96 q0 -110 -85 -183 l395 0 l0 -54 l-470 0 l0 56 q102 66 102 176 q0 34 -14 101 l-112 0 l0 40 l103 0 q-1 1 -1 3 q-25 97 -25 150 q0 87 57 144 q59 58 160 58 Z" /><glyph glyph-name="" unicode="&#xffe3;" d="M0 860 l1000 0 l0 -52 l-1000 0 l0 52 Z" /><glyph glyph-name="" unicode="&#xffe5;" d="M308 714 l192 -344 l192 344 l74 0 l-211 -366 l161 0 l0 -41 l-184 0 l0 -105 l184 0 l0 -41 l-184 0 l0 -161 l-64 0 l0 161 l-184 0 l0 41 l184 0 l0 105 l-184 0 l0 41 l161 0 l-211 366 l74 0 Z" /><glyph glyph-name="" unicode="&#x2f00;&#x4e00;" d="M52 394 l895 0 l0 -54 l-895 0 l0 54 Z" /><glyph glyph-name="" unicode="&#x4e01;" d="M72 737 l857 0 l0 -53 l-393 0 l0 -679 q0 -94 -93 -94 l-157 0 l-12 53 q104 -4 150 -4 q58 0 58 59 l0 665 l-410 0 l0 53 Z" /><glyph glyph-name="" unicode="&#x4e03;" d="M946 519 l-503 -93 l0 -404 q0 -41 38 -41 l298 0 q39 0 56 23 q16 25 22 172 l52 -17 q-9 -164 -32 -198 q-24 -33 -88 -33 l-321 0 q-79 0 -79 86 l0 402 l-332 -61 l-8 53 l340 63 l0 338 l54 0 l0 -328 l495 91 l8 -53 Z" /><glyph glyph-name="" unicode="&#x4e07;" d="M65 741 l870 0 l0 -53 l-518 0 l0 -42 q-1 -95 -11 -188 l429 0 q-3 -390 -38 -466 q-36 -76 -124 -76 q-29 0 -129 2 l-15 52 q33 -1 73 -2 l16 -1 l15 0 q18 -1 27 -1 q77 3 96 73 q20 71 24 367 l-381 0 q-21 -142 -65 -241 q-76 -166 -252 -262 l-31 48 q170 93 244 258 q65 165 68 437 l0 42 l-298 0 l0 53 Z" /><glyph glyph-name="" unicode="&#x4e08;" d="M72 638 l509 0 l0 176 l53 0 l0 -176 l299 0 l0 -53 l-301 0 q-15 -263 -134 -421 q177 -136 459 -213 l-27 -48 q-291 82 -466 220 q-132 -138 -389 -219 l-30 46 q252 78 378 207 q-164 143 -226 345 l49 17 q56 -187 211 -322 q2 3 6 7 q101 148 116 381 l-507 0 l0 53 Z" /><glyph glyph-name="" unicode="&#x4e09;" d="M125 733 l752 0 l0 -53 l-752 0 l0 53 ZM193 386 l615 0 l0 -54 l-615 0 l0 54 ZM50 13 l900 0 l0 -54 l-900 0 l0 54 Z" /><glyph glyph-name="" unicode="&#x4e0a;" d="M425 815 l56 0 l0 -316 l370 0 l0 -52 l-370 0 l0 -448 l463 0 l0 -53 l-885 0 l0 53 l366 0 l0 816 Z" /><glyph glyph-name="" unicode="&#x4e0b;" d="M58 756 l883 0 l0 -53 l-441 0 l0 -167 q189 -97 384 -225 l-32 -48 q-207 140 -352 217 l0 -580 l-53 0 l0 803 l-389 0 l0 53 Z" /><glyph glyph-name="" unicode="&#x4e0d;" d="M80 757 l840 0 l0 -53 l-327 0 q-27 -63 -65 -126 l0 -678 l-56 0 l0 596 q-141 -187 -384 -332 l-36 46 q349 203 481 494 l-453 0 l0 53 ZM653 492 q175 -139 295 -280 l-42 -42 q-106 132 -291 284 l38 38 Z" /><glyph glyph-name="" unicode="&#x4e0e;" d="M329 815 l-16 -138 l559 0 l0 -53 l-565 0 l-20 -179 l570 0 q0 -406 -49 -470 q-51 -62 -214 -62 q-55 0 -115 3 l-15 49 q93 -5 118 -5 q158 0 188 62 q33 65 33 372 l-577 0 l49 426 l54 -5 ZM99 213 l581 0 l0 -52 l-581 0 l0 52 Z" /><glyph glyph-name="" unicode="&#x4e10;" d="M63 764 l865 0 l0 -52 l-409 0 l0 -158 l353 0 l0 -52 l-353 0 l0 -161 l349 0 q-6 -303 -45 -363 q-40 -61 -168 -66 q-61 0 -132 3 l-13 51 q92 -2 137 -2 q93 0 129 48 q36 50 36 278 l-638 0 l0 332 l53 0 l0 -281 l238 0 l0 371 l-402 0 l0 52 Z" /><glyph glyph-name="" unicode="&#x4e11;" d="M416 712 l-36 -314 l336 0 l26 314 l-326 0 ZM326 398 l37 314 l-229 0 l0 52 l664 0 l-58 -777 l200 0 l0 -53 l-880 0 l0 53 l218 0 l42 358 l-169 0 l0 53 l175 0 ZM683 -13 l29 358 l-338 0 l-42 -358 l351 0 Z" /><glyph glyph-name="" unicode="&#x4e13;" d="M53 502 l289 0 q13 47 37 141 l-257 0 l0 51 l269 0 l13 63 l13 63 l54 -5 q-11 -60 -24 -121 l440 0 l0 -51 l-452 0 l-9 -37 l-8 -36 q-10 -39 -18 -68 l547 0 l0 -52 l-562 0 q-21 -73 -50 -148 l488 0 l0 -48 q-76 -121 -236 -237 q98 -37 186 -81 l-30 -46 q-229 114 -470 180 l29 43 q113 -31 228 -74 q147 101 230 212 l-501 0 q39 105 68 199 l-274 0 l0 52 Z" /><glyph glyph-name="" unicode="&#x4e14;" d="M272 467 l0 -209 l459 0 l0 209 l-459 0 ZM731 518 l0 201 l-459 0 l0 -201 l459 0 ZM272 206 l0 -216 l459 0 l0 216 l-459 0 ZM59 -10 l157 0 l0 781 l569 0 l0 -781 l157 0 l0 -53 l-883 0 l0 53 Z" /><glyph glyph-name="" unicode="&#x4e16;" d="M51 571 l134 0 l0 231 l55 0 l0 -231 l222 0 l0 241 l54 0 l0 -241 l221 0 l0 241 l53 0 l0 -241 l158 0 l0 -53 l-158 0 l0 -315 l-328 0 l0 315 l-222 0 l0 -521 l674 0 l0 -54 l-729 0 l0 575 l-134 0 l0 53 ZM516 518 l0 -261 l221 0 l0 261 l-221 0 Z" /><glyph glyph-name="" unicode="&#x4e18;" d="M254 403 l0 -401 l384 0 l0 401 l-384 0 ZM693 2 l241 0 l0 -52 l-866 0 l0 52 l133 0 l0 686 q335 35 559 109 l29 -48 q-237 -71 -535 -106 l0 -187 l634 0 l0 -53 l-195 0 l0 -401 Z" /><glyph glyph-name="" unicode="&#x4e19;" d="M480 344 q-63 -166 -209 -267 l-41 35 q194 128 234 379 l-284 0 l0 -589 l-53 0 l0 641 l344 0 q4 54 4 81 l0 79 l-415 0 l0 54 l880 0 l0 -54 l-411 0 l0 -79 q-1 -30 -5 -81 l351 0 l0 -531 q0 -102 -92 -102 l-119 0 l-15 53 l116 -3 q57 0 57 64 l0 467 l-304 0 q-9 -57 -22 -100 q146 -103 267 -249 l-30 -46 q-123 154 -253 248 Z" /><glyph glyph-name="" unicode="&#x4e1a;" d="M365 803 l53 0 l0 -801 l162 0 l0 801 l53 0 l0 -801 l307 0 l0 -53 l-880 0 l0 53 l305 0 l0 801 ZM909 611 q-60 -264 -154 -461 l-49 18 q89 182 155 456 l48 -13 ZM134 627 q78 -202 142 -471 l-50 -12 q-53 236 -139 467 l47 16 Z" /><glyph glyph-name="" unicode="&#x4e1b;" d="M65 1 l871 0 l0 -53 l-871 0 l0 53 ZM317 789 q0 -155 -16 -289 q117 -119 193 -231 l-38 -39 q-61 98 -163 213 l-8 -41 q-45 -207 -198 -339 l-33 42 q132 117 177 298 q32 151 34 386 l52 0 ZM702 806 q0 -130 -13 -252 q72 -284 244 -447 l-35 -41 q-150 151 -225 377 l-3 -17 l-4 -17 q-48 -215 -216 -350 l-34 42 q146 119 196 307 q37 163 37 398 l53 0 Z" /><glyph glyph-name="" unicode="&#x4e1c;" d="M82 688 l249 0 q36 79 58 138 l55 -12 q-25 -66 -54 -126 l519 0 l0 -54 l-545 0 q-77 -153 -169 -264 l299 0 l0 156 l53 0 l0 -156 l322 0 l0 -49 l-322 0 l0 -331 q0 -85 -85 -85 l-104 0 l-11 52 q66 -4 96 -4 q51 0 51 50 l0 318 l-356 0 l-13 46 q98 105 180 267 l-223 0 l0 54 ZM333 196 q-101 -139 -249 -242 l-33 44 q145 99 244 232 l38 -34 ZM713 230 q140 -123 232 -242 l-39 -39 q-82 114 -229 246 l36 35 Z" /><glyph glyph-name="" unicode="&#x4e1d;" d="M60 1 l880 0 l0 -52 l-880 0 l0 52 ZM361 781 q-102 -207 -201 -324 q85 6 190 20 l17 29 l17 29 q19 34 34 61 l50 -17 q-139 -256 -280 -391 q153 13 289 41 l10 -50 q-167 -30 -379 -45 l-11 51 q99 53 222 243 q-108 -15 -213 -24 l-13 48 q13 6 23 21 q114 144 193 328 l52 -20 ZM786 781 q-102 -209 -201 -325 q96 8 192 21 q31 53 65 115 l51 -17 q-138 -255 -275 -386 q161 12 297 39 l10 -50 q-172 -27 -386 -42 l-10 51 q99 53 218 241 q-97 -13 -216 -25 l-13 49 q14 7 23 20 q113 144 193 330 l52 -21 Z" /><glyph glyph-name="" unicode="&#x4e22;" d="M877 755 q-154 -34 -349 -50 l0 -154 l331 0 l0 -51 l-331 0 l0 -161 l420 0 l0 -52 l-530 0 q-117 -222 -200 -305 q274 18 547 54 q-61 84 -115 148 l43 27 q132 -157 205 -279 l-45 -32 q-27 46 -55 88 q-306 -37 -651 -59 l-13 50 l7 2 l5 2 q81 57 216 304 l-308 0 l0 52 l420 0 l0 161 l-332 0 l0 51 l332 0 l0 150 q-170 -11 -351 -11 l-16 47 q454 1 745 63 l25 -45 Z" /><glyph glyph-name="" unicode="&#x4e24;" d="M61 763 l878 0 l0 -53 l-276 0 l0 -173 l224 0 l0 -536 q0 -89 -80 -89 l-102 0 l-15 52 l98 -2 q45 0 45 50 l0 474 l-172 0 q-2 -38 -8 -93 q79 -120 148 -250 l-33 -49 q-71 150 -123 241 q-36 -186 -134 -290 l-41 35 q126 132 140 406 l-227 0 q-3 -52 -11 -108 q58 -78 122 -182 l-30 -44 q-60 113 -102 174 q-36 -162 -123 -258 l-41 36 q119 127 134 382 l-165 0 l0 -580 l-54 0 l0 631 l221 0 q0 5 1 14 l0 159 l-274 0 l0 53 ZM612 537 l0 173 l-226 0 l0 -160 l-1 -13 l227 0 Z" /><glyph glyph-name="" unicode="&#x4e25;" d="M137 771 l766 0 l0 -51 l-267 0 l0 -266 l289 0 l0 -51 l-722 0 l0 -138 q-6 -228 -121 -364 l-41 37 q103 118 107 327 l0 189 l257 0 l0 266 l-268 0 l0 51 ZM456 454 l129 0 l0 266 l-129 0 l0 -266 ZM841 661 q-29 -95 -73 -164 l-45 16 q40 61 73 160 l45 -12 ZM234 668 q47 -75 80 -153 l-45 -21 q-38 92 -82 159 l47 15 Z" /><glyph glyph-name="" unicode="&#x4e27;" d="M89 693 l384 0 l0 123 l54 0 l0 -123 l373 0 l0 -50 l-373 0 l0 -273 l410 0 l0 -51 l-442 0 q33 -95 115 -174 q112 39 210 130 l35 -35 q-89 -85 -204 -130 q112 -91 293 -155 l-32 -50 q-388 149 -471 414 l-173 0 l0 -334 q125 34 209 73 l10 -50 q-121 -53 -281 -91 l-16 50 q25 13 25 43 l0 309 l-152 0 l0 51 l410 0 l0 273 l-384 0 l0 50 ZM208 602 q52 -76 99 -172 l-45 -23 q-51 103 -98 174 l44 21 ZM835 582 q-40 -91 -102 -176 l-44 23 q62 86 102 173 l44 -20 Z" /><glyph glyph-name="" unicode="&#x4e2a;" d="M473 521 l54 0 l0 -618 l-54 0 l0 618 ZM525 814 q126 -211 436 -372 l-32 -48 q-288 148 -429 368 q-170 -241 -429 -374 l-32 49 q283 145 436 377 l50 0 Z" /><glyph glyph-name="" unicode="&#x4e2d;" d="M472 819 l56 0 l0 -185 l362 0 l0 -460 l-55 0 l0 67 l-307 0 l0 -346 l-56 0 l0 346 l-306 0 l0 -67 l-55 0 l0 460 l361 0 l0 185 ZM166 294 l306 0 l0 286 l-306 0 l0 -286 ZM528 294 l307 0 l0 286 l-307 0 l0 -286 Z" /><glyph glyph-name="" unicode="&#x4e30;" d="M149 437 l324 0 l0 178 l-370 0 l0 54 l370 0 l0 144 l54 0 l0 -144 l379 0 l0 -54 l-379 0 l0 -178 l333 0 l0 -54 l-333 0 l0 -177 l403 0 l0 -53 l-403 0 l0 -250 l-54 0 l0 250 l-400 0 l0 53 l400 0 l0 177 l-324 0 l0 54 Z" /><glyph glyph-name="" unicode="&#x4e32;" d="M159 705 l314 0 l0 112 l54 0 l0 -112 l315 0 l0 -242 l-315 0 l0 -112 l354 0 l0 -263 l-354 0 l0 -185 l-54 0 l0 185 l-352 0 l0 263 l352 0 l0 112 l-314 0 l0 242 ZM788 511 l0 147 l-261 0 l0 -147 l261 0 ZM473 511 l0 147 l-260 0 l0 -147 l260 0 ZM827 136 l0 168 l-300 0 l0 -168 l300 0 ZM473 136 l0 168 l-298 0 l0 -168 l298 0 Z" /><glyph glyph-name="" unicode="&#x4e34;" d="M262 813 l54 0 l0 -908 l-54 0 l0 908 ZM909 360 l0 -450 l-52 0 l0 55 l-372 0 l0 -55 l-53 0 l0 450 l477 0 ZM485 17 l162 0 l0 292 l-162 0 l0 -292 ZM698 309 l0 -292 l159 0 l0 292 l-159 0 ZM658 586 q86 -85 135 -154 l-41 -30 q-50 70 -136 158 l42 26 ZM90 687 l52 0 l0 -617 l-52 0 l0 617 ZM526 633 q-55 -106 -126 -189 l-38 45 q116 132 183 331 l54 -12 q-19 -59 -47 -121 l390 0 l0 -54 l-416 0 Z" /><glyph glyph-name="" unicode="&#x4e38;" d="M108 623 l273 0 l0 186 l54 0 l0 -186 l308 0 l-19 -606 q0 -44 34 -44 l68 0 q24 0 42 20 q20 28 26 181 l53 -15 q-12 -175 -42 -210 q-30 -28 -76 -28 l-84 0 q-75 0 -75 83 l16 566 l-253 0 q-7 -161 -41 -283 q83 -62 162 -137 l-32 -47 q-78 77 -147 130 q-16 -42 -27 -67 q-82 -167 -265 -259 l-31 48 q181 94 257 254 q13 30 21 58 q-94 69 -183 116 l29 44 q80 -43 169 -106 q28 116 34 249 l-271 0 l0 53 Z" /><glyph glyph-name="" unicode="&#x4e39;" d="M60 362 l197 0 l0 408 l530 0 l0 -408 l153 0 l0 -53 l-153 0 l0 -310 q0 -84 -85 -84 l-116 0 l-14 53 q62 -3 113 -3 q48 0 48 54 l0 290 l-422 0 q-12 -250 -147 -409 l-41 38 q122 148 133 371 l-196 0 l0 53 ZM733 362 l0 357 l-421 0 l0 -357 l421 0 ZM465 646 q93 -104 144 -185 l-43 -30 q-55 87 -144 188 l43 27 Z" /><glyph glyph-name="" unicode="&#x4e3a;" d="M177 788 q91 -95 136 -162 l-44 -29 q-54 78 -134 161 l42 30 ZM522 366 q115 -125 172 -213 l-47 -32 q-62 99 -169 217 l44 28 ZM420 815 l53 0 l0 -103 q-2 -86 -7 -149 l415 0 q0 -421 -38 -537 q-39 -115 -138 -115 q-71 0 -119 3 l-15 53 q72 -6 131 -6 q95 7 110 177 q14 177 14 371 l-365 0 q-24 -189 -84 -318 q-88 -181 -293 -285 l-30 48 q201 102 285 282 q49 117 68 273 l-319 0 l0 54 l325 0 q5 65 7 149 l0 103 Z" /><glyph glyph-name="" unicode="&#x4e3b;" d="M473 585 l-379 0 l0 53 l813 0 l0 -53 l-379 0 l0 -257 l330 0 l0 -52 l-330 0 l0 -286 l413 0 l0 -53 l-881 0 l0 53 l413 0 l0 286 l-331 0 l0 52 l331 0 l0 257 ZM472 816 q41 -94 58 -152 l-49 -18 q-26 81 -63 155 l54 15 Z" /><glyph glyph-name="" unicode="&#x4e3d;" d="M65 756 l870 0 l0 -52 l-870 0 l0 52 ZM284 -96 l-14 50 l73 -2 q42 0 42 42 l0 538 l-221 0 l0 -630 l-51 0 l0 681 l323 0 l0 -600 q0 -79 -76 -79 l-76 0 ZM238 413 q69 -110 115 -223 l-44 -19 q-52 129 -114 225 l43 17 ZM737 -96 l-14 50 l68 -2 q44 0 44 46 l0 534 l-222 0 l0 -630 l-51 0 l0 681 l324 0 l0 -596 q0 -83 -78 -83 l-71 0 ZM687 414 q67 -106 117 -227 l-44 -19 q-51 127 -116 229 l43 17 Z" /><glyph glyph-name="" unicode="&#x4e3e;" d="M221 804 q53 -82 98 -179 l-46 -24 q-47 104 -96 182 l44 21 ZM455 817 q50 -85 92 -177 l-46 -24 q-45 105 -91 179 l45 22 ZM76 522 l0 53 l571 0 q74 113 127 247 l51 -19 q-58 -136 -123 -228 l222 0 l0 -53 l-231 0 q80 -140 267 -221 l-24 -50 q-210 102 -296 271 l-287 0 q-70 -154 -281 -267 l-31 48 q197 96 261 219 l-226 0 ZM237 342 l236 0 l0 117 l54 0 l0 -117 l237 0 l0 -54 l-237 0 l0 -140 l368 0 l0 -53 l-368 0 l0 -192 l-54 0 l0 192 l-368 0 l0 53 l368 0 l0 140 l-236 0 l0 54 Z" /><glyph glyph-name="" unicode="&#x4e43;" d="M105 760 l653 0 l0 -27 q-29 -156 -74 -299 l234 0 l0 -26 q-12 -269 -29 -347 q-19 -87 -62 -117 q-43 -29 -136 -29 l-117 0 l-16 54 q88 -4 117 -4 q84 0 115 24 q32 23 47 91 q14 66 27 303 l-250 0 q54 167 84 323 l-300 0 q-14 -338 -72 -497 q-68 -175 -225 -298 l-37 46 q149 114 210 273 q61 156 70 476 l-239 0 l0 54 Z" /><glyph glyph-name="" unicode="&#x4e45;" d="M534 271 q-187 -250 -462 -368 l-31 53 q412 170 619 652 l-325 0 q-91 -146 -239 -258 l-36 46 q233 174 314 428 l57 -7 q-29 -87 -65 -156 l358 0 l0 -45 q-67 -167 -156 -298 q114 -230 387 -364 l-41 -48 q-264 145 -380 365 Z" /><glyph glyph-name="" unicode="&#x4e48;" d="M703 336 q126 -190 215 -399 l-51 -23 q-20 47 -45 100 q-266 -46 -646 -69 l-15 55 q24 10 50 35 q183 175 432 602 l54 -27 q-279 -463 -435 -606 q277 19 536 59 q-69 139 -147 256 l52 17 ZM495 804 q-151 -319 -410 -530 l-37 44 q245 197 389 500 l58 -14 Z" /><glyph glyph-name="" unicode="&#x4e49;" d="M409 813 q97 -109 172 -241 l-49 -25 q-77 137 -174 244 l51 22 ZM831 757 q-69 -354 -283 -574 q173 -146 405 -229 l-33 -49 q-238 89 -412 239 q-172 -157 -422 -239 l-30 49 q244 79 410 228 q-198 189 -312 464 l49 28 q108 -272 303 -454 q208 214 272 548 l53 -11 Z" /><glyph glyph-name="" unicode="&#x4e4b;" d="M446 818 q48 -77 94 -183 l315 0 l0 -42 q-177 -332 -522 -511 q8 -8 12 -13 q64 -81 176 -90 q69 -3 199 -3 q79 0 220 3 l-13 -54 l-198 0 q-112 0 -188 2 q-159 3 -244 121 q-27 33 -48 33 q-47 0 -134 -175 l-45 30 q96 200 181 200 q20 0 33 -10 l9 -6 q327 166 495 461 l-660 0 l0 54 l354 0 q-41 92 -97 173 l61 10 Z" /><glyph glyph-name="" unicode="&#x4e4c;" d="M59 133 l646 0 l0 -52 l-646 0 l0 52 ZM635 -97 l-16 50 q82 -2 116 -2 q51 0 66 43 q16 45 19 270 l-611 0 l0 437 l191 0 q33 60 48 125 l56 -8 q-19 -66 -50 -117 l313 0 q-3 -199 -28 -250 q-27 -51 -128 -51 l-55 0 l-16 48 q54 -2 82 -2 q66 0 78 46 q13 52 13 158 l-449 0 l0 -336 l609 0 q-3 -274 -26 -343 q-24 -68 -112 -68 l-100 0 Z" /><glyph glyph-name="" unicode="&#x4e4d;" d="M291 611 q-82 -147 -188 -256 l-36 44 q165 169 260 422 l54 -13 q-27 -70 -62 -144 l616 0 l0 -53 l-463 0 l0 -185 l386 0 l0 -52 l-386 0 l0 -185 l413 0 l0 -53 l-413 0 l0 -231 l-53 0 l0 706 l-128 0 Z" /><glyph glyph-name="" unicode="&#x4e4e;" d="M58 335 l431 0 l0 340 q-174 -14 -367 -14 l-18 51 q459 0 757 79 l27 -48 q-149 -42 -346 -63 l0 -345 l403 0 l0 -54 l-403 0 l0 -283 q0 -89 -81 -89 l-136 0 l-12 52 q90 -4 129 -4 q47 0 47 54 l0 270 l-431 0 l0 54 ZM828 624 q-43 -132 -104 -228 l-50 18 q58 88 102 224 l52 -14 ZM237 598 q60 -95 100 -193 l-46 -21 q-46 111 -104 198 l50 16 Z" /><glyph glyph-name="" unicode="&#x4e4f;" d="M896 754 q-302 -74 -800 -74 l-17 51 q482 0 789 72 l28 -49 ZM464 637 q43 -63 81 -146 l285 0 l0 -48 q-177 -242 -494 -380 q60 -81 150 -84 l53 0 q38 -1 61 -1 q161 0 342 3 l-11 -56 l-323 0 q-66 0 -114 3 q-90 6 -138 41 q-37 24 -70 76 q-13 15 -27 15 q-51 0 -134 -158 l-42 36 q91 182 177 182 q20 0 35 -12 l2 -2 l3 -2 q295 125 463 334 l-633 0 l0 53 l360 0 q-41 79 -85 137 l59 9 Z" /><glyph glyph-name="" unicode="&#x4e50;" d="M114 363 q46 201 68 374 q28 -4 43 -4 q361 1 586 72 l27 -47 q-234 -67 -612 -71 q-27 -164 -52 -271 l307 0 l0 205 l54 0 l0 -205 l373 0 l0 -53 l-373 0 l0 -370 q0 -86 -85 -86 l-133 0 l-12 52 q88 -4 126 -4 q50 0 50 52 l0 356 l-367 0 ZM293 254 q-81 -180 -187 -307 l-47 33 q108 123 186 297 l48 -23 ZM732 283 q96 -145 180 -318 l-50 -26 q-85 182 -178 321 l48 23 Z" /><glyph glyph-name="" unicode="&#x4e52;" d="M280 497 l0 -265 l342 0 l0 265 l-342 0 ZM225 232 l0 484 q330 29 537 88 l29 -48 q-225 -55 -511 -82 l0 -125 l582 0 l0 -52 l-187 0 l0 -265 l259 0 l0 -53 l-870 0 l0 53 l161 0 ZM399 123 q-115 -129 -282 -224 l-35 44 q166 94 276 217 l41 -37 Z" /><glyph glyph-name="" unicode="&#x4e53;" d="M288 490 l0 -264 l342 0 l0 264 l-342 0 ZM234 226 l0 491 q341 27 560 84 l27 -47 q-233 -53 -533 -80 l0 -132 l584 0 l0 -52 l-188 0 l0 -264 l261 0 l0 -54 l-885 0 l0 54 l174 0 ZM635 152 q164 -112 273 -220 l-40 -41 q-100 107 -270 225 l37 36 Z" /><glyph glyph-name="" unicode="&#x4e54;" d="M74 544 l299 0 q47 73 81 152 q-148 -11 -307 -11 l-17 49 q418 0 692 76 l27 -46 q-137 -40 -335 -62 q-34 -85 -78 -158 l489 0 l0 -54 l-269 0 q87 -132 300 -234 l-35 -45 q-231 125 -321 279 l-200 0 q-124 -170 -320 -282 l-34 43 q176 100 288 239 l-260 0 l0 54 ZM631 353 l54 0 l0 -452 l-54 0 l0 452 ZM323 354 l53 0 l0 -64 q-3 -157 -60 -250 q-56 -86 -187 -136 l-29 45 q122 47 174 127 q46 82 49 214 l0 64 Z" /><glyph glyph-name="" unicode="&#x4e56;" d="M709 147 q-74 0 -74 75 l0 290 l51 0 l0 -124 q119 31 209 76 l28 -40 q-100 -50 -237 -85 l0 -108 q0 -36 37 -36 l109 0 q22 0 39 10 q19 18 25 105 l47 -14 q-9 -104 -34 -131 q-22 -18 -64 -18 l-136 0 ZM305 512 l50 0 l0 -382 l-50 0 l0 55 q-103 -23 -226 -41 l-14 49 q138 19 240 40 l0 132 l-225 0 l0 50 l225 0 l0 97 ZM61 616 l412 0 l0 107 q-150 -8 -306 -8 l-16 48 q404 2 659 52 l27 -46 q-134 -27 -310 -42 l0 -111 l411 0 l0 -51 l-411 0 l0 -664 l-54 0 l0 664 l-412 0 l0 51 Z" /><glyph glyph-name="" unicode="&#x4e58;" d="M722 241 q-88 0 -88 87 l0 198 l53 0 l0 -92 q120 18 211 55 l18 -47 q-99 -36 -229 -54 l0 -49 q0 -51 50 -51 l94 0 q25 0 37 10 q15 13 19 73 l51 -16 q-9 -82 -32 -99 q-21 -15 -65 -15 l-119 0 ZM61 626 l412 0 l0 99 q-145 -9 -314 -9 l-17 48 q405 1 669 50 l27 -46 q-129 -26 -311 -40 l0 -102 l411 0 l0 -52 l-411 0 l0 -265 q163 -195 422 -303 l-29 -51 q-228 101 -393 286 l0 -340 l-54 0 l0 335 q-159 -174 -390 -285 l-34 50 q273 125 424 305 l0 268 l-412 0 l0 52 ZM298 525 l54 0 l0 -296 l-54 0 l0 54 q-93 -21 -213 -42 l-14 50 q132 18 227 37 l0 84 l-206 0 l0 48 l206 0 l0 65 Z" /><glyph glyph-name="" unicode="&#x2f04;&#x4e59;" d="M135 749 l689 0 l0 -48 q-305 -228 -421 -327 q-132 -111 -186 -195 q-39 -61 -39 -105 q0 -32 26 -55 q31 -23 117 -23 l403 0 q90 1 127 43 q36 47 36 200 l53 -16 q0 -172 -45 -225 q-47 -53 -153 -53 l-432 0 q-105 0 -147 33 q-43 37 -43 96 q0 53 39 113 q53 91 196 210 q141 122 375 299 l-595 0 l0 53 Z" /><glyph glyph-name="" unicode="&#x4e5d;" d="M370 813 l54 0 l0 -223 l304 0 l0 -575 q0 -45 46 -45 l62 0 q46 0 58 62 q7 81 7 147 l51 -15 q-9 -139 -16 -167 q-17 -80 -99 -80 l-71 0 q-95 0 -95 89 l0 530 l-248 0 q-9 -246 -83 -392 q-79 -148 -261 -234 l-31 49 q177 84 252 229 q62 138 69 348 l-257 0 l0 54 l258 0 l0 223 Z" /><glyph glyph-name="" unicode="&#x4e5e;" d="M329 807 q-24 -64 -49 -114 l608 0 l0 -51 l-635 0 q-60 -105 -141 -191 l-36 42 q127 128 202 327 l51 -13 ZM234 491 l542 0 l0 -51 q-348 -207 -466 -331 q-54 -57 -57 -97 q0 -38 54 -38 l405 0 q65 0 99 21 q40 26 58 191 l51 -19 q-20 -173 -66 -209 q-47 -35 -137 -35 l-405 0 q-117 0 -117 81 q0 64 87 149 q118 118 409 287 l-457 0 l0 51 Z" /><glyph glyph-name="" unicode="&#x4e5f;" d="M493 819 l53 0 l0 -245 l300 68 q0 -286 -8 -352 q-14 -103 -124 -103 l-46 0 l-15 51 l38 0 l17 -1 l16 0 q58 0 67 84 q4 44 4 253 l-249 -55 l0 -375 l-53 0 l0 363 l-232 -51 l0 -402 q0 -67 70 -67 l448 0 q61 0 91 22 q27 24 36 166 l50 -17 q-12 -157 -45 -191 q-33 -33 -123 -33 l-470 0 q-110 0 -110 112 l0 398 l-166 -36 l0 52 l166 38 l0 241 l53 0 l0 -229 l232 52 l0 257 Z" /><glyph glyph-name="" unicode="&#x4e60;" d="M656 288 q-213 -133 -528 -236 l-22 51 q315 96 537 235 l13 -50 ZM234 585 q129 -99 216 -195 l-37 -38 q-82 94 -218 196 l39 37 ZM521 -40 l81 0 l82 -1 q49 0 74 43 q24 45 30 212 q0 25 4 480 l-660 0 l0 53 l713 0 q-6 -479 -9 -569 q-6 -156 -34 -212 q-30 -56 -107 -56 l-72 0 q-53 -1 -88 -1 l-14 51 Z" /><glyph glyph-name="" unicode="&#x4e61;" d="M870 429 q-33 -218 -198 -349 q-145 -118 -516 -186 l-23 54 q345 59 496 169 q65 49 109 114 q-213 -30 -543 -51 l-17 48 q168 82 349 254 q-168 -19 -363 -29 l-14 48 q181 139 313 328 l54 -21 q-123 -171 -285 -303 q171 9 346 27 q76 76 147 160 l53 -25 q-271 -308 -482 -432 q277 19 472 48 q34 70 48 152 l54 -6 Z" /><glyph glyph-name="" unicode="&#x4e66;" d="M417 819 l54 0 l0 -181 l294 0 l0 -26 l-22 -243 l144 0 q0 -280 -45 -328 q-21 -22 -59 -31 q-30 -5 -59 -6 l-66 0 l-15 51 l90 0 q51 1 72 26 q24 31 29 235 l-363 0 l0 -415 l-54 0 l0 415 l-363 0 l0 53 l363 0 l0 216 l-305 0 l0 53 l305 0 l0 181 ZM471 369 l220 0 l20 216 l-240 0 l0 -216 ZM727 813 q114 -59 206 -144 l-30 -44 q-99 93 -204 147 l28 41 Z" /><glyph glyph-name="" unicode="&#x4e70;" d="M149 493 q118 -49 212 -115 l-28 -43 q-103 78 -210 119 l26 39 ZM244 635 q110 -48 201 -117 l-29 -44 q-93 76 -198 122 l26 39 ZM531 643 l53 0 l0 -210 q-2 -90 -22 -163 l380 0 l0 -54 l-399 0 l-12 -27 l-13 -26 q224 -102 402 -220 l-38 -41 q-184 123 -391 220 l-11 -16 l-12 -14 q-108 -119 -356 -186 l-31 47 q247 64 351 179 q33 40 53 84 l-411 0 l0 54 l432 0 q22 73 25 163 l0 210 ZM114 751 l753 0 l0 -35 q-22 -88 -59 -180 l-51 15 q35 71 55 149 l-698 0 l0 51 Z" /><glyph glyph-name="" unicode="&#x4e71;" d="M49 525 l219 0 l0 171 q-90 -8 -182 -8 l-17 48 q249 1 411 56 l26 -46 q-76 -28 -183 -43 l0 -178 l216 0 l0 -53 l-216 0 l0 -183 l173 0 l0 -379 l-54 0 l0 52 l-291 0 l0 -52 l-53 0 l0 379 l170 0 l0 183 l-219 0 l0 53 ZM151 14 l291 0 l0 224 l-291 0 l0 -224 ZM692 -81 q-81 0 -81 84 l0 797 l54 0 l0 -786 q0 -44 43 -44 l112 0 q37 0 52 23 q17 31 25 178 l52 -17 q-10 -165 -39 -204 q-25 -31 -79 -31 l-139 0 Z" /><glyph glyph-name="" unicode="&#x4e73;" d="M701 -81 q-80 0 -80 95 l0 786 l53 0 l0 -775 q0 -55 43 -55 l112 0 q33 0 49 22 q18 32 24 177 l52 -17 q-9 -161 -37 -202 q-25 -31 -77 -31 l-139 0 ZM541 192 q-98 -24 -191 -41 l0 -163 q0 -79 -81 -79 l-105 0 l-15 52 q62 -3 98 -3 q49 0 49 45 l0 138 q-121 -21 -250 -36 l-8 52 q147 18 258 37 l0 109 q49 33 133 100 l-345 0 l0 50 l419 0 l0 -41 q-69 -63 -153 -126 l0 -83 q104 20 191 42 l0 -53 ZM538 689 q-34 -111 -82 -191 l-47 17 q46 77 80 187 l49 -13 ZM284 675 q37 -84 56 -147 l-46 -18 q-22 73 -58 152 l48 13 ZM107 662 q35 -65 63 -151 l-48 -12 q-25 74 -62 147 l47 16 ZM549 762 q-186 -53 -488 -53 l-16 46 q292 2 478 51 l26 -44 Z" /><glyph glyph-name="" unicode="&#x4e7e;" d="M59 715 l183 0 l0 99 l53 0 l0 -99 l187 0 l0 -50 l-187 0 l0 -99 l152 0 l0 -349 l-152 0 l0 -102 l189 0 l0 -49 l-189 0 l0 -166 l-53 0 l0 166 l-197 0 l0 49 l197 0 l0 102 l-149 0 l0 349 l149 0 l0 99 l-183 0 l0 50 ZM395 265 l0 105 l-250 0 l0 -105 l250 0 ZM145 416 l250 0 l0 103 l-250 0 l0 -103 ZM596 625 q-35 -66 -81 -121 l-35 41 q89 107 142 272 l50 -12 q-20 -61 -50 -128 l320 0 l0 -52 l-346 0 ZM536 458 l352 0 l0 -49 q-117 -122 -193 -219 q-62 -77 -86 -120 q-22 -37 -22 -56 q0 -45 59 -45 l164 0 q40 0 58 26 q18 27 27 171 l49 -18 q-12 -163 -41 -195 q-30 -32 -93 -34 l-175 0 q-105 0 -105 85 q0 32 23 69 q25 46 99 142 q64 84 164 191 l-280 0 l0 52 Z" /><glyph glyph-name="" unicode="&#x4e86;" d="M489 480 q156 93 298 217 l-670 0 l0 52 l744 0 l0 -52 q-137 -125 -319 -244 l0 -460 q0 -83 -84 -83 q-41 0 -85 1 q-33 1 -73 3 l-15 53 q72 -6 158 -6 q46 0 46 43 l0 476 Z" /><glyph glyph-name="" unicode="&#x4e88;" d="M338 646 q102 -65 177 -124 q118 85 207 194 l-542 0 l0 52 l612 0 l0 -44 q-105 -136 -237 -236 l37 -32 l314 0 l0 -47 q-76 -120 -178 -210 l-43 37 q85 70 160 169 l-309 0 l0 -415 q0 -83 -82 -83 l-143 0 l-12 52 q96 -4 136 -4 q47 0 47 49 l0 401 l-397 0 l0 51 l432 0 q-85 73 -216 154 l37 36 Z" /><glyph glyph-name="" unicode="&#x4e89;" d="M807 143 l-296 0 l0 -149 q0 -84 -85 -84 l-149 0 l-12 52 q98 -4 142 -4 q51 0 51 50 l0 135 l-274 0 l0 51 l274 0 l0 131 l-396 0 l0 52 l396 0 l0 127 l-257 0 l0 52 l287 0 q77 49 155 117 l-343 0 q-79 -92 -187 -166 l-34 40 q163 108 259 271 l54 -13 q-21 -36 -53 -82 l379 0 l0 -42 q-74 -74 -148 -125 l237 0 l0 -179 l134 0 l0 -52 l-134 0 l0 -182 ZM511 504 l0 -127 l242 0 l0 127 l-242 0 ZM511 325 l0 -131 l242 0 l0 131 l-242 0 Z" /><glyph glyph-name="" unicode="&#x4e8b;" d="M177 632 l296 0 l0 72 l-399 0 l0 48 l399 0 l0 65 l54 0 l0 -65 l399 0 l0 -48 l-399 0 l0 -72 l296 0 l0 -185 l-296 0 l0 -73 l310 0 l0 -137 l117 0 l0 -45 l-117 0 l0 -132 l-310 0 l0 -77 q0 -76 -80 -76 l-123 0 l-11 51 q80 -4 115 -4 q45 0 45 42 l0 64 l-337 0 l0 45 l337 0 l0 87 l-427 0 l0 45 l427 0 l0 93 l-336 0 l0 44 l336 0 l0 73 l-296 0 l0 185 ZM769 489 l0 100 l-242 0 l0 -100 l242 0 ZM473 489 l0 100 l-242 0 l0 -100 l242 0 ZM527 330 l0 -93 l259 0 l0 93 l-259 0 ZM786 192 l-259 0 l0 -87 l259 0 l0 87 Z" /><glyph glyph-name="" unicode="&#x2f06;&#x4e8c;" d="M148 696 l704 0 l0 -53 l-704 0 l0 53 ZM56 67 l887 0 l0 -53 l-887 0 l0 53 Z" /><glyph glyph-name="" unicode="&#x4e8e;" d="M123 771 l747 0 l0 -53 l-334 0 l0 -293 l403 0 l0 -54 l-403 0 l0 -367 q0 -92 -94 -92 l-153 0 l-12 53 q102 -4 147 -4 q58 0 58 57 l0 353 l-421 0 l0 54 l421 0 l0 293 l-359 0 l0 53 Z" /><glyph glyph-name="" unicode="&#x4e8f;" d="M160 755 l681 0 l0 -52 l-681 0 l0 52 ZM70 527 l860 0 l0 -53 l-567 0 l-61 -166 l503 0 q-18 -280 -60 -337 q-43 -57 -180 -57 q-49 2 -117 3 l-15 49 q80 -5 132 -5 q98 0 132 39 q33 39 51 258 l-515 0 l75 216 l-238 0 l0 53 Z" /><glyph glyph-name="" unicode="&#x4e91;" d="M152 752 l706 0 l0 -53 l-706 0 l0 53 ZM55 470 l893 0 l0 -54 l-485 0 q-148 -304 -254 -413 q288 17 576 51 q-56 102 -131 215 l44 27 q140 -210 215 -367 l-47 -34 q-23 51 -54 109 q-325 -38 -673 -58 l-14 53 q6 2 14 6 q101 76 265 411 l-349 0 l0 54 Z" /><glyph glyph-name="" unicode="&#x4e92;" d="M76 767 l846 0 l0 -54 l-533 0 l-45 -182 l436 0 l-83 -539 l252 0 l0 -53 l-889 0 l0 53 l585 0 l31 196 l-469 0 l127 525 l-258 0 l0 54 ZM684 239 l39 241 l-391 0 l-59 -241 l411 0 Z" /><glyph glyph-name="" unicode="&#x4e94;" d="M147 432 l230 0 l56 267 l-337 0 l0 53 l809 0 l0 -53 l-418 0 l-56 -267 l343 0 l0 -431 l169 0 l0 -52 l-884 0 l0 52 l227 0 l80 378 l-219 0 l0 53 ZM719 1 l0 378 l-299 0 l-80 -378 l379 0 Z" /><glyph glyph-name="" unicode="&#x4e95;" d="M96 615 l207 0 l0 197 l54 0 l0 -197 l287 0 l0 197 l54 0 l0 -197 l206 0 l0 -53 l-206 0 l0 -254 l249 0 l0 -54 l-249 0 l0 -346 l-54 0 l0 346 l-300 0 q-15 -93 -46 -159 q-56 -113 -181 -177 l-32 51 q119 62 170 168 q21 53 33 117 l-235 0 l0 54 l243 0 q5 48 7 113 l0 141 l-207 0 l0 53 ZM357 562 l0 -141 q0 -60 -6 -113 l293 0 l0 254 l-287 0 Z" /><glyph glyph-name="" unicode="&#x4e9a;" d="M91 751 l818 0 l0 -52 l-276 0 l0 -697 l307 0 l0 -52 l-880 0 l0 52 l305 0 l0 697 l-274 0 l0 52 ZM418 2 l162 0 l0 697 l-162 0 l0 -697 ZM879 537 q-52 -226 -134 -399 l-48 17 q76 155 133 395 l49 -13 ZM162 538 q73 -167 130 -383 l-48 -13 q-49 190 -130 380 l48 16 Z" /><glyph glyph-name="" unicode="&#x4e9b;" d="M307 811 l54 0 l0 -174 l155 0 l0 -52 l-155 0 l0 -207 q84 15 165 33 l0 -52 q-226 -48 -473 -77 l-13 51 l48 5 l47 5 l0 371 l54 0 l0 -364 l118 18 l0 443 ZM925 681 q-129 -68 -293 -112 l0 -169 q0 -46 41 -46 l130 0 q38 0 57 16 q22 25 29 128 l51 -16 q-10 -126 -42 -156 q-27 -24 -85 -24 l-157 0 q-77 0 -77 87 l0 421 l53 0 l0 -189 q142 39 261 104 l32 -44 ZM175 198 l649 0 l0 -53 l-649 0 l0 53 ZM67 -10 l867 0 l0 -53 l-867 0 l0 53 Z" /><glyph glyph-name="" unicode="&#x4e9f;" d="M108 539 l250 0 l0 -335 l-250 0 l0 335 ZM308 254 l0 235 l-149 0 l0 -235 l149 0 ZM62 -11 l878 0 l0 -52 l-878 0 l0 52 ZM625 445 q66 -53 133 -114 q54 80 83 172 l-238 0 l0 48 l292 0 l0 -40 q-35 -123 -98 -217 q77 -77 131 -142 l-39 -39 q-54 69 -123 138 q-68 -84 -154 -139 l-34 44 q89 58 149 133 q-60 59 -137 123 l35 33 ZM181 770 l594 0 l0 -52 q-111 -76 -252 -150 l0 -431 q0 -75 -72 -75 l-113 0 l-14 52 q66 -2 108 -2 q37 0 37 44 l0 441 q160 77 229 121 l-517 0 l0 52 Z" /><glyph glyph-name="" unicode="&#x4ea1;" d="M60 633 l441 0 q-38 80 -98 154 l52 19 q59 -75 104 -173 l380 0 l0 -54 l-686 0 l0 -576 l644 0 l0 -54 l-699 0 l0 630 l-138 0 l0 54 Z" /><glyph glyph-name="" unicode="&#x4ea4;" d="M61 689 l424 0 q-27 67 -62 122 l59 10 q32 -54 61 -132 l397 0 l0 -51 l-879 0 l0 51 ZM653 594 q168 -135 279 -268 l-40 -39 q-99 124 -277 271 l38 36 ZM727 387 q-75 -143 -183 -244 q164 -124 405 -187 l-32 -50 q-248 69 -414 200 q-168 -141 -414 -204 l-33 48 q245 63 405 191 q-116 102 -187 233 l47 27 q67 -126 181 -224 q109 100 175 232 l50 -22 ZM381 558 q-113 -147 -282 -259 l-35 45 q165 106 277 250 l40 -36 Z" /><glyph glyph-name="" unicode="&#x4ea5;" d="M630 136 q-203 -161 -502 -229 l-32 48 q512 114 709 463 l49 -22 q-76 -131 -183 -226 q147 -112 251 -228 l-42 -41 q-94 112 -250 235 ZM734 560 q-182 -332 -613 -437 l-33 48 q263 62 425 199 q-157 -16 -336 -27 l-14 51 q11 4 13 5 q78 46 205 250 l-317 0 l0 53 l421 0 q-25 63 -54 109 l59 10 q29 -53 53 -119 l394 0 l0 -53 l-496 0 q-110 -181 -192 -254 q145 8 321 28 q69 72 115 158 l49 -21 Z" /><glyph glyph-name="" unicode="&#x4ea6;" d="M248 488 q-52 -214 -149 -373 l-49 31 q97 153 146 353 l52 -11 ZM782 499 q93 -172 162 -369 l-52 -24 q-72 209 -161 376 l51 17 ZM478 812 q30 -54 58 -132 l393 0 l0 -54 l-281 0 l0 -622 q0 -93 -94 -93 l-108 0 l-12 52 q72 -4 101 -4 q59 0 59 58 l0 609 l-177 0 l0 -162 q-4 -384 -240 -561 l-41 36 q224 164 228 525 l0 162 l-291 0 l0 54 l405 0 q-27 69 -60 123 l60 9 Z" /><glyph glyph-name="" unicode="&#x4ea7;" d="M495 828 q26 -51 49 -121 l355 0 l0 -52 l-177 0 q-19 -91 -55 -169 l253 0 l0 -53 l-724 0 l0 -157 q-6 -232 -111 -373 l-40 37 q92 122 96 336 l0 210 l206 0 l-46 169 l-187 0 l0 52 l376 0 q-23 61 -51 112 l56 9 ZM615 486 q39 81 54 169 l-314 0 l47 -169 l213 0 Z" /><glyph glyph-name="" unicode="&#x4ea9;" d="M848 507 l0 -606 l-53 0 l0 60 l-585 0 l0 -60 l-53 0 l0 606 l691 0 ZM210 13 l265 0 l0 194 l-265 0 l0 -194 ZM529 13 l266 0 l0 194 l-266 0 l0 -194 ZM210 258 l265 0 l0 197 l-265 0 l0 -197 ZM529 455 l0 -197 l266 0 l0 197 l-266 0 ZM61 686 l426 0 q-26 62 -61 114 l51 19 q33 -49 65 -133 l397 0 l0 -52 l-878 0 l0 52 Z" /><glyph glyph-name="" unicode="&#x4eab;" d="M208 600 l585 0 l0 -190 l-585 0 l0 190 ZM740 457 l0 95 l-479 0 l0 -95 l479 0 ZM479 817 q24 -38 49 -93 l404 0 l0 -52 l-863 0 l0 52 l400 0 q-26 48 -51 82 l61 11 ZM47 141 l443 0 l0 48 q112 43 239 97 l-586 0 l0 49 l694 0 l0 -39 q-133 -65 -294 -125 l0 -30 l410 0 l0 -50 l-410 0 l0 -107 q0 -81 -78 -81 l-142 0 l-15 49 q86 -3 135 -3 q47 0 47 50 l0 92 l-443 0 l0 50 Z" /><glyph glyph-name="" unicode="&#x4eac;" d="M191 537 l619 0 l0 -264 l-279 0 l0 -279 q0 -83 -83 -83 l-107 0 l-12 52 q70 -4 100 -4 q48 0 48 49 l0 265 l-286 0 l0 264 ZM756 326 l0 158 l-511 0 l0 -158 l511 0 ZM477 820 q23 -47 49 -119 l415 0 l0 -51 l-882 0 l0 51 l412 0 q-20 56 -49 110 l55 9 ZM708 196 q138 -112 235 -230 l-40 -40 q-88 114 -231 235 l36 35 ZM331 161 q-97 -134 -242 -237 l-34 45 q140 95 237 227 l39 -35 Z" /><glyph glyph-name="" unicode="&#x4ead;" d="M210 210 l579 0 l0 -48 l-260 0 l0 -171 q0 -83 -85 -83 l-101 0 l-12 50 q66 -4 95 -4 q49 0 49 49 l0 159 l-265 0 l0 48 ZM83 724 l393 0 q-21 51 -42 88 l57 10 q21 -46 38 -98 l388 0 l0 -48 l-834 0 l0 48 ZM223 600 l554 0 l0 -175 l-554 0 l0 175 ZM723 470 l0 86 l-446 0 l0 -86 l446 0 ZM904 345 l0 -163 l-54 0 l0 117 l-700 0 l0 -119 l-54 0 l0 165 l808 0 Z" /><glyph glyph-name="" unicode="&#x4eae;" d="M323 220 l357 0 l0 -222 q0 -39 44 -39 l90 0 q26 0 39 12 q19 14 28 127 l50 -16 q-10 -105 -29 -137 q-21 -33 -80 -33 l-112 0 q-83 0 -83 76 l0 184 l-251 0 l0 -35 q-6 -191 -283 -236 l-32 46 q262 39 262 197 l0 76 ZM75 730 l407 0 q-26 45 -55 82 l58 10 q30 -44 52 -92 l388 0 l0 -48 l-850 0 l0 48 ZM230 604 l540 0 l0 -181 l-540 0 l0 181 ZM716 468 l0 91 l-432 0 l0 -91 l432 0 ZM897 347 l0 -167 l-54 0 l0 119 l-687 0 l0 -122 l-54 0 l0 170 l795 0 Z" /><glyph glyph-name="" unicode="&#x4eb2;" d="M645 171 q163 -78 296 -188 l-30 -45 q-144 123 -294 192 l28 41 ZM375 132 q-116 -113 -296 -188 l-24 49 q173 67 286 177 l34 -38 ZM492 820 q25 -52 42 -116 l334 0 l0 -51 l-734 0 l0 51 l346 0 q-20 57 -45 106 l57 10 ZM86 462 l237 0 q-30 73 -70 131 l51 19 q42 -63 74 -150 l248 0 q44 75 74 155 l52 -19 q-29 -74 -70 -136 l233 0 l0 -52 l-384 0 l0 -130 l352 0 l0 -51 l-352 0 l0 -245 q0 -81 -86 -81 l-113 0 l-12 52 q74 -4 106 -4 q50 0 50 46 l0 232 l-359 0 l0 51 l359 0 l0 130 l-390 0 l0 52 Z" /><glyph glyph-name="" unicode="&#x2f08;&#x4eba;" d="M528 813 q0 -112 -7 -219 q84 -416 439 -636 l-36 -46 q-323 209 -422 563 q-83 -341 -430 -564 l-33 48 q418 261 433 692 q0 39 1 93 l0 69 l55 0 Z" /><glyph glyph-name="" unicode="&#x4ebf;" d="M176 491 q-54 -77 -126 -152 l-17 56 q173 190 248 429 l50 -23 q-43 -122 -101 -224 l0 -677 l-54 0 l0 591 ZM386 714 l497 0 l0 -48 q-219 -222 -297 -315 q-93 -104 -133 -189 q-27 -58 -27 -100 q0 -33 20 -53 q24 -21 90 -21 l271 0 q50 2 72 37 q19 43 19 174 l53 -16 q0 -152 -30 -200 q-29 -47 -98 -47 l-297 0 q-86 0 -120 32 q-35 38 -35 94 q0 47 28 109 q39 90 140 203 q98 113 265 286 l-418 0 l0 54 Z" /><glyph glyph-name="" unicode="&#x4ec0;" d="M184 494 q-61 -90 -134 -166 l-17 55 q168 191 244 433 l51 -23 q-36 -112 -90 -209 l0 -684 l-54 0 l0 594 ZM607 816 l56 0 l0 -337 l290 0 l0 -54 l-290 0 l0 -525 l-56 0 l0 525 l-282 0 l0 54 l282 0 l0 337 Z" /><glyph glyph-name="" unicode="&#x4ec1;" d="M373 647 l523 0 l0 -54 l-523 0 l0 54 ZM318 68 l633 0 l0 -53 l-633 0 l0 53 ZM177 482 q-61 -84 -125 -149 l-17 56 q173 189 251 430 l50 -23 q-42 -124 -105 -230 l0 -664 l-54 0 l0 580 Z" /><glyph glyph-name="" unicode="&#x4ec5;" d="M317 795 q-37 -113 -92 -216 l0 -679 l-54 0 l0 590 q-53 -77 -115 -145 l-17 56 q158 185 227 417 l51 -23 ZM921 -95 q-168 115 -276 245 q-122 -150 -295 -246 l-35 44 q178 96 295 246 q-168 223 -192 500 l-50 0 l0 53 l509 0 l0 -49 q-52 -299 -201 -506 q112 -135 282 -245 l-37 -42 ZM641 236 q132 190 180 458 l-351 0 q18 -254 171 -458 Z" /><glyph glyph-name="" unicode="&#x4ec6;" d="M379 798 q-49 -125 -118 -227 l0 -669 l-53 0 l0 596 q-69 -87 -153 -162 l-17 57 q201 189 291 428 l50 -23 ZM563 813 l55 0 l0 -326 q163 -98 320 -217 l-32 -48 q-168 133 -288 208 l0 -527 l-55 0 l0 910 Z" /><glyph glyph-name="" unicode="&#x4ec7;" d="M328 785 q-41 -119 -100 -223 l0 -661 l-54 0 l0 576 q-57 -80 -121 -147 l-17 57 q166 184 242 420 l50 -22 ZM489 804 l53 0 l0 -213 l230 0 l0 -577 q0 -48 44 -48 l41 0 q31 0 37 56 q7 68 7 126 l51 -15 q-9 -119 -15 -145 q-13 -72 -80 -72 l-49 0 q-90 0 -90 90 l0 533 l-176 0 q-6 -431 -214 -631 l-42 36 q197 187 203 595 l-146 0 l0 52 l146 0 l0 213 Z" /><glyph glyph-name="" unicode="&#x4eca;" d="M409 556 q122 -57 230 -140 l-30 -46 q-113 91 -229 142 l29 44 ZM148 316 l694 0 l0 -42 q-102 -245 -394 -371 l-36 46 q266 112 367 316 l-631 0 l0 51 ZM520 813 q192 -214 439 -338 l-28 -50 q-250 128 -430 337 q-164 -195 -431 -338 l-27 50 q263 136 439 339 l38 0 Z" /><glyph glyph-name="" unicode="&#x4ecb;" d="M640 478 l54 0 l0 -568 l-54 0 l0 568 ZM302 475 l54 0 l0 -179 q-4 -269 -180 -395 l-41 37 q164 111 167 358 l0 179 ZM519 811 q185 -226 430 -357 l-27 -47 q-250 136 -422 353 q-157 -207 -421 -362 l-26 48 q255 146 428 365 l38 0 Z" /><glyph glyph-name="" unicode="&#x4ecd;" d="M474 711 l-135 0 l0 54 l473 0 l0 -27 q-22 -151 -55 -294 l166 0 l0 -24 q-9 -273 -21 -357 q-15 -90 -45 -120 q-33 -31 -100 -31 l-117 0 l-17 54 q88 -4 118 -4 q56 0 79 23 q22 27 31 95 q10 78 19 315 l-176 0 q41 168 62 316 l-228 0 l0 -196 q-6 -414 -218 -602 l-43 37 q204 177 207 565 l0 196 ZM298 799 q-32 -102 -75 -191 l0 -708 l-53 0 l0 609 q-55 -92 -123 -170 l-17 58 q151 187 219 425 l49 -23 Z" /><glyph glyph-name="" unicode="&#x4ece;" d="M319 808 q0 -236 -24 -410 q119 -125 201 -254 l-41 -41 q-69 116 -170 233 q-1 -1 -1 -4 q-48 -257 -212 -420 l-38 45 q145 147 193 371 q35 188 37 480 l55 0 ZM709 809 q0 -149 -11 -284 q75 -357 263 -565 l-39 -45 q-162 191 -240 477 l-5 -32 l-6 -31 q-49 -259 -221 -423 l-37 45 q152 148 203 375 q38 195 38 483 l55 0 Z" /><glyph glyph-name="" unicode="&#x4ed1;" d="M520 810 q189 -248 437 -393 l-29 -51 q-252 152 -428 394 q-161 -233 -427 -404 l-28 52 q261 161 435 402 l40 0 ZM375 -81 q-121 0 -121 129 l0 416 l53 0 l0 -217 q226 53 454 158 l32 -44 q-252 -112 -486 -165 l0 -138 q0 -88 83 -88 l283 0 q50 0 81 17 q40 28 52 180 l51 -17 q-15 -162 -59 -202 q-38 -28 -111 -29 l-312 0 Z" /><glyph glyph-name="" unicode="&#x4ed3;" d="M519 812 q188 -232 436 -366 l-27 -48 q-252 140 -428 364 q-163 -214 -432 -370 l-26 48 q263 149 439 372 l38 0 ZM684 400 l-372 0 l0 -374 q0 -56 58 -56 l323 0 q83 0 105 31 q23 36 33 138 l50 -17 q-14 -142 -51 -175 q-34 -28 -126 -28 l-353 0 q-94 0 -94 91 l0 440 l481 0 l0 -226 q0 -88 -79 -91 q-33 0 -74 1 q-26 1 -72 3 l-15 51 q100 -4 143 -4 q43 0 43 54 l0 162 Z" /><glyph glyph-name="" unicode="&#x4ed4;" d="M325 387 l304 0 l0 150 q99 75 193 185 l-418 0 l0 50 l481 0 l0 -50 q-87 -108 -203 -207 l0 -128 l277 0 l0 -54 l-277 0 l0 -333 q0 -95 -94 -95 l-108 0 l-13 50 l47 0 q33 -1 52 -1 q63 0 63 63 l0 316 l-304 0 l0 54 ZM174 488 q-58 -82 -123 -148 l-17 58 q171 188 246 424 l50 -24 q-43 -123 -102 -226 l0 -671 l-54 0 l0 587 Z" /><glyph glyph-name="" unicode="&#x4ed6;" d="M312 796 q-35 -112 -89 -213 l0 -683 l-53 0 l0 592 q-55 -83 -118 -153 l-17 56 q158 188 228 424 l49 -23 ZM468 -78 q-91 0 -91 91 l0 427 l-104 -34 l0 54 l104 34 l0 228 l53 0 l0 -210 l168 55 l0 249 l54 0 l0 -231 l221 72 q0 -302 -13 -372 q-14 -65 -111 -65 l-18 0 l-16 53 l24 0 q15 -1 21 -1 q40 0 49 37 q8 34 10 274 l-167 -54 l0 -406 l-54 0 l0 388 l-168 -54 l0 -436 q0 -47 51 -47 l327 0 q40 0 60 22 q18 24 24 167 l51 -17 q-9 -156 -34 -192 q-26 -32 -93 -32 l-348 0 Z" /><glyph glyph-name="" unicode="&#x4ed7;" d="M314 793 q-39 -116 -86 -205 l0 -688 l-54 0 l0 596 q-55 -82 -118 -150 l-17 53 q154 183 224 417 l51 -23 ZM326 638 l354 0 l0 178 l54 0 l0 -178 l211 0 l0 -54 l-211 0 q-6 -270 -99 -432 q126 -126 325 -200 l-27 -48 q-199 75 -329 202 q-97 -125 -284 -202 l-31 46 q186 75 277 197 q-127 146 -175 352 l48 17 q42 -186 158 -322 q77 152 83 390 l-354 0 l0 54 Z" /></font>
</defs>
</svg>
